<mxfile modified="2020-10-24T11:24:13.488Z" host="app.diagrams.net" agent="5.0 (Windows NT 10.0; Win64; x64) AppleWebKit/537.36 (KHTML, like Gecko) Chrome/85.0.4183.102 Safari/537.36" etag="4nZ9o5xB_v3lu1wZ7eUq" version="13.8.1" type="github" pages="2">
  <diagram id="WI9T0HZ2pTsCkuznbFz-" name="Page-1">
    <mxGraphModel dx="1422" dy="796" grid="1" gridSize="10" guides="1" tooltips="1" connect="1" arrows="1" fold="1" page="1" pageScale="1" pageWidth="1169" pageHeight="827" math="0" shadow="0">
      <root>
        <mxCell id="0" />
        <mxCell id="1" parent="0" />
        <mxCell id="AcxdMaKK0mU5kZiv2lnr-30" style="edgeStyle=orthogonalEdgeStyle;rounded=0;orthogonalLoop=1;jettySize=auto;html=1;strokeColor=#808080;entryX=1.064;entryY=0.4;entryDx=0;entryDy=0;entryPerimeter=0;" parent="1" target="AcxdMaKK0mU5kZiv2lnr-13" edge="1">
          <mxGeometry relative="1" as="geometry">
            <mxPoint x="1010" y="230" as="sourcePoint" />
            <mxPoint x="930.7281553398057" y="320.51456310679606" as="targetPoint" />
            <Array as="points">
              <mxPoint x="1010" y="300" />
            </Array>
          </mxGeometry>
        </mxCell>
        <mxCell id="AcxdMaKK0mU5kZiv2lnr-18" style="edgeStyle=orthogonalEdgeStyle;rounded=0;orthogonalLoop=1;jettySize=auto;html=1;entryX=-0.044;entryY=0.367;entryDx=0;entryDy=0;entryPerimeter=0;strokeColor=#808080;" parent="1" source="AcxdMaKK0mU5kZiv2lnr-4" target="AcxdMaKK0mU5kZiv2lnr-5" edge="1">
          <mxGeometry relative="1" as="geometry">
            <Array as="points">
              <mxPoint x="280" y="42" />
            </Array>
          </mxGeometry>
        </mxCell>
        <mxCell id="AcxdMaKK0mU5kZiv2lnr-21" style="edgeStyle=orthogonalEdgeStyle;rounded=0;orthogonalLoop=1;jettySize=auto;html=1;strokeColor=#808080;" parent="1" source="AcxdMaKK0mU5kZiv2lnr-4" edge="1">
          <mxGeometry relative="1" as="geometry">
            <mxPoint x="510" y="365" as="targetPoint" />
            <Array as="points">
              <mxPoint x="480" y="236" />
              <mxPoint x="480" y="365" />
            </Array>
          </mxGeometry>
        </mxCell>
        <mxCell id="AcxdMaKK0mU5kZiv2lnr-16" style="edgeStyle=orthogonalEdgeStyle;rounded=0;orthogonalLoop=1;jettySize=auto;html=1;strokeColor=#808080;" parent="1" source="AcxdMaKK0mU5kZiv2lnr-1" target="AcxdMaKK0mU5kZiv2lnr-4" edge="1">
          <mxGeometry relative="1" as="geometry">
            <Array as="points">
              <mxPoint x="220" y="224" />
              <mxPoint x="220" y="224" />
            </Array>
          </mxGeometry>
        </mxCell>
        <mxCell id="AcxdMaKK0mU5kZiv2lnr-19" style="edgeStyle=orthogonalEdgeStyle;rounded=0;orthogonalLoop=1;jettySize=auto;html=1;strokeColor=#808080;" parent="1" source="AcxdMaKK0mU5kZiv2lnr-1" target="AcxdMaKK0mU5kZiv2lnr-3" edge="1">
          <mxGeometry relative="1" as="geometry">
            <Array as="points">
              <mxPoint x="142" y="380" />
            </Array>
          </mxGeometry>
        </mxCell>
        <mxCell id="AcxdMaKK0mU5kZiv2lnr-17" style="edgeStyle=elbowEdgeStyle;rounded=0;orthogonalLoop=1;jettySize=auto;html=1;entryX=-0.016;entryY=0.49;entryDx=0;entryDy=0;entryPerimeter=0;elbow=vertical;strokeColor=#808080;" parent="1" source="AcxdMaKK0mU5kZiv2lnr-2" target="AcxdMaKK0mU5kZiv2lnr-6" edge="1">
          <mxGeometry relative="1" as="geometry" />
        </mxCell>
        <mxCell id="AcxdMaKK0mU5kZiv2lnr-20" style="edgeStyle=orthogonalEdgeStyle;rounded=0;orthogonalLoop=1;jettySize=auto;html=1;strokeColor=#808080;" parent="1" source="AcxdMaKK0mU5kZiv2lnr-3" target="AcxdMaKK0mU5kZiv2lnr-4" edge="1">
          <mxGeometry relative="1" as="geometry">
            <Array as="points">
              <mxPoint x="345" y="380" />
            </Array>
          </mxGeometry>
        </mxCell>
        <mxCell id="AcxdMaKK0mU5kZiv2lnr-23" style="edgeStyle=elbowEdgeStyle;rounded=0;orthogonalLoop=1;jettySize=auto;html=1;entryX=-0.007;entryY=0.52;entryDx=0;entryDy=0;entryPerimeter=0;elbow=vertical;strokeColor=#808080;" parent="1" source="AcxdMaKK0mU5kZiv2lnr-8" target="AcxdMaKK0mU5kZiv2lnr-10" edge="1">
          <mxGeometry relative="1" as="geometry" />
        </mxCell>
        <mxCell id="AcxdMaKK0mU5kZiv2lnr-22" style="edgeStyle=orthogonalEdgeStyle;rounded=0;orthogonalLoop=1;jettySize=auto;html=1;strokeColor=#808080;" parent="1" source="AcxdMaKK0mU5kZiv2lnr-9" target="AcxdMaKK0mU5kZiv2lnr-8" edge="1">
          <mxGeometry relative="1" as="geometry" />
        </mxCell>
        <mxCell id="AcxdMaKK0mU5kZiv2lnr-24" style="edgeStyle=elbowEdgeStyle;rounded=0;orthogonalLoop=1;jettySize=auto;html=1;entryX=0.009;entryY=0.518;entryDx=0;entryDy=0;entryPerimeter=0;elbow=vertical;strokeColor=#808080;" parent="1" edge="1">
          <mxGeometry relative="1" as="geometry">
            <mxPoint x="701" y="224" as="sourcePoint" />
            <mxPoint x="763.8372093023256" y="223.69767441860466" as="targetPoint" />
            <Array as="points">
              <mxPoint x="730" y="224" />
            </Array>
          </mxGeometry>
        </mxCell>
        <mxCell id="AcxdMaKK0mU5kZiv2lnr-25" style="edgeStyle=orthogonalEdgeStyle;rounded=0;orthogonalLoop=1;jettySize=auto;html=1;strokeColor=#808080;" parent="1" source="AcxdMaKK0mU5kZiv2lnr-11" edge="1">
          <mxGeometry relative="1" as="geometry">
            <mxPoint x="900" y="104" as="targetPoint" />
          </mxGeometry>
        </mxCell>
        <mxCell id="AcxdMaKK0mU5kZiv2lnr-26" style="edgeStyle=orthogonalEdgeStyle;rounded=0;orthogonalLoop=1;jettySize=auto;html=1;entryX=0.406;entryY=0;entryDx=0;entryDy=0;entryPerimeter=0;strokeColor=#808080;" parent="1" source="AcxdMaKK0mU5kZiv2lnr-11" target="AcxdMaKK0mU5kZiv2lnr-13" edge="1">
          <mxGeometry relative="1" as="geometry" />
        </mxCell>
        <mxCell id="AcxdMaKK0mU5kZiv2lnr-28" style="edgeStyle=orthogonalEdgeStyle;rounded=0;orthogonalLoop=1;jettySize=auto;html=1;exitX=1.014;exitY=0.505;exitDx=0;exitDy=0;exitPerimeter=0;entryX=0.498;entryY=0.012;entryDx=0;entryDy=0;entryPerimeter=0;strokeColor=#808080;" parent="1" source="AcxdMaKK0mU5kZiv2lnr-12" target="AcxdMaKK0mU5kZiv2lnr-14" edge="1">
          <mxGeometry relative="1" as="geometry" />
        </mxCell>
        <mxCell id="AcxdMaKK0mU5kZiv2lnr-27" style="edgeStyle=orthogonalEdgeStyle;rounded=0;orthogonalLoop=1;jettySize=auto;html=1;exitX=1.004;exitY=0.609;exitDx=0;exitDy=0;exitPerimeter=0;strokeColor=#808080;" parent="1" source="AcxdMaKK0mU5kZiv2lnr-13" edge="1">
          <mxGeometry relative="1" as="geometry">
            <mxPoint x="1020" y="230" as="targetPoint" />
            <Array as="points">
              <mxPoint x="1020" y="310" />
            </Array>
          </mxGeometry>
        </mxCell>
        <mxCell id="AcxdMaKK0mU5kZiv2lnr-4" value="Channel" style="rounded=0;whiteSpace=wrap;html=1;fillColor=#f5f5f5;strokeColor=none;fontColor=#333333;verticalAlign=top;" parent="1" vertex="1">
          <mxGeometry x="230" y="160" width="230" height="151" as="geometry" />
        </mxCell>
        <mxCell id="AcxdMaKK0mU5kZiv2lnr-1" value="Live Source" style="shape=image;verticalLabelPosition=bottom;labelBackgroundColor=#ffffff;verticalAlign=top;aspect=fixed;imageAspect=0;image=data:image/svg+xml,PHN2ZyB4bWxuczpjYz0iaHR0cDovL2NyZWF0aXZlY29tbW9ucy5vcmcvbnMjIiB4bWxuczpkYz0iaHR0cDovL3B1cmwub3JnL2RjL2VsZW1lbnRzLzEuMS8iIHhtbG5zOmlua3NjYXBlPSJodHRwOi8vd3d3Lmlua3NjYXBlLm9yZy9uYW1lc3BhY2VzL2lua3NjYXBlIiB4bWxuczpyZGY9Imh0dHA6Ly93d3cudzMub3JnLzE5OTkvMDIvMjItcmRmLXN5bnRheC1ucyMiIHhtbG5zOnNvZGlwb2RpPSJodHRwOi8vc29kaXBvZGkuc291cmNlZm9yZ2UubmV0L0RURC9zb2RpcG9kaS0wLmR0ZCIgeG1sbnM6c3ZnPSJodHRwOi8vd3d3LnczLm9yZy8yMDAwL3N2ZyIgeG1sbnM9Imh0dHA6Ly93d3cudzMub3JnLzIwMDAvc3ZnIiB4bWxuczp4bGluaz0iaHR0cDovL3d3dy53My5vcmcvMTk5OS94bGluayIgdmVyc2lvbj0iMS4xIiBpZD0ic3ZnNDYyMjYiIGlua3NjYXBlOnZlcnNpb249IjAuOTIuMyAoMjQwNTU0NiwgMjAxOC0wMy0xMSkiIHNvZGlwb2RpOmRvY25hbWU9ImNhbWVyYS5zdmciIHg9IjBweCIgeT0iMHB4IiB2aWV3Qm94PSIwIDAgNDYuNzggMzUuMTEiIHN0eWxlPSJlbmFibGUtYmFja2dyb3VuZDpuZXcgMCAwIDQ2Ljc4IDM1LjExOyIgeG1sOnNwYWNlPSJwcmVzZXJ2ZSI+JiN4YTs8c29kaXBvZGk6bmFtZWR2aWV3IGJvcmRlcmNvbG9yPSIjNjY2NjY2IiBib3JkZXJvcGFjaXR5PSIxIiBmaXQtbWFyZ2luLWJvdHRvbT0iMCIgZml0LW1hcmdpbi1sZWZ0PSIwIiBmaXQtbWFyZ2luLXJpZ2h0PSIwIiBmaXQtbWFyZ2luLXRvcD0iMCIgZ3JpZHRvbGVyYW5jZT0iMTAiIGd1aWRldG9sZXJhbmNlPSIxMCIgaWQ9Im5hbWVkdmlldzQ2MjI4IiBpbmtzY2FwZTpjdXJyZW50LWxheWVyPSJzdmc0NjIyNiIgaW5rc2NhcGU6Y3g9IjMxLjE4Mzc3NyIgaW5rc2NhcGU6Y3k9IjIzLjQwNTI0OSIgaW5rc2NhcGU6cGFnZW9wYWNpdHk9IjAiIGlua3NjYXBlOnBhZ2VzaGFkb3c9IjIiIGlua3NjYXBlOndpbmRvdy1oZWlnaHQ9IjEwMTciIGlua3NjYXBlOndpbmRvdy1tYXhpbWl6ZWQ9IjEiIGlua3NjYXBlOndpbmRvdy13aWR0aD0iMTkyMCIgaW5rc2NhcGU6d2luZG93LXg9Ii04IiBpbmtzY2FwZTp3aW5kb3cteT0iLTgiIGlua3NjYXBlOnpvb209IjE4LjUxOTI1OSIgb2JqZWN0dG9sZXJhbmNlPSIxMCIgcGFnZWNvbG9yPSIjZmZmZmZmIiBzaG93Z3JpZD0iZmFsc2UiPiYjeGE7CTwvc29kaXBvZGk6bmFtZWR2aWV3PiYjeGE7PGcgaWQ9Imc0NjIyNCI+JiN4YTsJPHRpdGxlIGlkPSJ0aXRsZTQ2MjE3Ij5QYWdlLTE8L3RpdGxlPiYjeGE7CTxnIGlkPSJzaGFwZTEwOC0xIj4mI3hhOwkJPHRpdGxlIGlkPSJ0aXRsZTQ2MjE5Ij5DYW1lcmE8L3RpdGxlPiYjeGE7CQk8cGF0aCBpZD0icGF0aDQ2MjIxIiBpbmtzY2FwZTpjb25uZWN0b3ItY3VydmF0dXJlPSIwIiBzdHlsZT0iZmlsbDojM0Y1NzY1OyIgZD0iTTQ2Ljc4LDEzLjUzYzAsMjAuMTIsMCwyMC4xMiwwLDIwLjEyICAgIGMwLDAuNzMtMC43NCwxLjQ2LTEuODMsMC43M2MtNC4zOS0zLjY2LTQuMzktMy42Ni00LjM5LTMuNjZjMC0wLjczLTEuMDktMC43My0xLjA5LTEuODNjLTEuODMsMC0xLjgzLDAtMS44MywwICAgIGMwLDQuNzYsMCw0Ljc2LDAsNC43NmMwLDAuNzMtMC43MywxLjQ2LTEuODMsMS40NmMtMjkuMjMsMC0yOS4yMywwLTI5LjIzLDBjLTAuNzMsMC0xLjgzLTAuNzMtMS44My0xLjQ2YzAtMTcuMTksMC0xNy4xOSwwLTE3LjE5ICAgIGMwLTEuODMsMS4xLTIuOTMsMS44My0yLjkzYzI5LjIzLDAsMjkuMjMsMCwyOS4yMywwYzEuMSwwLDEuODMsMS4xLDEuODMsMi45M3MwLDEuODMsMCwxLjgzYzEuODMsMCwxLjgzLDAsMS44MywwbDEuMDktMS4xICAgIGM0LjM5LTQuMzksNC4zOS00LjM5LDQuMzktNC4zOUM0Ni4wNCwxMi44LDQ2Ljc4LDEyLjgsNDYuNzgsMTMuNTN6IE0xLjgzLDE0LjYzQzEuMSwxNC42MywwLDE1LjM2LDAsMTYuNDZjMCw2LjIyLDAsNi4yMiwwLDYuMjIgICAgYzAsMC43MywxLjEsMS44MywxLjgzLDEuODNjMS4wOSwwLDIuMTktMS4xLDIuMTktMS44M2MwLTYuMjIsMC02LjIyLDAtNi4yMkM0LjAyLDE1LjM2LDIuOTIsMTQuNjMsMS44MywxNC42M3ogTTI4LjUsMTIuOCAgICBjMy42NiwwLDYuNTgtMi41Niw2LjU4LTYuMjJDMzUuMDgsMi45MywzMi4xNiwwLDI4LjUsMGMtMy42NSwwLTcuMywyLjkzLTcuMyw2LjU4QzIxLjIsMTAuMjQsMjQuODUsMTIuOCwyOC41LDEyLjh6IE0xMy44OSwxMi44ICAgIGMzLjY1LDAsNi41Ny0yLjU2LDYuNTctNi4yMmMwLTMuNjUtMi45Mi02LjU4LTYuNTctNi41OGMtMy42NiwwLTcuMzEsMi45My03LjMxLDYuNThDNi41OCwxMC4yNCwxMC4yMywxMi44LDEzLjg5LDEyLjh6Ii8+JiN4YTsJPC9nPiYjeGE7PC9nPiYjeGE7PC9zdmc+;" parent="1" vertex="1">
          <mxGeometry x="110" y="200.00000000000003" width="64" height="48" as="geometry" />
        </mxCell>
        <mxCell id="AcxdMaKK0mU5kZiv2lnr-2" value="Azure Live&#xa;Encoder&#xa;" style="shape=image;verticalLabelPosition=bottom;labelBackgroundColor=none;verticalAlign=top;aspect=fixed;imageAspect=0;image=data:image/svg+xml,PHN2ZyB4bWxuczpjYz0iaHR0cDovL2NyZWF0aXZlY29tbW9ucy5vcmcvbnMjIiB4bWxuczpkYz0iaHR0cDovL3B1cmwub3JnL2RjL2VsZW1lbnRzLzEuMS8iIHhtbG5zOmlua3NjYXBlPSJodHRwOi8vd3d3Lmlua3NjYXBlLm9yZy9uYW1lc3BhY2VzL2lua3NjYXBlIiB4bWxuczpyZGY9Imh0dHA6Ly93d3cudzMub3JnLzE5OTkvMDIvMjItcmRmLXN5bnRheC1ucyMiIHhtbG5zOnNvZGlwb2RpPSJodHRwOi8vc29kaXBvZGkuc291cmNlZm9yZ2UubmV0L0RURC9zb2RpcG9kaS0wLmR0ZCIgeG1sbnM6c3ZnPSJodHRwOi8vd3d3LnczLm9yZy8yMDAwL3N2ZyIgeG1sbnM9Imh0dHA6Ly93d3cudzMub3JnLzIwMDAvc3ZnIiB4bWxuczp4bGluaz0iaHR0cDovL3d3dy53My5vcmcvMTk5OS94bGluayIgdmVyc2lvbj0iMS4xIiBpZD0ic3ZnNTQ2MTgiIGlua3NjYXBlOnZlcnNpb249IjAuOTIuMyAoMjQwNTU0NiwgMjAxOC0wMy0xMSkiIHNvZGlwb2RpOmRvY25hbWU9ImVuY29kaW5nLnN2ZyIgeD0iMHB4IiB5PSIwcHgiIHZpZXdCb3g9IjAgMCAyMi44MiAyMS41OCIgc3R5bGU9ImVuYWJsZS1iYWNrZ3JvdW5kOm5ldyAwIDAgMjIuODIgMjEuNTg7IiB4bWw6c3BhY2U9InByZXNlcnZlIj4mI3hhOzxzb2RpcG9kaTpuYW1lZHZpZXcgYm9yZGVyY29sb3I9IiM2NjY2NjYiIGJvcmRlcm9wYWNpdHk9IjEiIGZpdC1tYXJnaW4tYm90dG9tPSIwIiBmaXQtbWFyZ2luLWxlZnQ9IjAiIGZpdC1tYXJnaW4tcmlnaHQ9IjAiIGZpdC1tYXJnaW4tdG9wPSIwIiBncmlkdG9sZXJhbmNlPSIxMCIgZ3VpZGV0b2xlcmFuY2U9IjEwIiBpZD0ibmFtZWR2aWV3NTQ2MjAiIGlua3NjYXBlOmN1cnJlbnQtbGF5ZXI9InN2ZzU0NjE4IiBpbmtzY2FwZTpjeD0iMTEuMjk4ODY0IiBpbmtzY2FwZTpjeT0iLTEuMDQxNTI5MSIgaW5rc2NhcGU6cGFnZW9wYWNpdHk9IjAiIGlua3NjYXBlOnBhZ2VzaGFkb3c9IjIiIGlua3NjYXBlOndpbmRvdy1oZWlnaHQ9IjEwMTciIGlua3NjYXBlOndpbmRvdy1tYXhpbWl6ZWQ9IjEiIGlua3NjYXBlOndpbmRvdy13aWR0aD0iMTkyMCIgaW5rc2NhcGU6d2luZG93LXg9Ii04IiBpbmtzY2FwZTp3aW5kb3cteT0iLTgiIGlua3NjYXBlOnpvb209IjEwLjY1MzgzNiIgb2JqZWN0dG9sZXJhbmNlPSIxMCIgcGFnZWNvbG9yPSIjZmZmZmZmIiBzaG93Z3JpZD0iZmFsc2UiPiYjeGE7CTwvc29kaXBvZGk6bmFtZWR2aWV3PiYjeGE7PGcgaWQ9Imc1NDYxNiIgdHJhbnNmb3JtPSJ0cmFuc2xhdGUoLTIuNzQwNjUzNWUtNSwwLjAwMzE0NTc0KSI+JiN4YTsJPHRpdGxlIGlkPSJ0aXRsZTU0NjA5Ij5QYWdlLTE8L3RpdGxlPiYjeGE7CTxnIGlkPSJzaGFwZTMwODQtMSI+JiN4YTsJCTx0aXRsZSBpZD0idGl0bGU1NDYxMSI+RW5jb2Rpbmc8L3RpdGxlPiYjeGE7CQk8cGF0aCBpZD0icGF0aDU0NjEzIiBpbmtzY2FwZTpjb25uZWN0b3ItY3VydmF0dXJlPSIwIiBzdHlsZT0iZmlsbDojM0Y1NzY1OyIgZD0iTTIyLjgyLDEzLjMxYzAtMC44NSwwLTQuNzktMC4wOC04LjY3ICAgIGMwLTIuNDQtMi4zNC00Ljc0LTUuODctNC42NEMxNi4zMiwwLDgsMC4wNyw4LDAuMDdDNi45OSwwLjE1LDYuODQsMC45NCw2Ljg0LDEuMzNzMCwwLjA3LDAsMC42M2MwLDAuNDgsMC41MywwLjg3LDEuMDksMC45NCAgICBjMCwwLDAsMCwwLDAuMWMwLDAuMDcsMCwwLjA3LDAuMDcsMC4xNEM3LjU0LDMuNyw3LjU0LDMuNyw3LjU0LDMuN2MwLDAuNjMsMCwwLjYzLDAsMC42M2MtNC40LDAtNC40LDAtNC40LDAgICAgYzAsMi44MywwLDIuODMsMCwyLjgzQzAsNy4xNiwwLDcuMTYsMCw3LjE2YzAsMy44LDAsMy44LDAsMy44YzE2LjI0LDAsMTYuMjQsMCwxNi4yNCwwYzAtMy44LDAtMy44LDAtMy44Yy0yLjIsMC0yLjIsMC0yLjIsMCAgICBjMC0yLjgzLDAtMi44MywwLTIuODNjLTMuOTgsMC0zLjk4LDAtMy45OCwwYzAtMC41NiwwLTAuNTYsMC0wLjU2QzkuNTcsMy4xNCw5LjU3LDMuMTQsOS41NywzLjE0YzAtMC4wNywwLjA3LTAuMDcsMC4wNy0wLjE0ICAgIGMwLTAuMSwwLTAuMS0wLjA3LTAuMTdjMi4xMywwLDUuNTktMC4wNyw2LjIxLTAuMDdjMy41MSwwLDMuODIsMS40LDMuODIsMi4zN2MwLDAuODUsMC4xLDYuMjIsMC4xLDguMzQgICAgYzAuMDcsMi4wNi0zLjIyLDIuMDYtMy44NCwyLjA2Yy0wLjM5LDAtNC4zMywwLTYuMjIsMC4wN2wtMC4wNy0wLjA3Yy0wLjE0LDAtMC4xNCwwLTAuMTQsMGMwLTAuMSwwLTAuMSwwLTAuMSAgICBjMC4xNC0wLjA3LDAuMTQtMC4wNywwLjE0LTAuMDdoMC4wN2MwLTAuMDctMC4wNy0wLjA3LTAuMDctMC4wN2MtMC4xNCwwLTAuMTQsMC0wLjE0LDBjMC0wLjE3LDAtMC4xNywwLTAuMTcgICAgYzAuMTQsMCwwLjE0LDAsMC4xNCwwczAuMDcsMCwwLjA3LTAuMDdIOS41N2MtMC4xNCwwLTAuMTQsMC0wLjE0LDBjMC0wLjE1LDAtMC4xNSwwLTAuMTVjMC4xNCwwLDAuMTQsMCwwLjE0LDBzMC4wNywwLDAuMDctMC4wOSAgICBIOS41N2MtMC4xNCwwLTAuMTQsMC0wLjE0LDBjMC0wLjE1LDAtMC4xNSwwLTAuMTVjMC4xNCwwLDAuMTQsMCwwLjE0LDBsMC4wNy0wLjFsLTAuMDctMC4wN2MtMC4xNCwwLTAuMTQsMC0wLjE0LDAgICAgYzAtMC4xNCwwLTAuMTQsMC0wLjE0YzAuMTQsMCwwLjE0LDAsMC4xNCwwaDAuMDdjMC0wLjEtMC4wNy0wLjEtMC4wNy0wLjFjLTAuMTQsMC0wLjE0LDAtMC4xNCwwQzkuMzUsMTQuMSw5LjM1LDE0LjEsOS4zNSwxNC4xICAgIGMwLjIyLDAsMC4yMiwwLDAuMjIsMHMwLjA3LDAsMC4wNy0wLjA3Yy0wLjA3LDAtMC4wNywwLTAuMDcsMGMtMC4yMiwwLTAuMjIsMC0wLjIyLDBjMC0wLjE3LDAtMC4xNywwLTAuMTdjMC4yMiwwLDAuMjIsMCwwLjIyLDAgICAgdi0wLjA3di0wLjA3Yy0wLjIyLDAtMC4yMiwwLTAuMjIsMGMwLTAuMTcsMC0wLjE3LDAtMC4xN2MwLjIyLDAsMC4yMiwwLDAuMjIsMGwwLDBjMC0wLjA4LDAtMC4wOCwwLTAuMDhjLTAuMjIsMC0wLjIyLDAtMC4yMiwwICAgIGMwLTAuMTYsMC0wLjE2LDAtMC4xNmMwLjIyLDAsMC4yMiwwLDAuMjIsMHMwLDAsMC0wLjA4bDAsMGMtMC4yMiwwLTAuMjIsMC0wLjIyLDBjMC0wLjE0LDAtMC4xNCwwLTAuMTRjMC4yMiwwLDAuMjIsMCwwLjIyLDAgICAgdi0wLjF2LTAuMDdjLTAuMjIsMC0wLjIyLDAtMC4yMiwwYzAtMC4xNSwwLTAuMTUsMC0wLjE1YzAuMjIsMCwwLjIyLDAsMC4yMiwwbDAsMGMwLTAuMDksMC0wLjA5LDAtMC4wOWMtMC4yMiwwLTAuMjIsMC0wLjIyLDAgICAgYzAtMC4wOCwwLTAuMDgsMC0wLjA4YzAuMjIsMCwwLjIyLDAsMC4yMiwwYzAuMDcsMCwwLjE3LTAuMDcsMC4xNy0wLjE0YzAtMC4xLDAtMC4xLTAuMS0wLjE3YzAuNDktMC41NiwwLjQ5LTAuNTYsMC40OS0wLjU2ICAgIGMwLTAuNzcsMC0wLjc3LDAtMC43N2MtMi41MiwwLTIuNTIsMC0yLjUyLDBjMCwwLjcsMCwwLjcsMCwwLjdjMC40OSwwLjcsMC40OSwwLjcsMC40OSwwLjdjLTAuMSwwLTAuMSwwLjEtMC4xLDAuMSAgICBjMCwwLjE0LDAuMSwwLjE0LDAuMTcsMC4xNHMwLjA3LDAsMC4wNywwYzAsMC4wOCwwLDAuMDgsMCwwLjA4Yy0wLjE0LDAtMC4xNCwwLTAuMTQsMHYwLjA5djAuMDhjMC4xNCwwLDAuMTQsMCwwLjE0LDAgICAgYzAsMC4xNCwwLDAuMTQsMCwwLjE0Yy0wLjE0LDAtMC4xNCwwLTAuMTQsMGwwLDBjMCwwLjEsMCwwLjEsMCwwLjFjMC4xNCwwLDAuMTQsMCwwLjE0LDBjMCwwLjE0LDAsMC4xNCwwLDAuMTQgICAgYy0wLjE0LDAtMC4xNCwwLTAuMTQsMHMwLDAsMCwwLjA4bDAsMGMwLjE0LDAsMC4xNCwwLDAuMTQsMGMwLDAuMTYsMCwwLjE2LDAsMC4xNmMtMC4xNCwwLTAuMTQsMC0wLjE0LDB2MC4wOHYwLjA3ICAgIGMwLjE0LDAsMC4xNCwwLDAuMTQsMGMwLDAuMTcsMCwwLjE3LDAsMC4xN2MtMC4xNCwwLTAuMTQsMC0wLjE0LDBsMCwwYzAsMC4wNywwLDAuMDcsMC4wNywwLjA3czAuMDcsMCwwLjA3LDAgICAgYzAsMC4xNywwLDAuMTcsMCwwLjE3Yy0wLjA3LDAtMC4wNywwLTAuMDcsMGMtMC4wNywwLTAuMDcsMC0wLjA3LDAuMDdjMCwwLDAsMCwwLjA3LDBzMC4wNywwLDAuMDcsMGMwLDAuMTUsMCwwLjE1LDAsMC4xNSAgICBjLTAuMDcsMC0wLjA3LDAtMC4wNywwYy0wLjA3LDAtMC4wNywwLTAuMDcsMC4xYzAsMCwwLDAsMC4wNywwczAuMDcsMCwwLjA3LDBjMCwwLjE0LDAsMC4xNCwwLDAuMTRjLTAuMDcsMC0wLjA3LDAtMC4wNywwICAgIGMtMC4wNywwLTAuMDcsMC4wNy0wLjA3LDAuMDdjMCwwLjEsMCwwLjEsMC4wNywwLjFzMC4wNywwLDAuMDcsMGMwLDAuMTUsMCwwLjE1LDAsMC4xNWMtMC4wNywwLTAuMDcsMC0wLjA3LDAgICAgYy0wLjA3LDAtMC4wNywwLTAuMDcsMGMwLDAuMDksMCwwLjA5LDAuMDcsMC4wOXMwLjA3LDAsMC4wNywwYzAsMC4xNSwwLDAuMTUsMCwwLjE1Yy0wLjA3LDAtMC4wNywwLTAuMDcsMCAgICBjLTAuMDcsMC0wLjA3LDAtMC4wNywwLjA3YzAsMCwwLDAsMC4wNywwczAuMDcsMCwwLjA3LDBjMCwwLjE3LDAsMC4xNywwLDAuMTdjLTAuMDcsMC0wLjA3LDAtMC4wNywwYy0wLjA3LDAtMC4wNywwLjA3LTAuMDcsMC4wNyAgICBzMCwwLjA3LDAuMDcsMC4wN3MwLjA3LDAsMC4wNywwYzAsMC4xNywwLDAuMTcsMCwwLjE3Yy0wLjA3LDAtMC4wNywwLTAuMDcsMGMtMC4wNywwLTAuMDcsMC0wLjA3LDB2MC4wOCAgICBjLTAuNDEsMC4wNy0wLjczLDAuMzEtMC43MywwLjc5YzAsMC4zMiwwLDAuMzksMC4xLDAuODhjMCwwLjM4LDAuMzEsMC43NywwLjcsMC44NGwwLDBjMCwwLjEsMCwwLjEsMCwwLjFjMC4xNCwwLDAuMTQsMCwwLjE0LDAgICAgYzAsMC4xNCwwLDAuMTQsMCwwLjE0Yy0wLjE0LDAtMC4xNCwwLTAuMTQsMHMwLDAsMCwwLjA4bDAsMGMwLjE0LDAsMC4xNCwwLDAuMTQsMGMwLDAuMTcsMCwwLjE3LDAsMC4xN2MtMC4xNCwwLTAuMTQsMC0wLjE0LDAgICAgdjAuMDd2MC4wN2MwLjE0LDAsMC4xNCwwLDAuMTQsMGMwLDAuMTcsMCwwLjE3LDAsMC4xN2MtMC4xNCwwLTAuMTQsMC0wLjE0LDBsMCwwYzAsMC4wNywwLDAuMDcsMCwwLjA3YzAuMTQsMCwwLjE0LDAsMC4xNCwwICAgIGMwLDAuMTcsMCwwLjE3LDAsMC4xN2MtMC4xNCwwLTAuMTQsMC0wLjE0LDBzMCwwLDAsMC4wN2wwLDBjMC4xNCwwLDAuMTQsMCwwLjE0LDBjMCwwLjE1LDAsMC4xNSwwLDAuMTVjLTAuMTQsMC0wLjE0LDAtMC4xNCwwICAgIHYwLjF2MC4wN2MwLjE0LDAsMC4xNCwwLDAuMTQsMGMwLDAuMTcsMCwwLjE3LDAsMC4xN2MtMC4xNCwwLTAuMTQsMC0wLjE0LDBsMCwwYzAsMC4wNywwLDAuMDcsMC4wNywwLjA3czAuMDcsMCwwLjA3LDAgICAgYzAsMC4xNSwwLDAuMTUsMCwwLjE1Yy0wLjA3LDAtMC4wNywwLTAuMDcsMGMtMC4wNywwLTAuMDcsMC0wLjA3LDAuMDljMCwwLDAsMCwwLjA3LDBzMC4wNywwLDAuMDcsMGMwLDAuMDgsMCwwLjA4LDAsMC4wOCAgICBjLTAuNjIsMC0wLjYyLDAtMC42MiwwYzAsMC4yNCwwLDAuMjQsMCwwLjI0Yy0yLjksMC0yLjksMC0yLjksMGMtMC4yMiwwLTAuMzksMC4wNy0wLjM5LDAuMTRjMCwwLjA4LDAsMC4wOCwwLDAuMDggICAgYzAsMC4wOSwwLjE3LDAuMTYsMC4zOSwwLjE2YzIuOS0wLjA3LDIuOS0wLjA3LDIuOS0wLjA3YzAsMC4xNSwwLDAuMTUsMCwwLjE1YzAuNTUsMC43LDAuNTUsMC43LDAuNTUsMC43YzEuNSwwLDEuNSwwLDEuNSwwICAgIGMwLjUzLTAuNywwLjUzLTAuNywwLjUzLTAuN2MwLTAuMTUsMC0wLjE1LDAtMC4xNWMyLjgzLDAsMi44MywwLDIuODMsMGMwLjI0LTAuMDksMC40OC0wLjA5LDAuNDgtMC4xNyAgICBjLTAuMDktMC4xNC0wLjA5LTAuMTQtMC4wOS0wLjE0YzAtMC4xLTAuMTUtMC4xLTAuMzktMC4xYy0yLjgzLDAtMi44MywwLTIuODMsMGMwLTAuMTQsMC0wLjE0LDAtMC4xNGMtMC43NywwLTAuNzcsMC0wLjc3LDAgICAgYzAtMC4wOCwwLTAuMDgsMC0wLjA4YzAuMTQsMCwwLjE0LDAsMC4xNCwwczAuMSwwLDAuMS0wLjA5aC0wLjFjLTAuMjEsMC0wLjIxLDAtMC4yMSwwYzAtMC4xNSwwLTAuMTUsMC0wLjE1ICAgIGMwLjIxLDAsMC4yMSwwLDAuMjEsMHYtMC4wN3YtMC4xYy0wLjIxLDAtMC4yMSwwLTAuMjEsMGMwLTAuMTQsMC0wLjE0LDAtMC4xNGMwLjIxLDAsMC4yMSwwLDAuMjEsMGwwLDBjMC0wLjEsMC0wLjEsMC0wLjEgICAgYy0wLjIxLDAtMC4yMSwwLTAuMjEsMGMwLTAuMTUsMC0wLjE1LDAtMC4xNWMwLjIxLDAsMC4yMSwwLDAuMjEsMHMwLDAsMC0wLjA3bDAsMGMtMC4yMSwwLTAuMjEsMC0wLjIxLDBjMC0wLjE3LDAtMC4xNywwLTAuMTcgICAgYzAuMjEsMCwwLjIxLDAsMC4yMSwwdi0wLjA3di0wLjA3Yy0wLjIxLDAtMC4yMSwwLTAuMjEsMGMwLTAuMSwwLTAuMSwwLTAuMWMwLjIxLTAuMDcsMC4yMS0wLjA3LDAuMjEtMC4wN2wwLDAgICAgYzAtMC4wNywwLTAuMDcsMC0wLjA3Yy0wLjIxLDAtMC4yMSwwLTAuMjEsMGMwLTAuMTcsMC0wLjE3LDAtMC4xN2MwLjIxLDAsMC4yMSwwLDAuMjEsMGwwLDBjMC0wLjA4LDAtMC4wOCwwLTAuMDggICAgYy0wLjIxLDAtMC4yMSwwLTAuMjEsMGMwLTAuMTQsMC0wLjE0LDAtMC4xNGMwLjIxLDAsMC4yMSwwLDAuMjEsMHMwLDAsMC0wLjFsMCwwYzEuMzYsMCwzLjYzLTAuMDcsNy4zOC0wLjA3ICAgIEMyMi44MiwxOC4wNSwyMi44MiwxNC4yNSwyMi44MiwxMy4zMXoiLz4mI3hhOwk8L2c+JiN4YTs8L2c+JiN4YTs8L3N2Zz4=;" parent="1" vertex="1">
          <mxGeometry x="245" y="195.00000000000009" width="61" height="58" as="geometry" />
        </mxCell>
        <mxCell id="AcxdMaKK0mU5kZiv2lnr-3" value="3rd party&#xa;On-Premises&#xa;Live Encoder&#xa;" style="shape=image;verticalLabelPosition=bottom;labelBackgroundColor=#ffffff;verticalAlign=top;aspect=fixed;imageAspect=0;image=data:image/svg+xml,PHN2ZyB4bWxuczpjYz0iaHR0cDovL2NyZWF0aXZlY29tbW9ucy5vcmcvbnMjIiB4bWxuczpkYz0iaHR0cDovL3B1cmwub3JnL2RjL2VsZW1lbnRzLzEuMS8iIHhtbG5zOmlua3NjYXBlPSJodHRwOi8vd3d3Lmlua3NjYXBlLm9yZy9uYW1lc3BhY2VzL2lua3NjYXBlIiB4bWxuczpyZGY9Imh0dHA6Ly93d3cudzMub3JnLzE5OTkvMDIvMjItcmRmLXN5bnRheC1ucyMiIHhtbG5zOnNvZGlwb2RpPSJodHRwOi8vc29kaXBvZGkuc291cmNlZm9yZ2UubmV0L0RURC9zb2RpcG9kaS0wLmR0ZCIgeG1sbnM6c3ZnPSJodHRwOi8vd3d3LnczLm9yZy8yMDAwL3N2ZyIgeG1sbnM9Imh0dHA6Ly93d3cudzMub3JnLzIwMDAvc3ZnIiB4bWxuczp4bGluaz0iaHR0cDovL3d3dy53My5vcmcvMTk5OS94bGluayIgdmVyc2lvbj0iMS4xIiBpZD0ic3ZnNTQ2MTgiIGlua3NjYXBlOnZlcnNpb249IjAuOTIuMyAoMjQwNTU0NiwgMjAxOC0wMy0xMSkiIHNvZGlwb2RpOmRvY25hbWU9ImVuY29kaW5nLnN2ZyIgeD0iMHB4IiB5PSIwcHgiIHZpZXdCb3g9IjAgMCAyMi44MiAyMS41OCIgc3R5bGU9ImVuYWJsZS1iYWNrZ3JvdW5kOm5ldyAwIDAgMjIuODIgMjEuNTg7IiB4bWw6c3BhY2U9InByZXNlcnZlIj4mI3hhOzxzb2RpcG9kaTpuYW1lZHZpZXcgYm9yZGVyY29sb3I9IiM2NjY2NjYiIGJvcmRlcm9wYWNpdHk9IjEiIGZpdC1tYXJnaW4tYm90dG9tPSIwIiBmaXQtbWFyZ2luLWxlZnQ9IjAiIGZpdC1tYXJnaW4tcmlnaHQ9IjAiIGZpdC1tYXJnaW4tdG9wPSIwIiBncmlkdG9sZXJhbmNlPSIxMCIgZ3VpZGV0b2xlcmFuY2U9IjEwIiBpZD0ibmFtZWR2aWV3NTQ2MjAiIGlua3NjYXBlOmN1cnJlbnQtbGF5ZXI9InN2ZzU0NjE4IiBpbmtzY2FwZTpjeD0iMTEuMjk4ODY0IiBpbmtzY2FwZTpjeT0iLTEuMDQxNTI5MSIgaW5rc2NhcGU6cGFnZW9wYWNpdHk9IjAiIGlua3NjYXBlOnBhZ2VzaGFkb3c9IjIiIGlua3NjYXBlOndpbmRvdy1oZWlnaHQ9IjEwMTciIGlua3NjYXBlOndpbmRvdy1tYXhpbWl6ZWQ9IjEiIGlua3NjYXBlOndpbmRvdy13aWR0aD0iMTkyMCIgaW5rc2NhcGU6d2luZG93LXg9Ii04IiBpbmtzY2FwZTp3aW5kb3cteT0iLTgiIGlua3NjYXBlOnpvb209IjEwLjY1MzgzNiIgb2JqZWN0dG9sZXJhbmNlPSIxMCIgcGFnZWNvbG9yPSIjZmZmZmZmIiBzaG93Z3JpZD0iZmFsc2UiPiYjeGE7CTwvc29kaXBvZGk6bmFtZWR2aWV3PiYjeGE7PGcgaWQ9Imc1NDYxNiIgdHJhbnNmb3JtPSJ0cmFuc2xhdGUoLTIuNzQwNjUzNWUtNSwwLjAwMzE0NTc0KSI+JiN4YTsJPHRpdGxlIGlkPSJ0aXRsZTU0NjA5Ij5QYWdlLTE8L3RpdGxlPiYjeGE7CTxnIGlkPSJzaGFwZTMwODQtMSI+JiN4YTsJCTx0aXRsZSBpZD0idGl0bGU1NDYxMSI+RW5jb2Rpbmc8L3RpdGxlPiYjeGE7CQk8cGF0aCBpZD0icGF0aDU0NjEzIiBpbmtzY2FwZTpjb25uZWN0b3ItY3VydmF0dXJlPSIwIiBzdHlsZT0iZmlsbDojM0Y1NzY1OyIgZD0iTTIyLjgyLDEzLjMxYzAtMC44NSwwLTQuNzktMC4wOC04LjY3ICAgIGMwLTIuNDQtMi4zNC00Ljc0LTUuODctNC42NEMxNi4zMiwwLDgsMC4wNyw4LDAuMDdDNi45OSwwLjE1LDYuODQsMC45NCw2Ljg0LDEuMzNzMCwwLjA3LDAsMC42M2MwLDAuNDgsMC41MywwLjg3LDEuMDksMC45NCAgICBjMCwwLDAsMCwwLDAuMWMwLDAuMDcsMCwwLjA3LDAuMDcsMC4xNEM3LjU0LDMuNyw3LjU0LDMuNyw3LjU0LDMuN2MwLDAuNjMsMCwwLjYzLDAsMC42M2MtNC40LDAtNC40LDAtNC40LDAgICAgYzAsMi44MywwLDIuODMsMCwyLjgzQzAsNy4xNiwwLDcuMTYsMCw3LjE2YzAsMy44LDAsMy44LDAsMy44YzE2LjI0LDAsMTYuMjQsMCwxNi4yNCwwYzAtMy44LDAtMy44LDAtMy44Yy0yLjIsMC0yLjIsMC0yLjIsMCAgICBjMC0yLjgzLDAtMi44MywwLTIuODNjLTMuOTgsMC0zLjk4LDAtMy45OCwwYzAtMC41NiwwLTAuNTYsMC0wLjU2QzkuNTcsMy4xNCw5LjU3LDMuMTQsOS41NywzLjE0YzAtMC4wNywwLjA3LTAuMDcsMC4wNy0wLjE0ICAgIGMwLTAuMSwwLTAuMS0wLjA3LTAuMTdjMi4xMywwLDUuNTktMC4wNyw2LjIxLTAuMDdjMy41MSwwLDMuODIsMS40LDMuODIsMi4zN2MwLDAuODUsMC4xLDYuMjIsMC4xLDguMzQgICAgYzAuMDcsMi4wNi0zLjIyLDIuMDYtMy44NCwyLjA2Yy0wLjM5LDAtNC4zMywwLTYuMjIsMC4wN2wtMC4wNy0wLjA3Yy0wLjE0LDAtMC4xNCwwLTAuMTQsMGMwLTAuMSwwLTAuMSwwLTAuMSAgICBjMC4xNC0wLjA3LDAuMTQtMC4wNywwLjE0LTAuMDdoMC4wN2MwLTAuMDctMC4wNy0wLjA3LTAuMDctMC4wN2MtMC4xNCwwLTAuMTQsMC0wLjE0LDBjMC0wLjE3LDAtMC4xNywwLTAuMTcgICAgYzAuMTQsMCwwLjE0LDAsMC4xNCwwczAuMDcsMCwwLjA3LTAuMDdIOS41N2MtMC4xNCwwLTAuMTQsMC0wLjE0LDBjMC0wLjE1LDAtMC4xNSwwLTAuMTVjMC4xNCwwLDAuMTQsMCwwLjE0LDBzMC4wNywwLDAuMDctMC4wOSAgICBIOS41N2MtMC4xNCwwLTAuMTQsMC0wLjE0LDBjMC0wLjE1LDAtMC4xNSwwLTAuMTVjMC4xNCwwLDAuMTQsMCwwLjE0LDBsMC4wNy0wLjFsLTAuMDctMC4wN2MtMC4xNCwwLTAuMTQsMC0wLjE0LDAgICAgYzAtMC4xNCwwLTAuMTQsMC0wLjE0YzAuMTQsMCwwLjE0LDAsMC4xNCwwaDAuMDdjMC0wLjEtMC4wNy0wLjEtMC4wNy0wLjFjLTAuMTQsMC0wLjE0LDAtMC4xNCwwQzkuMzUsMTQuMSw5LjM1LDE0LjEsOS4zNSwxNC4xICAgIGMwLjIyLDAsMC4yMiwwLDAuMjIsMHMwLjA3LDAsMC4wNy0wLjA3Yy0wLjA3LDAtMC4wNywwLTAuMDcsMGMtMC4yMiwwLTAuMjIsMC0wLjIyLDBjMC0wLjE3LDAtMC4xNywwLTAuMTdjMC4yMiwwLDAuMjIsMCwwLjIyLDAgICAgdi0wLjA3di0wLjA3Yy0wLjIyLDAtMC4yMiwwLTAuMjIsMGMwLTAuMTcsMC0wLjE3LDAtMC4xN2MwLjIyLDAsMC4yMiwwLDAuMjIsMGwwLDBjMC0wLjA4LDAtMC4wOCwwLTAuMDhjLTAuMjIsMC0wLjIyLDAtMC4yMiwwICAgIGMwLTAuMTYsMC0wLjE2LDAtMC4xNmMwLjIyLDAsMC4yMiwwLDAuMjIsMHMwLDAsMC0wLjA4bDAsMGMtMC4yMiwwLTAuMjIsMC0wLjIyLDBjMC0wLjE0LDAtMC4xNCwwLTAuMTRjMC4yMiwwLDAuMjIsMCwwLjIyLDAgICAgdi0wLjF2LTAuMDdjLTAuMjIsMC0wLjIyLDAtMC4yMiwwYzAtMC4xNSwwLTAuMTUsMC0wLjE1YzAuMjIsMCwwLjIyLDAsMC4yMiwwbDAsMGMwLTAuMDksMC0wLjA5LDAtMC4wOWMtMC4yMiwwLTAuMjIsMC0wLjIyLDAgICAgYzAtMC4wOCwwLTAuMDgsMC0wLjA4YzAuMjIsMCwwLjIyLDAsMC4yMiwwYzAuMDcsMCwwLjE3LTAuMDcsMC4xNy0wLjE0YzAtMC4xLDAtMC4xLTAuMS0wLjE3YzAuNDktMC41NiwwLjQ5LTAuNTYsMC40OS0wLjU2ICAgIGMwLTAuNzcsMC0wLjc3LDAtMC43N2MtMi41MiwwLTIuNTIsMC0yLjUyLDBjMCwwLjcsMCwwLjcsMCwwLjdjMC40OSwwLjcsMC40OSwwLjcsMC40OSwwLjdjLTAuMSwwLTAuMSwwLjEtMC4xLDAuMSAgICBjMCwwLjE0LDAuMSwwLjE0LDAuMTcsMC4xNHMwLjA3LDAsMC4wNywwYzAsMC4wOCwwLDAuMDgsMCwwLjA4Yy0wLjE0LDAtMC4xNCwwLTAuMTQsMHYwLjA5djAuMDhjMC4xNCwwLDAuMTQsMCwwLjE0LDAgICAgYzAsMC4xNCwwLDAuMTQsMCwwLjE0Yy0wLjE0LDAtMC4xNCwwLTAuMTQsMGwwLDBjMCwwLjEsMCwwLjEsMCwwLjFjMC4xNCwwLDAuMTQsMCwwLjE0LDBjMCwwLjE0LDAsMC4xNCwwLDAuMTQgICAgYy0wLjE0LDAtMC4xNCwwLTAuMTQsMHMwLDAsMCwwLjA4bDAsMGMwLjE0LDAsMC4xNCwwLDAuMTQsMGMwLDAuMTYsMCwwLjE2LDAsMC4xNmMtMC4xNCwwLTAuMTQsMC0wLjE0LDB2MC4wOHYwLjA3ICAgIGMwLjE0LDAsMC4xNCwwLDAuMTQsMGMwLDAuMTcsMCwwLjE3LDAsMC4xN2MtMC4xNCwwLTAuMTQsMC0wLjE0LDBsMCwwYzAsMC4wNywwLDAuMDcsMC4wNywwLjA3czAuMDcsMCwwLjA3LDAgICAgYzAsMC4xNywwLDAuMTcsMCwwLjE3Yy0wLjA3LDAtMC4wNywwLTAuMDcsMGMtMC4wNywwLTAuMDcsMC0wLjA3LDAuMDdjMCwwLDAsMCwwLjA3LDBzMC4wNywwLDAuMDcsMGMwLDAuMTUsMCwwLjE1LDAsMC4xNSAgICBjLTAuMDcsMC0wLjA3LDAtMC4wNywwYy0wLjA3LDAtMC4wNywwLTAuMDcsMC4xYzAsMCwwLDAsMC4wNywwczAuMDcsMCwwLjA3LDBjMCwwLjE0LDAsMC4xNCwwLDAuMTRjLTAuMDcsMC0wLjA3LDAtMC4wNywwICAgIGMtMC4wNywwLTAuMDcsMC4wNy0wLjA3LDAuMDdjMCwwLjEsMCwwLjEsMC4wNywwLjFzMC4wNywwLDAuMDcsMGMwLDAuMTUsMCwwLjE1LDAsMC4xNWMtMC4wNywwLTAuMDcsMC0wLjA3LDAgICAgYy0wLjA3LDAtMC4wNywwLTAuMDcsMGMwLDAuMDksMCwwLjA5LDAuMDcsMC4wOXMwLjA3LDAsMC4wNywwYzAsMC4xNSwwLDAuMTUsMCwwLjE1Yy0wLjA3LDAtMC4wNywwLTAuMDcsMCAgICBjLTAuMDcsMC0wLjA3LDAtMC4wNywwLjA3YzAsMCwwLDAsMC4wNywwczAuMDcsMCwwLjA3LDBjMCwwLjE3LDAsMC4xNywwLDAuMTdjLTAuMDcsMC0wLjA3LDAtMC4wNywwYy0wLjA3LDAtMC4wNywwLjA3LTAuMDcsMC4wNyAgICBzMCwwLjA3LDAuMDcsMC4wN3MwLjA3LDAsMC4wNywwYzAsMC4xNywwLDAuMTcsMCwwLjE3Yy0wLjA3LDAtMC4wNywwLTAuMDcsMGMtMC4wNywwLTAuMDcsMC0wLjA3LDB2MC4wOCAgICBjLTAuNDEsMC4wNy0wLjczLDAuMzEtMC43MywwLjc5YzAsMC4zMiwwLDAuMzksMC4xLDAuODhjMCwwLjM4LDAuMzEsMC43NywwLjcsMC44NGwwLDBjMCwwLjEsMCwwLjEsMCwwLjFjMC4xNCwwLDAuMTQsMCwwLjE0LDAgICAgYzAsMC4xNCwwLDAuMTQsMCwwLjE0Yy0wLjE0LDAtMC4xNCwwLTAuMTQsMHMwLDAsMCwwLjA4bDAsMGMwLjE0LDAsMC4xNCwwLDAuMTQsMGMwLDAuMTcsMCwwLjE3LDAsMC4xN2MtMC4xNCwwLTAuMTQsMC0wLjE0LDAgICAgdjAuMDd2MC4wN2MwLjE0LDAsMC4xNCwwLDAuMTQsMGMwLDAuMTcsMCwwLjE3LDAsMC4xN2MtMC4xNCwwLTAuMTQsMC0wLjE0LDBsMCwwYzAsMC4wNywwLDAuMDcsMCwwLjA3YzAuMTQsMCwwLjE0LDAsMC4xNCwwICAgIGMwLDAuMTcsMCwwLjE3LDAsMC4xN2MtMC4xNCwwLTAuMTQsMC0wLjE0LDBzMCwwLDAsMC4wN2wwLDBjMC4xNCwwLDAuMTQsMCwwLjE0LDBjMCwwLjE1LDAsMC4xNSwwLDAuMTVjLTAuMTQsMC0wLjE0LDAtMC4xNCwwICAgIHYwLjF2MC4wN2MwLjE0LDAsMC4xNCwwLDAuMTQsMGMwLDAuMTcsMCwwLjE3LDAsMC4xN2MtMC4xNCwwLTAuMTQsMC0wLjE0LDBsMCwwYzAsMC4wNywwLDAuMDcsMC4wNywwLjA3czAuMDcsMCwwLjA3LDAgICAgYzAsMC4xNSwwLDAuMTUsMCwwLjE1Yy0wLjA3LDAtMC4wNywwLTAuMDcsMGMtMC4wNywwLTAuMDcsMC0wLjA3LDAuMDljMCwwLDAsMCwwLjA3LDBzMC4wNywwLDAuMDcsMGMwLDAuMDgsMCwwLjA4LDAsMC4wOCAgICBjLTAuNjIsMC0wLjYyLDAtMC42MiwwYzAsMC4yNCwwLDAuMjQsMCwwLjI0Yy0yLjksMC0yLjksMC0yLjksMGMtMC4yMiwwLTAuMzksMC4wNy0wLjM5LDAuMTRjMCwwLjA4LDAsMC4wOCwwLDAuMDggICAgYzAsMC4wOSwwLjE3LDAuMTYsMC4zOSwwLjE2YzIuOS0wLjA3LDIuOS0wLjA3LDIuOS0wLjA3YzAsMC4xNSwwLDAuMTUsMCwwLjE1YzAuNTUsMC43LDAuNTUsMC43LDAuNTUsMC43YzEuNSwwLDEuNSwwLDEuNSwwICAgIGMwLjUzLTAuNywwLjUzLTAuNywwLjUzLTAuN2MwLTAuMTUsMC0wLjE1LDAtMC4xNWMyLjgzLDAsMi44MywwLDIuODMsMGMwLjI0LTAuMDksMC40OC0wLjA5LDAuNDgtMC4xNyAgICBjLTAuMDktMC4xNC0wLjA5LTAuMTQtMC4wOS0wLjE0YzAtMC4xLTAuMTUtMC4xLTAuMzktMC4xYy0yLjgzLDAtMi44MywwLTIuODMsMGMwLTAuMTQsMC0wLjE0LDAtMC4xNGMtMC43NywwLTAuNzcsMC0wLjc3LDAgICAgYzAtMC4wOCwwLTAuMDgsMC0wLjA4YzAuMTQsMCwwLjE0LDAsMC4xNCwwczAuMSwwLDAuMS0wLjA5aC0wLjFjLTAuMjEsMC0wLjIxLDAtMC4yMSwwYzAtMC4xNSwwLTAuMTUsMC0wLjE1ICAgIGMwLjIxLDAsMC4yMSwwLDAuMjEsMHYtMC4wN3YtMC4xYy0wLjIxLDAtMC4yMSwwLTAuMjEsMGMwLTAuMTQsMC0wLjE0LDAtMC4xNGMwLjIxLDAsMC4yMSwwLDAuMjEsMGwwLDBjMC0wLjEsMC0wLjEsMC0wLjEgICAgYy0wLjIxLDAtMC4yMSwwLTAuMjEsMGMwLTAuMTUsMC0wLjE1LDAtMC4xNWMwLjIxLDAsMC4yMSwwLDAuMjEsMHMwLDAsMC0wLjA3bDAsMGMtMC4yMSwwLTAuMjEsMC0wLjIxLDBjMC0wLjE3LDAtMC4xNywwLTAuMTcgICAgYzAuMjEsMCwwLjIxLDAsMC4yMSwwdi0wLjA3di0wLjA3Yy0wLjIxLDAtMC4yMSwwLTAuMjEsMGMwLTAuMSwwLTAuMSwwLTAuMWMwLjIxLTAuMDcsMC4yMS0wLjA3LDAuMjEtMC4wN2wwLDAgICAgYzAtMC4wNywwLTAuMDcsMC0wLjA3Yy0wLjIxLDAtMC4yMSwwLTAuMjEsMGMwLTAuMTcsMC0wLjE3LDAtMC4xN2MwLjIxLDAsMC4yMSwwLDAuMjEsMGwwLDBjMC0wLjA4LDAtMC4wOCwwLTAuMDggICAgYy0wLjIxLDAtMC4yMSwwLTAuMjEsMGMwLTAuMTQsMC0wLjE0LDAtMC4xNGMwLjIxLDAsMC4yMSwwLDAuMjEsMHMwLDAsMC0wLjFsMCwwYzEuMzYsMCwzLjYzLTAuMDcsNy4zOC0wLjA3ICAgIEMyMi44MiwxOC4wNSwyMi44MiwxNC4yNSwyMi44MiwxMy4zMXoiLz4mI3hhOwk8L2c+JiN4YTs8L2c+JiN4YTs8L3N2Zz4=;" parent="1" vertex="1">
          <mxGeometry x="240" y="350" width="63" height="60" as="geometry" />
        </mxCell>
        <mxCell id="AcxdMaKK0mU5kZiv2lnr-5" value="Preview&lt;br&gt;Monitoring&lt;br&gt;" style="aspect=fixed;html=1;perimeter=none;align=center;shadow=0;dashed=0;image;fontSize=12;image=img/lib/mscae/TaskVM.svg;" parent="1" vertex="1">
          <mxGeometry x="340" y="20" width="63" height="60" as="geometry" />
        </mxCell>
        <mxCell id="AcxdMaKK0mU5kZiv2lnr-6" value="Program" style="aspect=fixed;html=1;perimeter=none;align=center;shadow=0;dashed=0;image;fontSize=12;image=img/lib/mscae/WebApp_WebJobs.svg;labelBackgroundColor=none;" parent="1" vertex="1">
          <mxGeometry x="378" y="192.00000000000006" width="64" height="64" as="geometry" />
        </mxCell>
        <mxCell id="AcxdMaKK0mU5kZiv2lnr-8" value="Streaming&#xa;Endpoint&#xa;" style="shape=image;verticalLabelPosition=bottom;labelBackgroundColor=#ffffff;verticalAlign=top;aspect=fixed;imageAspect=0;image=data:image/svg+xml,PHN2ZyB4bWxuczpjYz0iaHR0cDovL2NyZWF0aXZlY29tbW9ucy5vcmcvbnMjIiB4bWxuczpkYz0iaHR0cDovL3B1cmwub3JnL2RjL2VsZW1lbnRzLzEuMS8iIHhtbG5zOmlua3NjYXBlPSJodHRwOi8vd3d3Lmlua3NjYXBlLm9yZy9uYW1lc3BhY2VzL2lua3NjYXBlIiB4bWxuczpyZGY9Imh0dHA6Ly93d3cudzMub3JnLzE5OTkvMDIvMjItcmRmLXN5bnRheC1ucyMiIHhtbG5zOnNvZGlwb2RpPSJodHRwOi8vc29kaXBvZGkuc291cmNlZm9yZ2UubmV0L0RURC9zb2RpcG9kaS0wLmR0ZCIgeG1sbnM6c3ZnPSJodHRwOi8vd3d3LnczLm9yZy8yMDAwL3N2ZyIgeG1sbnM9Imh0dHA6Ly93d3cudzMub3JnLzIwMDAvc3ZnIiB4bWxuczp4bGluaz0iaHR0cDovL3d3dy53My5vcmcvMTk5OS94bGluayIgdmVyc2lvbj0iMS4xIiBpZD0ic3ZnOTI3NzciIGlua3NjYXBlOnZlcnNpb249IjAuOTIuMyAoMjQwNTU0NiwgMjAxOC0wMy0xMSkiIHNvZGlwb2RpOmRvY25hbWU9InBsYXkuc3ZnIiB4PSIwcHgiIHk9IjBweCIgdmlld0JveD0iMCAwIDI3IDI3IiBzdHlsZT0iZW5hYmxlLWJhY2tncm91bmQ6bmV3IDAgMCAyNyAyNzsiIHhtbDpzcGFjZT0icHJlc2VydmUiPiYjeGE7PHNvZGlwb2RpOm5hbWVkdmlldyBib3JkZXJjb2xvcj0iIzY2NjY2NiIgYm9yZGVyb3BhY2l0eT0iMSIgZml0LW1hcmdpbi1ib3R0b209IjAiIGZpdC1tYXJnaW4tbGVmdD0iMCIgZml0LW1hcmdpbi1yaWdodD0iMCIgZml0LW1hcmdpbi10b3A9IjAiIGdyaWR0b2xlcmFuY2U9IjEwIiBndWlkZXRvbGVyYW5jZT0iMTAiIGlkPSJuYW1lZHZpZXc5Mjc3OSIgaW5rc2NhcGU6Y3VycmVudC1sYXllcj0ic3ZnOTI3NzciIGlua3NjYXBlOmN4PSIxNy45OTk1MjIiIGlua3NjYXBlOmN5PSIxNy45OTk4NTYiIGlua3NjYXBlOnBhZ2VvcGFjaXR5PSIwIiBpbmtzY2FwZTpwYWdlc2hhZG93PSIyIiBpbmtzY2FwZTp3aW5kb3ctaGVpZ2h0PSIxMDE3IiBpbmtzY2FwZTp3aW5kb3ctbWF4aW1pemVkPSIxIiBpbmtzY2FwZTp3aW5kb3ctd2lkdGg9IjE5MjAiIGlua3NjYXBlOndpbmRvdy14PSItOCIgaW5rc2NhcGU6d2luZG93LXk9Ii04IiBpbmtzY2FwZTp6b29tPSIyNC4wODMxNCIgb2JqZWN0dG9sZXJhbmNlPSIxMCIgcGFnZWNvbG9yPSIjZmZmZmZmIiBzaG93Z3JpZD0iZmFsc2UiPiYjeGE7CTwvc29kaXBvZGk6bmFtZWR2aWV3PiYjeGE7PGcgaWQ9Imc5Mjc3NSIgdHJhbnNmb3JtPSJ0cmFuc2xhdGUoMS45OTMyMDk4ZS02LDQuMzc4NDU4MWUtNSkiPiYjeGE7CTx0aXRsZSBpZD0idGl0bGU5Mjc2MCI+UGFnZS0xPC90aXRsZT4mI3hhOwk8ZyBpZD0iZ3JvdXA1OTA1LTEiIHRyYW5zZm9ybT0idHJhbnNsYXRlKDAuNzQ5OTkzLC0wLjc0OTk5MykiPiYjeGE7CQk8dGl0bGUgaWQ9InRpdGxlOTI3NjIiPlBsYXk8L3RpdGxlPiYjeGE7CQk8ZyBpZD0ic2hhcGU1OTA2LTIiPiYjeGE7CQkJPHRpdGxlIGlkPSJ0aXRsZTkyNzY0Ij5TaGVldC41OTA2PC90aXRsZT4mI3hhOwkJCSYjeGE7CQkJCTxwYXRoIGlkPSJwYXRoOTI3NjYiIGlua3NjYXBlOmNvbm5lY3Rvci1jdXJ2YXR1cmU9IjAiIHN0eWxlPSJmaWxsOm5vbmU7c3Ryb2tlOiM1NTZBOEE7c3Ryb2tlLXdpZHRoOjEuNTtzdHJva2UtbGluZWNhcDpyb3VuZDtzdHJva2UtbGluZWpvaW46cm91bmQ7c3Ryb2tlLW1pdGVybGltaXQ6MzsiIGQ9IiAgICAgTTMsMS41aDE5LjVjMS42OCwwLDMsMS4zOCwzLDNWMjRjMCwxLjY4LTEuMzIsMy0zLDNIM2MtMS42MiwwLTMtMS4zMi0zLTNWNC41QzAsMi44OCwxLjM4LDEuNSwzLDEuNSIvPiYjeGE7CQk8L2c+JiN4YTsJCTxnIGlkPSJzaGFwZTU5MDctNSIgdHJhbnNmb3JtPSJ0cmFuc2xhdGUoNi43Nzk4MiwtNS4yMjAwNCkiPiYjeGE7CQkJPHRpdGxlIGlkPSJ0aXRsZTkyNzY5Ij5TaGVldC41OTA3PC90aXRsZT4mI3hhOwkJCTxwYXRoIGlkPSJwYXRoOTI3NzEiIGlua3NjYXBlOmNvbm5lY3Rvci1jdXJ2YXR1cmU9IjAiIHN0eWxlPSJmaWxsOiMyQkM3RjQ7IiBkPSJNMCwyN1YxMmwxMy4yLDcuNTZMMCwyN3oiLz4mI3hhOwkJPC9nPiYjeGE7CTwvZz4mI3hhOzwvZz4mI3hhOzwvc3ZnPg==;spacingTop=2;" parent="1" vertex="1">
          <mxGeometry x="517" y="197.50000000000003" width="53" height="53" as="geometry" />
        </mxCell>
        <mxCell id="AcxdMaKK0mU5kZiv2lnr-9" value="Azure Blob&lt;br&gt;Storage&lt;br&gt;" style="aspect=fixed;html=1;perimeter=none;align=center;shadow=0;dashed=0;image;fontSize=12;image=img/lib/mscae/BlobBlock.svg;" parent="1" vertex="1">
          <mxGeometry x="512.5" y="338" width="62" height="53" as="geometry" />
        </mxCell>
        <mxCell id="AcxdMaKK0mU5kZiv2lnr-10" value="Multi-Protocol&lt;br&gt;Dynamic &lt;br&gt;Packaging/&lt;br&gt;Multi-DRM&lt;br&gt;" style="aspect=fixed;html=1;perimeter=none;align=center;shadow=0;dashed=0;image;fontSize=12;image=img/lib/mscae/VPN_Gateway.svg;" parent="1" vertex="1">
          <mxGeometry x="655" y="199.00000000000003" width="45" height="50" as="geometry" />
        </mxCell>
        <mxCell id="AcxdMaKK0mU5kZiv2lnr-11" value="Azure CDN" style="aspect=fixed;html=1;perimeter=none;align=center;shadow=0;dashed=0;image;fontSize=12;image=img/lib/mscae/Content_Delivery_Network.svg;" parent="1" vertex="1">
          <mxGeometry x="763" y="202.00000000000003" width="96" height="44" as="geometry" />
        </mxCell>
        <mxCell id="AcxdMaKK0mU5kZiv2lnr-12" value="Azure Media&lt;br&gt;Player in Browser&lt;br&gt;" style="aspect=fixed;html=1;perimeter=none;align=center;shadow=0;dashed=0;image;fontSize=12;image=img/lib/mscae/Browser.svg;spacingTop=5;" parent="1" vertex="1">
          <mxGeometry x="878.2499999999997" y="60" width="50" height="42.5" as="geometry" />
        </mxCell>
        <mxCell id="AcxdMaKK0mU5kZiv2lnr-13" value="Azure Media Player&lt;br&gt;in Mobile App&lt;br&gt;" style="aspect=fixed;html=1;perimeter=none;align=center;shadow=0;dashed=0;image;fontSize=12;image=img/lib/mscae/App_Service_Mobile_App.svg;" parent="1" vertex="1">
          <mxGeometry x="885.9999999999999" y="280" width="34.5" height="50" as="geometry" />
        </mxCell>
        <mxCell id="AcxdMaKK0mU5kZiv2lnr-14" value="Cloud DRM&lt;br&gt;License / Key&lt;br&gt;Delivery Service&lt;br&gt;" style="aspect=fixed;html=1;perimeter=none;align=center;shadow=0;dashed=0;image;fontSize=12;image=img/lib/mscae/KeyVault.svg;spacingTop=3;" parent="1" vertex="1">
          <mxGeometry x="990" y="179" width="45" height="50" as="geometry" />
        </mxCell>
        <mxCell id="AcxdMaKK0mU5kZiv2lnr-29" style="edgeStyle=orthogonalEdgeStyle;rounded=0;orthogonalLoop=1;jettySize=auto;html=1;exitX=0.364;exitY=0.004;exitDx=0;exitDy=0;exitPerimeter=0;entryX=1.043;entryY=0.678;entryDx=0;entryDy=0;entryPerimeter=0;strokeColor=#808080;" parent="1" source="AcxdMaKK0mU5kZiv2lnr-14" target="AcxdMaKK0mU5kZiv2lnr-12" edge="1">
          <mxGeometry relative="1" as="geometry">
            <mxPoint x="1022.5517241379312" y="209.41379310344826" as="sourcePoint" />
            <mxPoint x="939.1034482758621" y="91.48275862068965" as="targetPoint" />
            <Array as="points">
              <mxPoint x="1006" y="89" />
              <mxPoint x="990" y="89" />
            </Array>
          </mxGeometry>
        </mxCell>
      </root>
    </mxGraphModel>
  </diagram>
  <diagram id="YOWaaKNcW8TxCV01Voe9" name="Page-2">
    <mxGraphModel dx="1310" dy="796" grid="1" gridSize="6" guides="1" tooltips="1" connect="1" arrows="1" fold="1" page="1" pageScale="1" pageWidth="850" pageHeight="1100" background="none" math="0" shadow="0">
      <root>
        <mxCell id="M06deS8VlxeRnnj21vpx-0" />
        <mxCell id="M06deS8VlxeRnnj21vpx-1" parent="M06deS8VlxeRnnj21vpx-0" />
        <mxCell id="M06deS8VlxeRnnj21vpx-88" value="" style="whiteSpace=wrap;html=1;rounded=1;dashed=1;strokeColor=#3399FF;" vertex="1" parent="M06deS8VlxeRnnj21vpx-1">
          <mxGeometry x="984" y="144" width="228" height="318" as="geometry" />
        </mxCell>
        <mxCell id="M06deS8VlxeRnnj21vpx-31" value="" style="whiteSpace=wrap;html=1;rounded=1;dashed=1;strokeColor=#3399FF;rotation=90;" vertex="1" parent="M06deS8VlxeRnnj21vpx-1">
          <mxGeometry x="269.25" y="203.25" width="255" height="100.5" as="geometry" />
        </mxCell>
        <mxCell id="M06deS8VlxeRnnj21vpx-5" value="" style="aspect=fixed;html=1;points=[];align=center;image;fontSize=12;image=img/lib/azure2/containers/Container_Registries.svg;" vertex="1" parent="M06deS8VlxeRnnj21vpx-1">
          <mxGeometry x="36" y="714" width="68" height="61" as="geometry" />
        </mxCell>
        <mxCell id="M06deS8VlxeRnnj21vpx-6" value="" style="aspect=fixed;html=1;points=[];align=center;image;fontSize=12;image=img/lib/azure2/networking/Virtual_Networks.svg;" vertex="1" parent="M06deS8VlxeRnnj21vpx-1">
          <mxGeometry x="301.25" y="840" width="50.25" height="30" as="geometry" />
        </mxCell>
        <mxCell id="M06deS8VlxeRnnj21vpx-7" value="" style="aspect=fixed;html=1;points=[];align=center;image;fontSize=12;image=img/lib/azure2/networking/Private_Link_Service.svg;" vertex="1" parent="M06deS8VlxeRnnj21vpx-1">
          <mxGeometry x="182" y="864" width="69" height="40" as="geometry" />
        </mxCell>
        <mxCell id="M06deS8VlxeRnnj21vpx-8" value="" style="aspect=fixed;html=1;points=[];align=center;image;fontSize=12;image=img/lib/azure2/networking/Virtual_Network_Gateways.svg;" vertex="1" parent="M06deS8VlxeRnnj21vpx-1">
          <mxGeometry x="152" y="756" width="52" height="69" as="geometry" />
        </mxCell>
        <mxCell id="M06deS8VlxeRnnj21vpx-9" value="" style="aspect=fixed;html=1;points=[];align=center;image;fontSize=12;image=img/lib/azure2/compute/VM_Scale_Sets.svg;" vertex="1" parent="M06deS8VlxeRnnj21vpx-1">
          <mxGeometry x="222" y="594" width="68" height="68" as="geometry" />
        </mxCell>
        <mxCell id="M06deS8VlxeRnnj21vpx-15" value="" style="group" vertex="1" connectable="0" parent="M06deS8VlxeRnnj21vpx-1">
          <mxGeometry x="138" y="216" width="126" height="72" as="geometry" />
        </mxCell>
        <mxCell id="M06deS8VlxeRnnj21vpx-12" value="" style="html=1;dashed=0;whitespace=wrap;fillColor=#2875E2;strokeColor=#ffffff;points=[[0.005,0.63,0],[0.1,0.2,0],[0.9,0.2,0],[0.5,0,0],[0.995,0.63,0],[0.72,0.99,0],[0.5,1,0],[0.28,0.99,0]];shape=mxgraph.kubernetes.icon;prIcon=ing;rounded=1;" vertex="1" parent="M06deS8VlxeRnnj21vpx-15">
          <mxGeometry x="30" width="50" height="48" as="geometry" />
        </mxCell>
        <mxCell id="M06deS8VlxeRnnj21vpx-13" value="k8s ingress controller" style="text;html=1;resizable=0;autosize=1;align=center;verticalAlign=middle;points=[];fillColor=none;strokeColor=none;rounded=0;dashed=1;" vertex="1" parent="M06deS8VlxeRnnj21vpx-15">
          <mxGeometry y="48" width="126" height="24" as="geometry" />
        </mxCell>
        <mxCell id="M06deS8VlxeRnnj21vpx-17" value="" style="group" vertex="1" connectable="0" parent="M06deS8VlxeRnnj21vpx-1">
          <mxGeometry x="372" y="144" width="42.25" height="60" as="geometry" />
        </mxCell>
        <mxCell id="M06deS8VlxeRnnj21vpx-14" value="" style="shape=image;verticalLabelPosition=bottom;labelBackgroundColor=#ffffff;verticalAlign=top;aspect=fixed;imageAspect=0;image=data:image/png,iVBORw0KGgoAAAANSUhEUgAAAEgAAABICAYAAABV7bNHAAAQX0lEQVR4Ae2c6VNU17rG/SPv1/vh1L2nKjknOUlMojGJiREQNYAakEHmSUQUFBBERSZlFlDmSRCQeR4cGPKc+i1cpBu7odm9UU/VWVVdu/e01rue9c7v6j6i/7Y9ETiy591DuPnnn39qa2tr57O5uSl/H8/neI/Ph24fDCAmt76+rrW1NS0uLmp2dlbPnz9XR0eHWltb9eDBA/MpLy/XkydP1N7eroGBAc3MzGhhYUGrq6vm/Q8N0qEAxCRY/bdv32p5eVljY2Pq6upSbW2tioqKlJOTo8TERKWkpCg9PV3Z2dnvfdLS0sz9pKQkc+/27duqqakxgI6Ojpp+6R/uO8zmOkAAs7GxYSYAFxQWFio5OVmRkZG6dOmSrl27ZjgFLunu7tbg4KBevnypiYkJ8xkfHzeAch1Qm5qazPNXr17VhQsXFBERIUADaLhvaWnJjMe4h8FdrgEEcawm4lNfX6/Y2Fj98ccfio+PV0lJifr7+81kELHXr1/rzZs3RmQQOwD11EOccx0O4Tme5z1Era+vT6WlpaZfAGechoYGMy7vuN2CBghgmAg65enTp7px44YRH44ABXe4pT8YCxDoD7F9/Pixrl+/roSEBN28eVPPnj0zdEAPHOVGCwogiGCFe3p6lJeXp4sXLyozM9MABeu7RaS/iQLY/Py8UeqIHRzLwvT29hquc2N8xwBZcSorK1N0dLTRC+gVlLJdQSZw2A06GG9lZcVwLPqOhUKsAY/7wbQDA8SqQNDIyIiwLHFxcbp3754RJbjJjVVzMiEW49WrV4Yuq6Nu3bplRBG6nC7WgQBiEMB58eKFESUUJHoGrnFKgBMw9noHOlDoWD/oQ+SxiOguJzQGDBCds0KYVqxHamqqsSgfk2v8AQUXY/nQjegmuLylpcWRXgoIIDtgc3OzsVD4Mni5EPGpNhYUbodOLB1AARLcdRBO2hcgz4Ewp1iJqakp47t8quB40sXi4nwWFBQYTurs7DyQuO0LEE4bPgfyTEjAdyzDQVbBk+CP8R39A92oBawcMSDzCqT5BQgALPo4YVeuXDEy/SmLlb8JWylAJwESUjA9PW04yd879rpfgAAHeb1z547hnra2tkPTOduLQaiynQaxxLl5ZAy4Bm8fpc28ArG+fgGCUwDl8uXLJoo+TGu1vr6hmfkl9T5/qdn5ZQPUYfiYgESY8ujRI2OJieH285F8AgT3TE5OGrFCuaGU6dzNtr2imwaQ2pYeXUot1vGz6YrNLFVjW5/mF1cEcG439CdxI/o0IyPDOJZ7eds+AYJ7qqqqjMuO1sdcutlYgDdv1zU2MavUvHIdDUvVVyHJikwr0Ze/JeubkBRdK6rR5Myi3q5vGF3o5vKgtEm1kGmoqKjYk4veA4iVxXcgYQXKgcjpQcBDzyBGFXXt+v5Mmr4KSdGl7DLVD4zp6diM6vrHFJ1zT1/+lqRj4emqaujQwtKqNjbdic6hlQXC6SVUwj/CDQA0X80LIF6Ee0h/kvHDRXeLe5jg8sorNT8bUHx2mb49k6awhALlV7ep5cWUemaW1De3rO7pRT0ZnlRexROFxRfo+LkMw2XPuoe1svrKFf0EEyBWMAJmHy4i2PWlRrwAAkXQxCEkSgccQAum8T5iMjW7qJyiGsM134SlKrO0znBNz8yi+udX3vv0zi6ptm9UKYU1hptOnM/UrXv1mp1feid2wQsd0gEzYIgAy5cu8gIIs37//n2TC4Z7fCF6ELC2tv404tHQ1qdfonL0r9PJ+j21WNWdQ2qfmNvhGl8A9c2tmPsdE3OqeDao0IQCfXkqSWdib+hp97CWVtaCXjzMPvMEoLt37xrp2T3nHYBYabQ7igsfgVyK04Y4ra69VnvPsDLyK3TsbIZCYm8qt7xZzUOTRowQJ1/A7L62LXYLah6aUHZZg07F5OmH85nKvl1l3ALGccrlgIFoUURA35IX393XDkCgScqS5DqJL6e6ByW8vPpKJRVP9NPvWWbVY6+Xq7Z3RF1TCwGBshskzuEo9FNN97Bic8v1xa+J+vVCjh7WPjPjMa4TT4R5EoTbYHZ3CLIDEFqdxBdpS/TQbiQD4SZEamhsSheSC/WPkwkKT7ytivZBISZWCfuafKDX4Cb6aR+f1d3mHsNN//otSdHpdzQxvaANB9lD9A7SAkCIGY6jZzMAwWrEJrm5ucZ58qfRPV/09X1za8tYqePh6cZ8F9d3qHVkylinQEEI5DlAahudUUFNm9FruAv9Q+NaDzAA9aQdRsByU55i/lRlPNsOQJRTKOLhIPKCkwZAeMHfhqXqb99HKzQuX/db+9QxMe86B5U0dumX6Ov6+4lYfRe2DRDW8qAN5oCLyEASkE9MTnp1sQMQcsgD5Jod6593AB0/m6HjEdmGi/7xa6LibzxUXd+oKzroUc8LxeU91OcnE/RteIZOXso1vlL/8Lgx/16zC/AEkEiBxMXFq7unz+utIxZByro4h7ZS6fVUgCeWg378PUuJ+ZUqrG03XvI3YWkKicvXzapW4wSibFG6gYiTp/OIFfw1Jk/4UX9cvaey5l4lFVQLH2lgeMIxQEyP+l1yWoYir1d5zdYABMfgGFLexRfy5TB5veXnxAL0c+RVZZTUqn18znjJBdVt+v5cptEXURmlxqJ1Ts4LZ3AvkLjPczVdwzqXXKgvTiXpRNRVFdd3qmVkytzLKq031jJYgNDBWbk39D+heV6zO4KSsnEJsUkwaQ1PgDJLao31YpKYd7xiVv3L08kGrLyKFrW8mPQLEpzThO9zr1Ffhabo67BUI1oNAy/VObVgdBr9ugUQZe3iOyVKzMjV+MyC1ta3IwgDEFxD1hAzBzc5MfHA/j5A8zscQkjRNjqt/Ko2hSXcMhOOTC9RaVO3CVItN/EcQSviGZF2R0fPpOlsUqE5bx2dfqfs8YuW1TW16BpANuzIysrysmRHECeSSFQq2JtDPIZectL2AsiKEia6vn9Mybeq9dnJBB0NT1dmSZ0RGSuSxF9fh6YKBZ9S+EiNz8eNk2j74Og2QGBQWVlp/CG4yTYDEH4PAFVXV5u05GEC1De/YsQK5/FBW79C4wv0+S9X9GNUjlKLHunY71n67Od4nU8pUmXHkNEzcBeAHCZAuDZshsCSf1SA7CQNB0xv66a04sf6ISJbf/8xTieicpR1t15G10wu+LV2bnMQephUrE+AYC+Kax9CxCxA9ghHoXMw4Th9d5t6jFLfzTH2eXt0GyArYuSHvDgIhWyVdLA5oEB0kJ2g5xFxK3zcbnRSVefQe+Lk+az97jZAKGlSPe8pac9YBDOPLB6GFbMT83XsmJxXUV270UXkinw9s/ua2wARsJLmYZ8TzrJtxlHEchHJkxdxy1Hc9oP+MvO7J+h5/ikAROUGcOAijJZtJhaDY1BQboUaeNL/aQBRmiZYb2xsNEziBRBmnZ0PAMTen2CD1f80gJg/m0ypuJLV8MwJ7UTzJK3ZbIQvFEy6o+lpv36KyDY+zbOXswEpXCci1ju7bGK9jDu1IjgmFnNSaAQcsoh1dXXb6Y4J+vmrBLQDEPloZBA285RBy2qBHLFiLR2D+uFchk5dvqHypwPG0fPUN76+HxQgFDRB7P2WPp2OvWmi+cEXk1rfOPh+RGuk8vPzjbNMwswzWDcAMXnPlKvd4hIIKJ7PsBrU2IvLm/RjRJZ+vnjNRPUNgy/39G0CBWjbci2ofuClUgtrdCIyWyejrqq0skWLy86qHHAPkTzqBTcH6WEetu0AxIPsbI+KijJJbE85tA8HcqTzldXX6h4YVXjsTZEzDo3PN6UbYi1fuen9ANouAS2aXPSD1j6TJCNpT+4b0Vp7xebRvyYVCJ32GfSt2fgen6hHDc1ae7OuTY++dgBiYvgClH2Ki4uDKvtsGbne1OzCsooeNBkRIPhMK3psAlVA8hS1/QAiFnvcM6LEgkr981Si4Zqy6tbtDQ4bzjdzmcVcWVFmZpZ+upCikKIeNY6safnNlizcOwCBKGJGGZa6PAU15NOT3SzqgR4pxay8q4+l5JXru/B0E5zeqnlqkvnbQeiK/AFE5pGy9PWHT0xGkjJ0ZkGluvpHTd2N/oNpKOOBgUHFXL6ssNQin115AcQLyCPxCI5jMMkzz9EAmg0INY1dOhqaqq9OJyvhZoUpBqJssXZFtdueNKEGForr1Ohjrt03Oz7YyFDT2Gkqqk7KO5702O8mB1RerujoGHUMjNrLXkcvgOAWZNJuXsAn8jR5Xm8e8AQd8fbthsYn58xmBLa4fHcu0+SpUeIkyEh7VHY8N4m1nPuN+u5shr4+naycwhpNzS5pfX3Tsa7ZTS6Lhs/DPgR+prWyurr7EXPuBRBXeBFgCNqoE7n5mwsWYGNj01i6+pZeRSUV6tj5TFOvv5z7QH87Fm1SHRFpxUYcKQjazVROSjo+Z/xujkTv1MLYREWY4Y8R3gOITjF11MfYMI5lc+pZ+yOQ63AT1dCrt6v1xS9X9P8/XNb/Hr2o/zseo29CU3SrrF7Ts4umWhqMHtxNg5UStheS+yFJxvz8jeETIB7mp5CUY3GgQNjtxhg4luw0a+t6rvPx+frspzhFJt1WZ9+IXr9Zd5xV2ItWJGRubs44xFRx2GrINX/NJ0A8DBexmQEZRScFE+X7G5zrAPX6zVuNjs+KbTKTMwsGNFwFtxtjoTIePnyomJgYs+N1L+5hfL8A4W4DCt4l+2eovOIG7IW22xNysz/oxiqzDZj5kNbAigHaXs0vQLzEy5h9xIzfYLHx0amHvRcRH+IeShh9ikQQc+IUe8Zc/mjYEyBeomObK2GT0fDwsOl4P+T9DfgxriNG0I0DjHXmO6FVIHPYFyAmBNfQKVqf8hDo7ye7HwOI3WMCAAuMFFAYRe+wSYFrgYBDfwEBZAdCD8GiWDfyR4D0KTfog064hh/jYHR2R+v70R8QQHQCSOSJ2FjOD0JgV/4xAcUdiCzvR4ib96EVRxD6+PMCaOWHgE4sccAA2QkgbugkVgWWJZeNNTgI29q+3D4CDLqFheR3GHANi8nWFqcq4cAAQQQmE+eRfz9g0yfHoaGhgBWf28DY/lgkNoDx+xKiAMpYOLyBKmTbj+fxwADZlxkUZU2gZ0WO3SFw10Hl3Pbp5Gj9G8bFZ0Ok0JHQRRo5GHCgxzFAvGyJY9XwldghC1hsIya3C1DBEugLNMalX/qnTMz+QkBB5CmhE2yjG+H2YFtQADG4FTl0ExYDcwp7k1NiFSGWe24QaycLMCyK5V7SxPyKEEeQewDo1nhBA2SJhih0AIEghKIH8JvgKFaV7AC1JzgLCwNoe3EXE8Q68hzWh/fIcmIU6A9RIj0M5/IvM4zrVBHbOfg6ugaQZ+dMHEsCINS7YX3iHwpzmFyylVQwSVgRTaNI0RfoNI6c8+E3pogPz2M1AcT2Q784fVjQvYD2pMvJ90MBCEKs6MEFgIX4sfr8XQRJKiaLBQwNDVVISIjCw8ONaJ49e1anT5/WmTNnzP8F4ZhS0OQ9RAouoj/6dVOU/IF3aAB5DmjFD/2AqOAi8C9ScAD/1AKn8OG7PYe7cB2wToQKpCl4HzGmvw/VPghAH2oyhzHOfwHaB9V/A1wv2IXPy43iAAAAAElFTkSuQmCC;" vertex="1" parent="M06deS8VlxeRnnj21vpx-17">
          <mxGeometry width="42" height="42" as="geometry" />
        </mxCell>
        <mxCell id="M06deS8VlxeRnnj21vpx-16" value="SSO" style="text;html=1;resizable=0;autosize=1;align=center;verticalAlign=middle;points=[];fillColor=none;strokeColor=none;rounded=0;dashed=1;" vertex="1" parent="M06deS8VlxeRnnj21vpx-17">
          <mxGeometry x="0.25" y="36" width="42" height="24" as="geometry" />
        </mxCell>
        <mxCell id="M06deS8VlxeRnnj21vpx-18" value="" style="group" vertex="1" connectable="0" parent="M06deS8VlxeRnnj21vpx-1">
          <mxGeometry x="372" y="222" width="48.25" height="60" as="geometry" />
        </mxCell>
        <mxCell id="M06deS8VlxeRnnj21vpx-19" value="" style="shape=image;verticalLabelPosition=bottom;labelBackgroundColor=#ffffff;verticalAlign=top;aspect=fixed;imageAspect=0;image=data:image/png,iVBORw0KGgoAAAANSUhEUgAAAEgAAABICAYAAABV7bNHAAAQX0lEQVR4Ae2c6VNU17rG/SPv1/vh1L2nKjknOUlMojGJiREQNYAakEHmSUQUFBBERSZlFlDmSRCQeR4cGPKc+i1cpBu7odm9UU/VWVVdu/e01rue9c7v6j6i/7Y9ETiy591DuPnnn39qa2tr57O5uSl/H8/neI/Ph24fDCAmt76+rrW1NS0uLmp2dlbPnz9XR0eHWltb9eDBA/MpLy/XkydP1N7eroGBAc3MzGhhYUGrq6vm/Q8N0qEAxCRY/bdv32p5eVljY2Pq6upSbW2tioqKlJOTo8TERKWkpCg9PV3Z2dnvfdLS0sz9pKQkc+/27duqqakxgI6Ojpp+6R/uO8zmOkAAs7GxYSYAFxQWFio5OVmRkZG6dOmSrl27ZjgFLunu7tbg4KBevnypiYkJ8xkfHzeAch1Qm5qazPNXr17VhQsXFBERIUADaLhvaWnJjMe4h8FdrgEEcawm4lNfX6/Y2Fj98ccfio+PV0lJifr7+81kELHXr1/rzZs3RmQQOwD11EOccx0O4Tme5z1Era+vT6WlpaZfAGechoYGMy7vuN2CBghgmAg65enTp7px44YRH44ABXe4pT8YCxDoD7F9/Pixrl+/roSEBN28eVPPnj0zdEAPHOVGCwogiGCFe3p6lJeXp4sXLyozM9MABeu7RaS/iQLY/Py8UeqIHRzLwvT29hquc2N8xwBZcSorK1N0dLTRC+gVlLJdQSZw2A06GG9lZcVwLPqOhUKsAY/7wbQDA8SqQNDIyIiwLHFxcbp3754RJbjJjVVzMiEW49WrV4Yuq6Nu3bplRBG6nC7WgQBiEMB58eKFESUUJHoGrnFKgBMw9noHOlDoWD/oQ+SxiOguJzQGDBCds0KYVqxHamqqsSgfk2v8AQUXY/nQjegmuLylpcWRXgoIIDtgc3OzsVD4Mni5EPGpNhYUbodOLB1AARLcdRBO2hcgz4Ewp1iJqakp47t8quB40sXi4nwWFBQYTurs7DyQuO0LEE4bPgfyTEjAdyzDQVbBk+CP8R39A92oBawcMSDzCqT5BQgALPo4YVeuXDEy/SmLlb8JWylAJwESUjA9PW04yd879rpfgAAHeb1z547hnra2tkPTOduLQaiynQaxxLl5ZAy4Bm8fpc28ArG+fgGCUwDl8uXLJoo+TGu1vr6hmfkl9T5/qdn5ZQPUYfiYgESY8ujRI2OJieH285F8AgT3TE5OGrFCuaGU6dzNtr2imwaQ2pYeXUot1vGz6YrNLFVjW5/mF1cEcG439CdxI/o0IyPDOJZ7eds+AYJ7qqqqjMuO1sdcutlYgDdv1zU2MavUvHIdDUvVVyHJikwr0Ze/JeubkBRdK6rR5Myi3q5vGF3o5vKgtEm1kGmoqKjYk4veA4iVxXcgYQXKgcjpQcBDzyBGFXXt+v5Mmr4KSdGl7DLVD4zp6diM6vrHFJ1zT1/+lqRj4emqaujQwtKqNjbdic6hlQXC6SVUwj/CDQA0X80LIF6Ee0h/kvHDRXeLe5jg8sorNT8bUHx2mb49k6awhALlV7ep5cWUemaW1De3rO7pRT0ZnlRexROFxRfo+LkMw2XPuoe1svrKFf0EEyBWMAJmHy4i2PWlRrwAAkXQxCEkSgccQAum8T5iMjW7qJyiGsM134SlKrO0znBNz8yi+udX3vv0zi6ptm9UKYU1hptOnM/UrXv1mp1feid2wQsd0gEzYIgAy5cu8gIIs37//n2TC4Z7fCF6ELC2tv404tHQ1qdfonL0r9PJ+j21WNWdQ2qfmNvhGl8A9c2tmPsdE3OqeDao0IQCfXkqSWdib+hp97CWVtaCXjzMPvMEoLt37xrp2T3nHYBYabQ7igsfgVyK04Y4ra69VnvPsDLyK3TsbIZCYm8qt7xZzUOTRowQJ1/A7L62LXYLah6aUHZZg07F5OmH85nKvl1l3ALGccrlgIFoUURA35IX393XDkCgScqS5DqJL6e6ByW8vPpKJRVP9NPvWWbVY6+Xq7Z3RF1TCwGBshskzuEo9FNN97Bic8v1xa+J+vVCjh7WPjPjMa4TT4R5EoTbYHZ3CLIDEFqdxBdpS/TQbiQD4SZEamhsSheSC/WPkwkKT7ytivZBISZWCfuafKDX4Cb6aR+f1d3mHsNN//otSdHpdzQxvaANB9lD9A7SAkCIGY6jZzMAwWrEJrm5ucZ58qfRPV/09X1za8tYqePh6cZ8F9d3qHVkylinQEEI5DlAahudUUFNm9FruAv9Q+NaDzAA9aQdRsByU55i/lRlPNsOQJRTKOLhIPKCkwZAeMHfhqXqb99HKzQuX/db+9QxMe86B5U0dumX6Ov6+4lYfRe2DRDW8qAN5oCLyEASkE9MTnp1sQMQcsgD5Jod6593AB0/m6HjEdmGi/7xa6LibzxUXd+oKzroUc8LxeU91OcnE/RteIZOXso1vlL/8Lgx/16zC/AEkEiBxMXFq7unz+utIxZByro4h7ZS6fVUgCeWg378PUuJ+ZUqrG03XvI3YWkKicvXzapW4wSibFG6gYiTp/OIFfw1Jk/4UX9cvaey5l4lFVQLH2lgeMIxQEyP+l1yWoYir1d5zdYABMfgGFLexRfy5TB5veXnxAL0c+RVZZTUqn18znjJBdVt+v5cptEXURmlxqJ1Ts4LZ3AvkLjPczVdwzqXXKgvTiXpRNRVFdd3qmVkytzLKq031jJYgNDBWbk39D+heV6zO4KSsnEJsUkwaQ1PgDJLao31YpKYd7xiVv3L08kGrLyKFrW8mPQLEpzThO9zr1Ffhabo67BUI1oNAy/VObVgdBr9ugUQZe3iOyVKzMjV+MyC1ta3IwgDEFxD1hAzBzc5MfHA/j5A8zscQkjRNjqt/Ko2hSXcMhOOTC9RaVO3CVItN/EcQSviGZF2R0fPpOlsUqE5bx2dfqfs8YuW1TW16BpANuzIysrysmRHECeSSFQq2JtDPIZectL2AsiKEia6vn9Mybeq9dnJBB0NT1dmSZ0RGSuSxF9fh6YKBZ9S+EiNz8eNk2j74Og2QGBQWVlp/CG4yTYDEH4PAFVXV5u05GEC1De/YsQK5/FBW79C4wv0+S9X9GNUjlKLHunY71n67Od4nU8pUmXHkNEzcBeAHCZAuDZshsCSf1SA7CQNB0xv66a04sf6ISJbf/8xTieicpR1t15G10wu+LV2bnMQephUrE+AYC+Kax9CxCxA9ghHoXMw4Th9d5t6jFLfzTH2eXt0GyArYuSHvDgIhWyVdLA5oEB0kJ2g5xFxK3zcbnRSVefQe+Lk+az97jZAKGlSPe8pac9YBDOPLB6GFbMT83XsmJxXUV270UXkinw9s/ua2wARsJLmYZ8TzrJtxlHEchHJkxdxy1Hc9oP+MvO7J+h5/ikAROUGcOAijJZtJhaDY1BQboUaeNL/aQBRmiZYb2xsNEziBRBmnZ0PAMTen2CD1f80gJg/m0ypuJLV8MwJ7UTzJK3ZbIQvFEy6o+lpv36KyDY+zbOXswEpXCci1ju7bGK9jDu1IjgmFnNSaAQcsoh1dXXb6Y4J+vmrBLQDEPloZBA285RBy2qBHLFiLR2D+uFchk5dvqHypwPG0fPUN76+HxQgFDRB7P2WPp2OvWmi+cEXk1rfOPh+RGuk8vPzjbNMwswzWDcAMXnPlKvd4hIIKJ7PsBrU2IvLm/RjRJZ+vnjNRPUNgy/39G0CBWjbci2ofuClUgtrdCIyWyejrqq0skWLy86qHHAPkTzqBTcH6WEetu0AxIPsbI+KijJJbE85tA8HcqTzldXX6h4YVXjsTZEzDo3PN6UbYi1fuen9ANouAS2aXPSD1j6TJCNpT+4b0Vp7xebRvyYVCJ32GfSt2fgen6hHDc1ae7OuTY++dgBiYvgClH2Ki4uDKvtsGbne1OzCsooeNBkRIPhMK3psAlVA8hS1/QAiFnvcM6LEgkr981Si4Zqy6tbtDQ4bzjdzmcVcWVFmZpZ+upCikKIeNY6safnNlizcOwCBKGJGGZa6PAU15NOT3SzqgR4pxay8q4+l5JXru/B0E5zeqnlqkvnbQeiK/AFE5pGy9PWHT0xGkjJ0ZkGluvpHTd2N/oNpKOOBgUHFXL6ssNQin115AcQLyCPxCI5jMMkzz9EAmg0INY1dOhqaqq9OJyvhZoUpBqJssXZFtdueNKEGForr1Ohjrt03Oz7YyFDT2Gkqqk7KO5702O8mB1RerujoGHUMjNrLXkcvgOAWZNJuXsAn8jR5Xm8e8AQd8fbthsYn58xmBLa4fHcu0+SpUeIkyEh7VHY8N4m1nPuN+u5shr4+naycwhpNzS5pfX3Tsa7ZTS6Lhs/DPgR+prWyurr7EXPuBRBXeBFgCNqoE7n5mwsWYGNj01i6+pZeRSUV6tj5TFOvv5z7QH87Fm1SHRFpxUYcKQjazVROSjo+Z/xujkTv1MLYREWY4Y8R3gOITjF11MfYMI5lc+pZ+yOQ63AT1dCrt6v1xS9X9P8/XNb/Hr2o/zseo29CU3SrrF7Ts4umWhqMHtxNg5UStheS+yFJxvz8jeETIB7mp5CUY3GgQNjtxhg4luw0a+t6rvPx+frspzhFJt1WZ9+IXr9Zd5xV2ItWJGRubs44xFRx2GrINX/NJ0A8DBexmQEZRScFE+X7G5zrAPX6zVuNjs+KbTKTMwsGNFwFtxtjoTIePnyomJgYs+N1L+5hfL8A4W4DCt4l+2eovOIG7IW22xNysz/oxiqzDZj5kNbAigHaXs0vQLzEy5h9xIzfYLHx0amHvRcRH+IeShh9ikQQc+IUe8Zc/mjYEyBeomObK2GT0fDwsOl4P+T9DfgxriNG0I0DjHXmO6FVIHPYFyAmBNfQKVqf8hDo7ye7HwOI3WMCAAuMFFAYRe+wSYFrgYBDfwEBZAdCD8GiWDfyR4D0KTfog064hh/jYHR2R+v70R8QQHQCSOSJ2FjOD0JgV/4xAcUdiCzvR4ib96EVRxD6+PMCaOWHgE4sccAA2QkgbugkVgWWJZeNNTgI29q+3D4CDLqFheR3GHANi8nWFqcq4cAAQQQmE+eRfz9g0yfHoaGhgBWf28DY/lgkNoDx+xKiAMpYOLyBKmTbj+fxwADZlxkUZU2gZ0WO3SFw10Hl3Pbp5Gj9G8bFZ0Ok0JHQRRo5GHCgxzFAvGyJY9XwldghC1hsIya3C1DBEugLNMalX/qnTMz+QkBB5CmhE2yjG+H2YFtQADG4FTl0ExYDcwp7k1NiFSGWe24QaycLMCyK5V7SxPyKEEeQewDo1nhBA2SJhih0AIEghKIH8JvgKFaV7AC1JzgLCwNoe3EXE8Q68hzWh/fIcmIU6A9RIj0M5/IvM4zrVBHbOfg6ugaQZ+dMHEsCINS7YX3iHwpzmFyylVQwSVgRTaNI0RfoNI6c8+E3pogPz2M1AcT2Q784fVjQvYD2pMvJ90MBCEKs6MEFgIX4sfr8XQRJKiaLBQwNDVVISIjCw8ONaJ49e1anT5/WmTNnzP8F4ZhS0OQ9RAouoj/6dVOU/IF3aAB5DmjFD/2AqOAi8C9ScAD/1AKn8OG7PYe7cB2wToQKpCl4HzGmvw/VPghAH2oyhzHOfwHaB9V/A1wv2IXPy43iAAAAAElFTkSuQmCC;" vertex="1" parent="M06deS8VlxeRnnj21vpx-18">
          <mxGeometry width="42" height="42" as="geometry" />
        </mxCell>
        <mxCell id="M06deS8VlxeRnnj21vpx-20" value="Socket" style="text;html=1;resizable=0;autosize=1;align=center;verticalAlign=middle;points=[];fillColor=none;strokeColor=none;rounded=0;dashed=1;" vertex="1" parent="M06deS8VlxeRnnj21vpx-18">
          <mxGeometry x="-5.75" y="36" width="54" height="24" as="geometry" />
        </mxCell>
        <mxCell id="M06deS8VlxeRnnj21vpx-21" value="" style="group" vertex="1" connectable="0" parent="M06deS8VlxeRnnj21vpx-1">
          <mxGeometry x="378" y="306" width="51.25" height="60" as="geometry" />
        </mxCell>
        <mxCell id="M06deS8VlxeRnnj21vpx-22" value="" style="shape=image;verticalLabelPosition=bottom;labelBackgroundColor=#ffffff;verticalAlign=top;aspect=fixed;imageAspect=0;image=data:image/png,iVBORw0KGgoAAAANSUhEUgAAAEgAAABICAYAAABV7bNHAAAQX0lEQVR4Ae2c6VNU17rG/SPv1/vh1L2nKjknOUlMojGJiREQNYAakEHmSUQUFBBERSZlFlDmSRCQeR4cGPKc+i1cpBu7odm9UU/VWVVdu/e01rue9c7v6j6i/7Y9ETiy591DuPnnn39qa2tr57O5uSl/H8/neI/Ph24fDCAmt76+rrW1NS0uLmp2dlbPnz9XR0eHWltb9eDBA/MpLy/XkydP1N7eroGBAc3MzGhhYUGrq6vm/Q8N0qEAxCRY/bdv32p5eVljY2Pq6upSbW2tioqKlJOTo8TERKWkpCg9PV3Z2dnvfdLS0sz9pKQkc+/27duqqakxgI6Ojpp+6R/uO8zmOkAAs7GxYSYAFxQWFio5OVmRkZG6dOmSrl27ZjgFLunu7tbg4KBevnypiYkJ8xkfHzeAch1Qm5qazPNXr17VhQsXFBERIUADaLhvaWnJjMe4h8FdrgEEcawm4lNfX6/Y2Fj98ccfio+PV0lJifr7+81kELHXr1/rzZs3RmQQOwD11EOccx0O4Tme5z1Era+vT6WlpaZfAGechoYGMy7vuN2CBghgmAg65enTp7px44YRH44ABXe4pT8YCxDoD7F9/Pixrl+/roSEBN28eVPPnj0zdEAPHOVGCwogiGCFe3p6lJeXp4sXLyozM9MABeu7RaS/iQLY/Py8UeqIHRzLwvT29hquc2N8xwBZcSorK1N0dLTRC+gVlLJdQSZw2A06GG9lZcVwLPqOhUKsAY/7wbQDA8SqQNDIyIiwLHFxcbp3754RJbjJjVVzMiEW49WrV4Yuq6Nu3bplRBG6nC7WgQBiEMB58eKFESUUJHoGrnFKgBMw9noHOlDoWD/oQ+SxiOguJzQGDBCds0KYVqxHamqqsSgfk2v8AQUXY/nQjegmuLylpcWRXgoIIDtgc3OzsVD4Mni5EPGpNhYUbodOLB1AARLcdRBO2hcgz4Ewp1iJqakp47t8quB40sXi4nwWFBQYTurs7DyQuO0LEE4bPgfyTEjAdyzDQVbBk+CP8R39A92oBawcMSDzCqT5BQgALPo4YVeuXDEy/SmLlb8JWylAJwESUjA9PW04yd879rpfgAAHeb1z547hnra2tkPTOduLQaiynQaxxLl5ZAy4Bm8fpc28ArG+fgGCUwDl8uXLJoo+TGu1vr6hmfkl9T5/qdn5ZQPUYfiYgESY8ujRI2OJieH285F8AgT3TE5OGrFCuaGU6dzNtr2imwaQ2pYeXUot1vGz6YrNLFVjW5/mF1cEcG439CdxI/o0IyPDOJZ7eds+AYJ7qqqqjMuO1sdcutlYgDdv1zU2MavUvHIdDUvVVyHJikwr0Ze/JeubkBRdK6rR5Myi3q5vGF3o5vKgtEm1kGmoqKjYk4veA4iVxXcgYQXKgcjpQcBDzyBGFXXt+v5Mmr4KSdGl7DLVD4zp6diM6vrHFJ1zT1/+lqRj4emqaujQwtKqNjbdic6hlQXC6SVUwj/CDQA0X80LIF6Ee0h/kvHDRXeLe5jg8sorNT8bUHx2mb49k6awhALlV7ep5cWUemaW1De3rO7pRT0ZnlRexROFxRfo+LkMw2XPuoe1svrKFf0EEyBWMAJmHy4i2PWlRrwAAkXQxCEkSgccQAum8T5iMjW7qJyiGsM134SlKrO0znBNz8yi+udX3vv0zi6ptm9UKYU1hptOnM/UrXv1mp1feid2wQsd0gEzYIgAy5cu8gIIs37//n2TC4Z7fCF6ELC2tv404tHQ1qdfonL0r9PJ+j21WNWdQ2qfmNvhGl8A9c2tmPsdE3OqeDao0IQCfXkqSWdib+hp97CWVtaCXjzMPvMEoLt37xrp2T3nHYBYabQ7igsfgVyK04Y4ra69VnvPsDLyK3TsbIZCYm8qt7xZzUOTRowQJ1/A7L62LXYLah6aUHZZg07F5OmH85nKvl1l3ALGccrlgIFoUURA35IX393XDkCgScqS5DqJL6e6ByW8vPpKJRVP9NPvWWbVY6+Xq7Z3RF1TCwGBshskzuEo9FNN97Bic8v1xa+J+vVCjh7WPjPjMa4TT4R5EoTbYHZ3CLIDEFqdxBdpS/TQbiQD4SZEamhsSheSC/WPkwkKT7ytivZBISZWCfuafKDX4Cb6aR+f1d3mHsNN//otSdHpdzQxvaANB9lD9A7SAkCIGY6jZzMAwWrEJrm5ucZ58qfRPV/09X1za8tYqePh6cZ8F9d3qHVkylinQEEI5DlAahudUUFNm9FruAv9Q+NaDzAA9aQdRsByU55i/lRlPNsOQJRTKOLhIPKCkwZAeMHfhqXqb99HKzQuX/db+9QxMe86B5U0dumX6Ov6+4lYfRe2DRDW8qAN5oCLyEASkE9MTnp1sQMQcsgD5Jod6593AB0/m6HjEdmGi/7xa6LibzxUXd+oKzroUc8LxeU91OcnE/RteIZOXso1vlL/8Lgx/16zC/AEkEiBxMXFq7unz+utIxZByro4h7ZS6fVUgCeWg378PUuJ+ZUqrG03XvI3YWkKicvXzapW4wSibFG6gYiTp/OIFfw1Jk/4UX9cvaey5l4lFVQLH2lgeMIxQEyP+l1yWoYir1d5zdYABMfgGFLexRfy5TB5veXnxAL0c+RVZZTUqn18znjJBdVt+v5cptEXURmlxqJ1Ts4LZ3AvkLjPczVdwzqXXKgvTiXpRNRVFdd3qmVkytzLKq031jJYgNDBWbk39D+heV6zO4KSsnEJsUkwaQ1PgDJLao31YpKYd7xiVv3L08kGrLyKFrW8mPQLEpzThO9zr1Ffhabo67BUI1oNAy/VObVgdBr9ugUQZe3iOyVKzMjV+MyC1ta3IwgDEFxD1hAzBzc5MfHA/j5A8zscQkjRNjqt/Ko2hSXcMhOOTC9RaVO3CVItN/EcQSviGZF2R0fPpOlsUqE5bx2dfqfs8YuW1TW16BpANuzIysrysmRHECeSSFQq2JtDPIZectL2AsiKEia6vn9Mybeq9dnJBB0NT1dmSZ0RGSuSxF9fh6YKBZ9S+EiNz8eNk2j74Og2QGBQWVlp/CG4yTYDEH4PAFVXV5u05GEC1De/YsQK5/FBW79C4wv0+S9X9GNUjlKLHunY71n67Od4nU8pUmXHkNEzcBeAHCZAuDZshsCSf1SA7CQNB0xv66a04sf6ISJbf/8xTieicpR1t15G10wu+LV2bnMQephUrE+AYC+Kax9CxCxA9ghHoXMw4Th9d5t6jFLfzTH2eXt0GyArYuSHvDgIhWyVdLA5oEB0kJ2g5xFxK3zcbnRSVefQe+Lk+az97jZAKGlSPe8pac9YBDOPLB6GFbMT83XsmJxXUV270UXkinw9s/ua2wARsJLmYZ8TzrJtxlHEchHJkxdxy1Hc9oP+MvO7J+h5/ikAROUGcOAijJZtJhaDY1BQboUaeNL/aQBRmiZYb2xsNEziBRBmnZ0PAMTen2CD1f80gJg/m0ypuJLV8MwJ7UTzJK3ZbIQvFEy6o+lpv36KyDY+zbOXswEpXCci1ju7bGK9jDu1IjgmFnNSaAQcsoh1dXXb6Y4J+vmrBLQDEPloZBA285RBy2qBHLFiLR2D+uFchk5dvqHypwPG0fPUN76+HxQgFDRB7P2WPp2OvWmi+cEXk1rfOPh+RGuk8vPzjbNMwswzWDcAMXnPlKvd4hIIKJ7PsBrU2IvLm/RjRJZ+vnjNRPUNgy/39G0CBWjbci2ofuClUgtrdCIyWyejrqq0skWLy86qHHAPkTzqBTcH6WEetu0AxIPsbI+KijJJbE85tA8HcqTzldXX6h4YVXjsTZEzDo3PN6UbYi1fuen9ANouAS2aXPSD1j6TJCNpT+4b0Vp7xebRvyYVCJ32GfSt2fgen6hHDc1ae7OuTY++dgBiYvgClH2Ki4uDKvtsGbne1OzCsooeNBkRIPhMK3psAlVA8hS1/QAiFnvcM6LEgkr981Si4Zqy6tbtDQ4bzjdzmcVcWVFmZpZ+upCikKIeNY6safnNlizcOwCBKGJGGZa6PAU15NOT3SzqgR4pxay8q4+l5JXru/B0E5zeqnlqkvnbQeiK/AFE5pGy9PWHT0xGkjJ0ZkGluvpHTd2N/oNpKOOBgUHFXL6ssNQin115AcQLyCPxCI5jMMkzz9EAmg0INY1dOhqaqq9OJyvhZoUpBqJssXZFtdueNKEGForr1Ohjrt03Oz7YyFDT2Gkqqk7KO5702O8mB1RerujoGHUMjNrLXkcvgOAWZNJuXsAn8jR5Xm8e8AQd8fbthsYn58xmBLa4fHcu0+SpUeIkyEh7VHY8N4m1nPuN+u5shr4+naycwhpNzS5pfX3Tsa7ZTS6Lhs/DPgR+prWyurr7EXPuBRBXeBFgCNqoE7n5mwsWYGNj01i6+pZeRSUV6tj5TFOvv5z7QH87Fm1SHRFpxUYcKQjazVROSjo+Z/xujkTv1MLYREWY4Y8R3gOITjF11MfYMI5lc+pZ+yOQ63AT1dCrt6v1xS9X9P8/XNb/Hr2o/zseo29CU3SrrF7Ts4umWhqMHtxNg5UStheS+yFJxvz8jeETIB7mp5CUY3GgQNjtxhg4luw0a+t6rvPx+frspzhFJt1WZ9+IXr9Zd5xV2ItWJGRubs44xFRx2GrINX/NJ0A8DBexmQEZRScFE+X7G5zrAPX6zVuNjs+KbTKTMwsGNFwFtxtjoTIePnyomJgYs+N1L+5hfL8A4W4DCt4l+2eovOIG7IW22xNysz/oxiqzDZj5kNbAigHaXs0vQLzEy5h9xIzfYLHx0amHvRcRH+IeShh9ikQQc+IUe8Zc/mjYEyBeomObK2GT0fDwsOl4P+T9DfgxriNG0I0DjHXmO6FVIHPYFyAmBNfQKVqf8hDo7ye7HwOI3WMCAAuMFFAYRe+wSYFrgYBDfwEBZAdCD8GiWDfyR4D0KTfog064hh/jYHR2R+v70R8QQHQCSOSJ2FjOD0JgV/4xAcUdiCzvR4ib96EVRxD6+PMCaOWHgE4sccAA2QkgbugkVgWWJZeNNTgI29q+3D4CDLqFheR3GHANi8nWFqcq4cAAQQQmE+eRfz9g0yfHoaGhgBWf28DY/lgkNoDx+xKiAMpYOLyBKmTbj+fxwADZlxkUZU2gZ0WO3SFw10Hl3Pbp5Gj9G8bFZ0Ok0JHQRRo5GHCgxzFAvGyJY9XwldghC1hsIya3C1DBEugLNMalX/qnTMz+QkBB5CmhE2yjG+H2YFtQADG4FTl0ExYDcwp7k1NiFSGWe24QaycLMCyK5V7SxPyKEEeQewDo1nhBA2SJhih0AIEghKIH8JvgKFaV7AC1JzgLCwNoe3EXE8Q68hzWh/fIcmIU6A9RIj0M5/IvM4zrVBHbOfg6ugaQZ+dMHEsCINS7YX3iHwpzmFyylVQwSVgRTaNI0RfoNI6c8+E3pogPz2M1AcT2Q784fVjQvYD2pMvJ90MBCEKs6MEFgIX4sfr8XQRJKiaLBQwNDVVISIjCw8ONaJ49e1anT5/WmTNnzP8F4ZhS0OQ9RAouoj/6dVOU/IF3aAB5DmjFD/2AqOAi8C9ScAD/1AKn8OG7PYe7cB2wToQKpCl4HzGmvw/VPghAH2oyhzHOfwHaB9V/A1wv2IXPy43iAAAAAElFTkSuQmCC;" vertex="1" parent="M06deS8VlxeRnnj21vpx-21">
          <mxGeometry width="42" height="42" as="geometry" />
        </mxCell>
        <mxCell id="M06deS8VlxeRnnj21vpx-23" value="Gateway" style="text;html=1;resizable=0;autosize=1;align=center;verticalAlign=middle;points=[];fillColor=none;strokeColor=none;rounded=0;dashed=1;" vertex="1" parent="M06deS8VlxeRnnj21vpx-21">
          <mxGeometry x="-8.75" y="36" width="60" height="24" as="geometry" />
        </mxCell>
        <mxCell id="M06deS8VlxeRnnj21vpx-4" value="" style="aspect=fixed;html=1;points=[];align=center;image;fontSize=12;image=img/lib/azure2/containers/Kubernetes_Services.svg;" vertex="1" parent="M06deS8VlxeRnnj21vpx-1">
          <mxGeometry x="319.9976623376623" y="906" width="55.35714285714286" height="48.847142857142856" as="geometry" />
        </mxCell>
        <mxCell id="M06deS8VlxeRnnj21vpx-32" value="Frontend Microservices" style="text;html=1;resizable=0;autosize=1;align=center;verticalAlign=middle;points=[];fillColor=none;strokeColor=none;rounded=0;dashed=1;" vertex="1" parent="M06deS8VlxeRnnj21vpx-1">
          <mxGeometry x="324" y="96" width="138" height="24" as="geometry" />
        </mxCell>
        <mxCell id="M06deS8VlxeRnnj21vpx-33" value="" style="whiteSpace=wrap;html=1;rounded=1;dashed=1;strokeColor=#3399FF;rotation=90;" vertex="1" parent="M06deS8VlxeRnnj21vpx-1">
          <mxGeometry x="492.97" y="167.05" width="379.5" height="297.21" as="geometry" />
        </mxCell>
        <mxCell id="M06deS8VlxeRnnj21vpx-34" value="" style="group" vertex="1" connectable="0" parent="M06deS8VlxeRnnj21vpx-1">
          <mxGeometry x="569.25" y="138" width="48.25" height="60" as="geometry" />
        </mxCell>
        <mxCell id="M06deS8VlxeRnnj21vpx-35" value="" style="shape=image;verticalLabelPosition=bottom;labelBackgroundColor=#ffffff;verticalAlign=top;aspect=fixed;imageAspect=0;image=data:image/png,iVBORw0KGgoAAAANSUhEUgAAAEgAAABICAYAAABV7bNHAAAQX0lEQVR4Ae2c6VNU17rG/SPv1/vh1L2nKjknOUlMojGJiREQNYAakEHmSUQUFBBERSZlFlDmSRCQeR4cGPKc+i1cpBu7odm9UU/VWVVdu/e01rue9c7v6j6i/7Y9ETiy591DuPnnn39qa2tr57O5uSl/H8/neI/Ph24fDCAmt76+rrW1NS0uLmp2dlbPnz9XR0eHWltb9eDBA/MpLy/XkydP1N7eroGBAc3MzGhhYUGrq6vm/Q8N0qEAxCRY/bdv32p5eVljY2Pq6upSbW2tioqKlJOTo8TERKWkpCg9PV3Z2dnvfdLS0sz9pKQkc+/27duqqakxgI6Ojpp+6R/uO8zmOkAAs7GxYSYAFxQWFio5OVmRkZG6dOmSrl27ZjgFLunu7tbg4KBevnypiYkJ8xkfHzeAch1Qm5qazPNXr17VhQsXFBERIUADaLhvaWnJjMe4h8FdrgEEcawm4lNfX6/Y2Fj98ccfio+PV0lJifr7+81kELHXr1/rzZs3RmQQOwD11EOccx0O4Tme5z1Era+vT6WlpaZfAGechoYGMy7vuN2CBghgmAg65enTp7px44YRH44ABXe4pT8YCxDoD7F9/Pixrl+/roSEBN28eVPPnj0zdEAPHOVGCwogiGCFe3p6lJeXp4sXLyozM9MABeu7RaS/iQLY/Py8UeqIHRzLwvT29hquc2N8xwBZcSorK1N0dLTRC+gVlLJdQSZw2A06GG9lZcVwLPqOhUKsAY/7wbQDA8SqQNDIyIiwLHFxcbp3754RJbjJjVVzMiEW49WrV4Yuq6Nu3bplRBG6nC7WgQBiEMB58eKFESUUJHoGrnFKgBMw9noHOlDoWD/oQ+SxiOguJzQGDBCds0KYVqxHamqqsSgfk2v8AQUXY/nQjegmuLylpcWRXgoIIDtgc3OzsVD4Mni5EPGpNhYUbodOLB1AARLcdRBO2hcgz4Ewp1iJqakp47t8quB40sXi4nwWFBQYTurs7DyQuO0LEE4bPgfyTEjAdyzDQVbBk+CP8R39A92oBawcMSDzCqT5BQgALPo4YVeuXDEy/SmLlb8JWylAJwESUjA9PW04yd879rpfgAAHeb1z547hnra2tkPTOduLQaiynQaxxLl5ZAy4Bm8fpc28ArG+fgGCUwDl8uXLJoo+TGu1vr6hmfkl9T5/qdn5ZQPUYfiYgESY8ujRI2OJieH285F8AgT3TE5OGrFCuaGU6dzNtr2imwaQ2pYeXUot1vGz6YrNLFVjW5/mF1cEcG439CdxI/o0IyPDOJZ7eds+AYJ7qqqqjMuO1sdcutlYgDdv1zU2MavUvHIdDUvVVyHJikwr0Ze/JeubkBRdK6rR5Myi3q5vGF3o5vKgtEm1kGmoqKjYk4veA4iVxXcgYQXKgcjpQcBDzyBGFXXt+v5Mmr4KSdGl7DLVD4zp6diM6vrHFJ1zT1/+lqRj4emqaujQwtKqNjbdic6hlQXC6SVUwj/CDQA0X80LIF6Ee0h/kvHDRXeLe5jg8sorNT8bUHx2mb49k6awhALlV7ep5cWUemaW1De3rO7pRT0ZnlRexROFxRfo+LkMw2XPuoe1svrKFf0EEyBWMAJmHy4i2PWlRrwAAkXQxCEkSgccQAum8T5iMjW7qJyiGsM134SlKrO0znBNz8yi+udX3vv0zi6ptm9UKYU1hptOnM/UrXv1mp1feid2wQsd0gEzYIgAy5cu8gIIs37//n2TC4Z7fCF6ELC2tv404tHQ1qdfonL0r9PJ+j21WNWdQ2qfmNvhGl8A9c2tmPsdE3OqeDao0IQCfXkqSWdib+hp97CWVtaCXjzMPvMEoLt37xrp2T3nHYBYabQ7igsfgVyK04Y4ra69VnvPsDLyK3TsbIZCYm8qt7xZzUOTRowQJ1/A7L62LXYLah6aUHZZg07F5OmH85nKvl1l3ALGccrlgIFoUURA35IX393XDkCgScqS5DqJL6e6ByW8vPpKJRVP9NPvWWbVY6+Xq7Z3RF1TCwGBshskzuEo9FNN97Bic8v1xa+J+vVCjh7WPjPjMa4TT4R5EoTbYHZ3CLIDEFqdxBdpS/TQbiQD4SZEamhsSheSC/WPkwkKT7ytivZBISZWCfuafKDX4Cb6aR+f1d3mHsNN//otSdHpdzQxvaANB9lD9A7SAkCIGY6jZzMAwWrEJrm5ucZ58qfRPV/09X1za8tYqePh6cZ8F9d3qHVkylinQEEI5DlAahudUUFNm9FruAv9Q+NaDzAA9aQdRsByU55i/lRlPNsOQJRTKOLhIPKCkwZAeMHfhqXqb99HKzQuX/db+9QxMe86B5U0dumX6Ov6+4lYfRe2DRDW8qAN5oCLyEASkE9MTnp1sQMQcsgD5Jod6593AB0/m6HjEdmGi/7xa6LibzxUXd+oKzroUc8LxeU91OcnE/RteIZOXso1vlL/8Lgx/16zC/AEkEiBxMXFq7unz+utIxZByro4h7ZS6fVUgCeWg378PUuJ+ZUqrG03XvI3YWkKicvXzapW4wSibFG6gYiTp/OIFfw1Jk/4UX9cvaey5l4lFVQLH2lgeMIxQEyP+l1yWoYir1d5zdYABMfgGFLexRfy5TB5veXnxAL0c+RVZZTUqn18znjJBdVt+v5cptEXURmlxqJ1Ts4LZ3AvkLjPczVdwzqXXKgvTiXpRNRVFdd3qmVkytzLKq031jJYgNDBWbk39D+heV6zO4KSsnEJsUkwaQ1PgDJLao31YpKYd7xiVv3L08kGrLyKFrW8mPQLEpzThO9zr1Ffhabo67BUI1oNAy/VObVgdBr9ugUQZe3iOyVKzMjV+MyC1ta3IwgDEFxD1hAzBzc5MfHA/j5A8zscQkjRNjqt/Ko2hSXcMhOOTC9RaVO3CVItN/EcQSviGZF2R0fPpOlsUqE5bx2dfqfs8YuW1TW16BpANuzIysrysmRHECeSSFQq2JtDPIZectL2AsiKEia6vn9Mybeq9dnJBB0NT1dmSZ0RGSuSxF9fh6YKBZ9S+EiNz8eNk2j74Og2QGBQWVlp/CG4yTYDEH4PAFVXV5u05GEC1De/YsQK5/FBW79C4wv0+S9X9GNUjlKLHunY71n67Od4nU8pUmXHkNEzcBeAHCZAuDZshsCSf1SA7CQNB0xv66a04sf6ISJbf/8xTieicpR1t15G10wu+LV2bnMQephUrE+AYC+Kax9CxCxA9ghHoXMw4Th9d5t6jFLfzTH2eXt0GyArYuSHvDgIhWyVdLA5oEB0kJ2g5xFxK3zcbnRSVefQe+Lk+az97jZAKGlSPe8pac9YBDOPLB6GFbMT83XsmJxXUV270UXkinw9s/ua2wARsJLmYZ8TzrJtxlHEchHJkxdxy1Hc9oP+MvO7J+h5/ikAROUGcOAijJZtJhaDY1BQboUaeNL/aQBRmiZYb2xsNEziBRBmnZ0PAMTen2CD1f80gJg/m0ypuJLV8MwJ7UTzJK3ZbIQvFEy6o+lpv36KyDY+zbOXswEpXCci1ju7bGK9jDu1IjgmFnNSaAQcsoh1dXXb6Y4J+vmrBLQDEPloZBA285RBy2qBHLFiLR2D+uFchk5dvqHypwPG0fPUN76+HxQgFDRB7P2WPp2OvWmi+cEXk1rfOPh+RGuk8vPzjbNMwswzWDcAMXnPlKvd4hIIKJ7PsBrU2IvLm/RjRJZ+vnjNRPUNgy/39G0CBWjbci2ofuClUgtrdCIyWyejrqq0skWLy86qHHAPkTzqBTcH6WEetu0AxIPsbI+KijJJbE85tA8HcqTzldXX6h4YVXjsTZEzDo3PN6UbYi1fuen9ANouAS2aXPSD1j6TJCNpT+4b0Vp7xebRvyYVCJ32GfSt2fgen6hHDc1ae7OuTY++dgBiYvgClH2Ki4uDKvtsGbne1OzCsooeNBkRIPhMK3psAlVA8hS1/QAiFnvcM6LEgkr981Si4Zqy6tbtDQ4bzjdzmcVcWVFmZpZ+upCikKIeNY6safnNlizcOwCBKGJGGZa6PAU15NOT3SzqgR4pxay8q4+l5JXru/B0E5zeqnlqkvnbQeiK/AFE5pGy9PWHT0xGkjJ0ZkGluvpHTd2N/oNpKOOBgUHFXL6ssNQin115AcQLyCPxCI5jMMkzz9EAmg0INY1dOhqaqq9OJyvhZoUpBqJssXZFtdueNKEGForr1Ohjrt03Oz7YyFDT2Gkqqk7KO5702O8mB1RerujoGHUMjNrLXkcvgOAWZNJuXsAn8jR5Xm8e8AQd8fbthsYn58xmBLa4fHcu0+SpUeIkyEh7VHY8N4m1nPuN+u5shr4+naycwhpNzS5pfX3Tsa7ZTS6Lhs/DPgR+prWyurr7EXPuBRBXeBFgCNqoE7n5mwsWYGNj01i6+pZeRSUV6tj5TFOvv5z7QH87Fm1SHRFpxUYcKQjazVROSjo+Z/xujkTv1MLYREWY4Y8R3gOITjF11MfYMI5lc+pZ+yOQ63AT1dCrt6v1xS9X9P8/XNb/Hr2o/zseo29CU3SrrF7Ts4umWhqMHtxNg5UStheS+yFJxvz8jeETIB7mp5CUY3GgQNjtxhg4luw0a+t6rvPx+frspzhFJt1WZ9+IXr9Zd5xV2ItWJGRubs44xFRx2GrINX/NJ0A8DBexmQEZRScFE+X7G5zrAPX6zVuNjs+KbTKTMwsGNFwFtxtjoTIePnyomJgYs+N1L+5hfL8A4W4DCt4l+2eovOIG7IW22xNysz/oxiqzDZj5kNbAigHaXs0vQLzEy5h9xIzfYLHx0amHvRcRH+IeShh9ikQQc+IUe8Zc/mjYEyBeomObK2GT0fDwsOl4P+T9DfgxriNG0I0DjHXmO6FVIHPYFyAmBNfQKVqf8hDo7ye7HwOI3WMCAAuMFFAYRe+wSYFrgYBDfwEBZAdCD8GiWDfyR4D0KTfog064hh/jYHR2R+v70R8QQHQCSOSJ2FjOD0JgV/4xAcUdiCzvR4ib96EVRxD6+PMCaOWHgE4sccAA2QkgbugkVgWWJZeNNTgI29q+3D4CDLqFheR3GHANi8nWFqcq4cAAQQQmE+eRfz9g0yfHoaGhgBWf28DY/lgkNoDx+xKiAMpYOLyBKmTbj+fxwADZlxkUZU2gZ0WO3SFw10Hl3Pbp5Gj9G8bFZ0Ok0JHQRRo5GHCgxzFAvGyJY9XwldghC1hsIya3C1DBEugLNMalX/qnTMz+QkBB5CmhE2yjG+H2YFtQADG4FTl0ExYDcwp7k1NiFSGWe24QaycLMCyK5V7SxPyKEEeQewDo1nhBA2SJhih0AIEghKIH8JvgKFaV7AC1JzgLCwNoe3EXE8Q68hzWh/fIcmIU6A9RIj0M5/IvM4zrVBHbOfg6ugaQZ+dMHEsCINS7YX3iHwpzmFyylVQwSVgRTaNI0RfoNI6c8+E3pogPz2M1AcT2Q784fVjQvYD2pMvJ90MBCEKs6MEFgIX4sfr8XQRJKiaLBQwNDVVISIjCw8ONaJ49e1anT5/WmTNnzP8F4ZhS0OQ9RAouoj/6dVOU/IF3aAB5DmjFD/2AqOAi8C9ScAD/1AKn8OG7PYe7cB2wToQKpCl4HzGmvw/VPghAH2oyhzHOfwHaB9V/A1wv2IXPy43iAAAAAElFTkSuQmCC;" vertex="1" parent="M06deS8VlxeRnnj21vpx-34">
          <mxGeometry width="42" height="42" as="geometry" />
        </mxCell>
        <mxCell id="M06deS8VlxeRnnj21vpx-36" value="FileMgr" style="text;html=1;resizable=0;autosize=1;align=center;verticalAlign=middle;points=[];fillColor=none;strokeColor=none;rounded=0;dashed=1;" vertex="1" parent="M06deS8VlxeRnnj21vpx-34">
          <mxGeometry x="-5.75" y="36" width="54" height="24" as="geometry" />
        </mxCell>
        <mxCell id="M06deS8VlxeRnnj21vpx-37" value="" style="group" vertex="1" connectable="0" parent="M06deS8VlxeRnnj21vpx-1">
          <mxGeometry x="569.25" y="210" width="45.25" height="60" as="geometry" />
        </mxCell>
        <mxCell id="M06deS8VlxeRnnj21vpx-38" value="" style="shape=image;verticalLabelPosition=bottom;labelBackgroundColor=#ffffff;verticalAlign=top;aspect=fixed;imageAspect=0;image=data:image/png,iVBORw0KGgoAAAANSUhEUgAAAEgAAABICAYAAABV7bNHAAAQX0lEQVR4Ae2c6VNU17rG/SPv1/vh1L2nKjknOUlMojGJiREQNYAakEHmSUQUFBBERSZlFlDmSRCQeR4cGPKc+i1cpBu7odm9UU/VWVVdu/e01rue9c7v6j6i/7Y9ETiy591DuPnnn39qa2tr57O5uSl/H8/neI/Ph24fDCAmt76+rrW1NS0uLmp2dlbPnz9XR0eHWltb9eDBA/MpLy/XkydP1N7eroGBAc3MzGhhYUGrq6vm/Q8N0qEAxCRY/bdv32p5eVljY2Pq6upSbW2tioqKlJOTo8TERKWkpCg9PV3Z2dnvfdLS0sz9pKQkc+/27duqqakxgI6Ojpp+6R/uO8zmOkAAs7GxYSYAFxQWFio5OVmRkZG6dOmSrl27ZjgFLunu7tbg4KBevnypiYkJ8xkfHzeAch1Qm5qazPNXr17VhQsXFBERIUADaLhvaWnJjMe4h8FdrgEEcawm4lNfX6/Y2Fj98ccfio+PV0lJifr7+81kELHXr1/rzZs3RmQQOwD11EOccx0O4Tme5z1Era+vT6WlpaZfAGechoYGMy7vuN2CBghgmAg65enTp7px44YRH44ABXe4pT8YCxDoD7F9/Pixrl+/roSEBN28eVPPnj0zdEAPHOVGCwogiGCFe3p6lJeXp4sXLyozM9MABeu7RaS/iQLY/Py8UeqIHRzLwvT29hquc2N8xwBZcSorK1N0dLTRC+gVlLJdQSZw2A06GG9lZcVwLPqOhUKsAY/7wbQDA8SqQNDIyIiwLHFxcbp3754RJbjJjVVzMiEW49WrV4Yuq6Nu3bplRBG6nC7WgQBiEMB58eKFESUUJHoGrnFKgBMw9noHOlDoWD/oQ+SxiOguJzQGDBCds0KYVqxHamqqsSgfk2v8AQUXY/nQjegmuLylpcWRXgoIIDtgc3OzsVD4Mni5EPGpNhYUbodOLB1AARLcdRBO2hcgz4Ewp1iJqakp47t8quB40sXi4nwWFBQYTurs7DyQuO0LEE4bPgfyTEjAdyzDQVbBk+CP8R39A92oBawcMSDzCqT5BQgALPo4YVeuXDEy/SmLlb8JWylAJwESUjA9PW04yd879rpfgAAHeb1z547hnra2tkPTOduLQaiynQaxxLl5ZAy4Bm8fpc28ArG+fgGCUwDl8uXLJoo+TGu1vr6hmfkl9T5/qdn5ZQPUYfiYgESY8ujRI2OJieH285F8AgT3TE5OGrFCuaGU6dzNtr2imwaQ2pYeXUot1vGz6YrNLFVjW5/mF1cEcG439CdxI/o0IyPDOJZ7eds+AYJ7qqqqjMuO1sdcutlYgDdv1zU2MavUvHIdDUvVVyHJikwr0Ze/JeubkBRdK6rR5Myi3q5vGF3o5vKgtEm1kGmoqKjYk4veA4iVxXcgYQXKgcjpQcBDzyBGFXXt+v5Mmr4KSdGl7DLVD4zp6diM6vrHFJ1zT1/+lqRj4emqaujQwtKqNjbdic6hlQXC6SVUwj/CDQA0X80LIF6Ee0h/kvHDRXeLe5jg8sorNT8bUHx2mb49k6awhALlV7ep5cWUemaW1De3rO7pRT0ZnlRexROFxRfo+LkMw2XPuoe1svrKFf0EEyBWMAJmHy4i2PWlRrwAAkXQxCEkSgccQAum8T5iMjW7qJyiGsM134SlKrO0znBNz8yi+udX3vv0zi6ptm9UKYU1hptOnM/UrXv1mp1feid2wQsd0gEzYIgAy5cu8gIIs37//n2TC4Z7fCF6ELC2tv404tHQ1qdfonL0r9PJ+j21WNWdQ2qfmNvhGl8A9c2tmPsdE3OqeDao0IQCfXkqSWdib+hp97CWVtaCXjzMPvMEoLt37xrp2T3nHYBYabQ7igsfgVyK04Y4ra69VnvPsDLyK3TsbIZCYm8qt7xZzUOTRowQJ1/A7L62LXYLah6aUHZZg07F5OmH85nKvl1l3ALGccrlgIFoUURA35IX393XDkCgScqS5DqJL6e6ByW8vPpKJRVP9NPvWWbVY6+Xq7Z3RF1TCwGBshskzuEo9FNN97Bic8v1xa+J+vVCjh7WPjPjMa4TT4R5EoTbYHZ3CLIDEFqdxBdpS/TQbiQD4SZEamhsSheSC/WPkwkKT7ytivZBISZWCfuafKDX4Cb6aR+f1d3mHsNN//otSdHpdzQxvaANB9lD9A7SAkCIGY6jZzMAwWrEJrm5ucZ58qfRPV/09X1za8tYqePh6cZ8F9d3qHVkylinQEEI5DlAahudUUFNm9FruAv9Q+NaDzAA9aQdRsByU55i/lRlPNsOQJRTKOLhIPKCkwZAeMHfhqXqb99HKzQuX/db+9QxMe86B5U0dumX6Ov6+4lYfRe2DRDW8qAN5oCLyEASkE9MTnp1sQMQcsgD5Jod6593AB0/m6HjEdmGi/7xa6LibzxUXd+oKzroUc8LxeU91OcnE/RteIZOXso1vlL/8Lgx/16zC/AEkEiBxMXFq7unz+utIxZByro4h7ZS6fVUgCeWg378PUuJ+ZUqrG03XvI3YWkKicvXzapW4wSibFG6gYiTp/OIFfw1Jk/4UX9cvaey5l4lFVQLH2lgeMIxQEyP+l1yWoYir1d5zdYABMfgGFLexRfy5TB5veXnxAL0c+RVZZTUqn18znjJBdVt+v5cptEXURmlxqJ1Ts4LZ3AvkLjPczVdwzqXXKgvTiXpRNRVFdd3qmVkytzLKq031jJYgNDBWbk39D+heV6zO4KSsnEJsUkwaQ1PgDJLao31YpKYd7xiVv3L08kGrLyKFrW8mPQLEpzThO9zr1Ffhabo67BUI1oNAy/VObVgdBr9ugUQZe3iOyVKzMjV+MyC1ta3IwgDEFxD1hAzBzc5MfHA/j5A8zscQkjRNjqt/Ko2hSXcMhOOTC9RaVO3CVItN/EcQSviGZF2R0fPpOlsUqE5bx2dfqfs8YuW1TW16BpANuzIysrysmRHECeSSFQq2JtDPIZectL2AsiKEia6vn9Mybeq9dnJBB0NT1dmSZ0RGSuSxF9fh6YKBZ9S+EiNz8eNk2j74Og2QGBQWVlp/CG4yTYDEH4PAFVXV5u05GEC1De/YsQK5/FBW79C4wv0+S9X9GNUjlKLHunY71n67Od4nU8pUmXHkNEzcBeAHCZAuDZshsCSf1SA7CQNB0xv66a04sf6ISJbf/8xTieicpR1t15G10wu+LV2bnMQephUrE+AYC+Kax9CxCxA9ghHoXMw4Th9d5t6jFLfzTH2eXt0GyArYuSHvDgIhWyVdLA5oEB0kJ2g5xFxK3zcbnRSVefQe+Lk+az97jZAKGlSPe8pac9YBDOPLB6GFbMT83XsmJxXUV270UXkinw9s/ua2wARsJLmYZ8TzrJtxlHEchHJkxdxy1Hc9oP+MvO7J+h5/ikAROUGcOAijJZtJhaDY1BQboUaeNL/aQBRmiZYb2xsNEziBRBmnZ0PAMTen2CD1f80gJg/m0ypuJLV8MwJ7UTzJK3ZbIQvFEy6o+lpv36KyDY+zbOXswEpXCci1ju7bGK9jDu1IjgmFnNSaAQcsoh1dXXb6Y4J+vmrBLQDEPloZBA285RBy2qBHLFiLR2D+uFchk5dvqHypwPG0fPUN76+HxQgFDRB7P2WPp2OvWmi+cEXk1rfOPh+RGuk8vPzjbNMwswzWDcAMXnPlKvd4hIIKJ7PsBrU2IvLm/RjRJZ+vnjNRPUNgy/39G0CBWjbci2ofuClUgtrdCIyWyejrqq0skWLy86qHHAPkTzqBTcH6WEetu0AxIPsbI+KijJJbE85tA8HcqTzldXX6h4YVXjsTZEzDo3PN6UbYi1fuen9ANouAS2aXPSD1j6TJCNpT+4b0Vp7xebRvyYVCJ32GfSt2fgen6hHDc1ae7OuTY++dgBiYvgClH2Ki4uDKvtsGbne1OzCsooeNBkRIPhMK3psAlVA8hS1/QAiFnvcM6LEgkr981Si4Zqy6tbtDQ4bzjdzmcVcWVFmZpZ+upCikKIeNY6safnNlizcOwCBKGJGGZa6PAU15NOT3SzqgR4pxay8q4+l5JXru/B0E5zeqnlqkvnbQeiK/AFE5pGy9PWHT0xGkjJ0ZkGluvpHTd2N/oNpKOOBgUHFXL6ssNQin115AcQLyCPxCI5jMMkzz9EAmg0INY1dOhqaqq9OJyvhZoUpBqJssXZFtdueNKEGForr1Ohjrt03Oz7YyFDT2Gkqqk7KO5702O8mB1RerujoGHUMjNrLXkcvgOAWZNJuXsAn8jR5Xm8e8AQd8fbthsYn58xmBLa4fHcu0+SpUeIkyEh7VHY8N4m1nPuN+u5shr4+naycwhpNzS5pfX3Tsa7ZTS6Lhs/DPgR+prWyurr7EXPuBRBXeBFgCNqoE7n5mwsWYGNj01i6+pZeRSUV6tj5TFOvv5z7QH87Fm1SHRFpxUYcKQjazVROSjo+Z/xujkTv1MLYREWY4Y8R3gOITjF11MfYMI5lc+pZ+yOQ63AT1dCrt6v1xS9X9P8/XNb/Hr2o/zseo29CU3SrrF7Ts4umWhqMHtxNg5UStheS+yFJxvz8jeETIB7mp5CUY3GgQNjtxhg4luw0a+t6rvPx+frspzhFJt1WZ9+IXr9Zd5xV2ItWJGRubs44xFRx2GrINX/NJ0A8DBexmQEZRScFE+X7G5zrAPX6zVuNjs+KbTKTMwsGNFwFtxtjoTIePnyomJgYs+N1L+5hfL8A4W4DCt4l+2eovOIG7IW22xNysz/oxiqzDZj5kNbAigHaXs0vQLzEy5h9xIzfYLHx0amHvRcRH+IeShh9ikQQc+IUe8Zc/mjYEyBeomObK2GT0fDwsOl4P+T9DfgxriNG0I0DjHXmO6FVIHPYFyAmBNfQKVqf8hDo7ye7HwOI3WMCAAuMFFAYRe+wSYFrgYBDfwEBZAdCD8GiWDfyR4D0KTfog064hh/jYHR2R+v70R8QQHQCSOSJ2FjOD0JgV/4xAcUdiCzvR4ib96EVRxD6+PMCaOWHgE4sccAA2QkgbugkVgWWJZeNNTgI29q+3D4CDLqFheR3GHANi8nWFqcq4cAAQQQmE+eRfz9g0yfHoaGhgBWf28DY/lgkNoDx+xKiAMpYOLyBKmTbj+fxwADZlxkUZU2gZ0WO3SFw10Hl3Pbp5Gj9G8bFZ0Ok0JHQRRo5GHCgxzFAvGyJY9XwldghC1hsIya3C1DBEugLNMalX/qnTMz+QkBB5CmhE2yjG+H2YFtQADG4FTl0ExYDcwp7k1NiFSGWe24QaycLMCyK5V7SxPyKEEeQewDo1nhBA2SJhih0AIEghKIH8JvgKFaV7AC1JzgLCwNoe3EXE8Q68hzWh/fIcmIU6A9RIj0M5/IvM4zrVBHbOfg6ugaQZ+dMHEsCINS7YX3iHwpzmFyylVQwSVgRTaNI0RfoNI6c8+E3pogPz2M1AcT2Q784fVjQvYD2pMvJ90MBCEKs6MEFgIX4sfr8XQRJKiaLBQwNDVVISIjCw8ONaJ49e1anT5/WmTNnzP8F4ZhS0OQ9RAouoj/6dVOU/IF3aAB5DmjFD/2AqOAi8C9ScAD/1AKn8OG7PYe7cB2wToQKpCl4HzGmvw/VPghAH2oyhzHOfwHaB9V/A1wv2IXPy43iAAAAAElFTkSuQmCC;" vertex="1" parent="M06deS8VlxeRnnj21vpx-37">
          <mxGeometry width="42" height="42" as="geometry" />
        </mxCell>
        <mxCell id="M06deS8VlxeRnnj21vpx-39" value="Core" style="text;html=1;resizable=0;autosize=1;align=center;verticalAlign=middle;points=[];fillColor=none;strokeColor=none;rounded=0;dashed=1;" vertex="1" parent="M06deS8VlxeRnnj21vpx-37">
          <mxGeometry x="0.25" y="36" width="42" height="24" as="geometry" />
        </mxCell>
        <mxCell id="M06deS8VlxeRnnj21vpx-40" value="" style="group" vertex="1" connectable="0" parent="M06deS8VlxeRnnj21vpx-1">
          <mxGeometry x="570" y="426" width="57.25" height="60" as="geometry" />
        </mxCell>
        <mxCell id="M06deS8VlxeRnnj21vpx-41" value="" style="shape=image;verticalLabelPosition=bottom;labelBackgroundColor=#ffffff;verticalAlign=top;aspect=fixed;imageAspect=0;image=data:image/png,iVBORw0KGgoAAAANSUhEUgAAAEgAAABICAYAAABV7bNHAAAQX0lEQVR4Ae2c6VNU17rG/SPv1/vh1L2nKjknOUlMojGJiREQNYAakEHmSUQUFBBERSZlFlDmSRCQeR4cGPKc+i1cpBu7odm9UU/VWVVdu/e01rue9c7v6j6i/7Y9ETiy591DuPnnn39qa2tr57O5uSl/H8/neI/Ph24fDCAmt76+rrW1NS0uLmp2dlbPnz9XR0eHWltb9eDBA/MpLy/XkydP1N7eroGBAc3MzGhhYUGrq6vm/Q8N0qEAxCRY/bdv32p5eVljY2Pq6upSbW2tioqKlJOTo8TERKWkpCg9PV3Z2dnvfdLS0sz9pKQkc+/27duqqakxgI6Ojpp+6R/uO8zmOkAAs7GxYSYAFxQWFio5OVmRkZG6dOmSrl27ZjgFLunu7tbg4KBevnypiYkJ8xkfHzeAch1Qm5qazPNXr17VhQsXFBERIUADaLhvaWnJjMe4h8FdrgEEcawm4lNfX6/Y2Fj98ccfio+PV0lJifr7+81kELHXr1/rzZs3RmQQOwD11EOccx0O4Tme5z1Era+vT6WlpaZfAGechoYGMy7vuN2CBghgmAg65enTp7px44YRH44ABXe4pT8YCxDoD7F9/Pixrl+/roSEBN28eVPPnj0zdEAPHOVGCwogiGCFe3p6lJeXp4sXLyozM9MABeu7RaS/iQLY/Py8UeqIHRzLwvT29hquc2N8xwBZcSorK1N0dLTRC+gVlLJdQSZw2A06GG9lZcVwLPqOhUKsAY/7wbQDA8SqQNDIyIiwLHFxcbp3754RJbjJjVVzMiEW49WrV4Yuq6Nu3bplRBG6nC7WgQBiEMB58eKFESUUJHoGrnFKgBMw9noHOlDoWD/oQ+SxiOguJzQGDBCds0KYVqxHamqqsSgfk2v8AQUXY/nQjegmuLylpcWRXgoIIDtgc3OzsVD4Mni5EPGpNhYUbodOLB1AARLcdRBO2hcgz4Ewp1iJqakp47t8quB40sXi4nwWFBQYTurs7DyQuO0LEE4bPgfyTEjAdyzDQVbBk+CP8R39A92oBawcMSDzCqT5BQgALPo4YVeuXDEy/SmLlb8JWylAJwESUjA9PW04yd879rpfgAAHeb1z547hnra2tkPTOduLQaiynQaxxLl5ZAy4Bm8fpc28ArG+fgGCUwDl8uXLJoo+TGu1vr6hmfkl9T5/qdn5ZQPUYfiYgESY8ujRI2OJieH285F8AgT3TE5OGrFCuaGU6dzNtr2imwaQ2pYeXUot1vGz6YrNLFVjW5/mF1cEcG439CdxI/o0IyPDOJZ7eds+AYJ7qqqqjMuO1sdcutlYgDdv1zU2MavUvHIdDUvVVyHJikwr0Ze/JeubkBRdK6rR5Myi3q5vGF3o5vKgtEm1kGmoqKjYk4veA4iVxXcgYQXKgcjpQcBDzyBGFXXt+v5Mmr4KSdGl7DLVD4zp6diM6vrHFJ1zT1/+lqRj4emqaujQwtKqNjbdic6hlQXC6SVUwj/CDQA0X80LIF6Ee0h/kvHDRXeLe5jg8sorNT8bUHx2mb49k6awhALlV7ep5cWUemaW1De3rO7pRT0ZnlRexROFxRfo+LkMw2XPuoe1svrKFf0EEyBWMAJmHy4i2PWlRrwAAkXQxCEkSgccQAum8T5iMjW7qJyiGsM134SlKrO0znBNz8yi+udX3vv0zi6ptm9UKYU1hptOnM/UrXv1mp1feid2wQsd0gEzYIgAy5cu8gIIs37//n2TC4Z7fCF6ELC2tv404tHQ1qdfonL0r9PJ+j21WNWdQ2qfmNvhGl8A9c2tmPsdE3OqeDao0IQCfXkqSWdib+hp97CWVtaCXjzMPvMEoLt37xrp2T3nHYBYabQ7igsfgVyK04Y4ra69VnvPsDLyK3TsbIZCYm8qt7xZzUOTRowQJ1/A7L62LXYLah6aUHZZg07F5OmH85nKvl1l3ALGccrlgIFoUURA35IX393XDkCgScqS5DqJL6e6ByW8vPpKJRVP9NPvWWbVY6+Xq7Z3RF1TCwGBshskzuEo9FNN97Bic8v1xa+J+vVCjh7WPjPjMa4TT4R5EoTbYHZ3CLIDEFqdxBdpS/TQbiQD4SZEamhsSheSC/WPkwkKT7ytivZBISZWCfuafKDX4Cb6aR+f1d3mHsNN//otSdHpdzQxvaANB9lD9A7SAkCIGY6jZzMAwWrEJrm5ucZ58qfRPV/09X1za8tYqePh6cZ8F9d3qHVkylinQEEI5DlAahudUUFNm9FruAv9Q+NaDzAA9aQdRsByU55i/lRlPNsOQJRTKOLhIPKCkwZAeMHfhqXqb99HKzQuX/db+9QxMe86B5U0dumX6Ov6+4lYfRe2DRDW8qAN5oCLyEASkE9MTnp1sQMQcsgD5Jod6593AB0/m6HjEdmGi/7xa6LibzxUXd+oKzroUc8LxeU91OcnE/RteIZOXso1vlL/8Lgx/16zC/AEkEiBxMXFq7unz+utIxZByro4h7ZS6fVUgCeWg378PUuJ+ZUqrG03XvI3YWkKicvXzapW4wSibFG6gYiTp/OIFfw1Jk/4UX9cvaey5l4lFVQLH2lgeMIxQEyP+l1yWoYir1d5zdYABMfgGFLexRfy5TB5veXnxAL0c+RVZZTUqn18znjJBdVt+v5cptEXURmlxqJ1Ts4LZ3AvkLjPczVdwzqXXKgvTiXpRNRVFdd3qmVkytzLKq031jJYgNDBWbk39D+heV6zO4KSsnEJsUkwaQ1PgDJLao31YpKYd7xiVv3L08kGrLyKFrW8mPQLEpzThO9zr1Ffhabo67BUI1oNAy/VObVgdBr9ugUQZe3iOyVKzMjV+MyC1ta3IwgDEFxD1hAzBzc5MfHA/j5A8zscQkjRNjqt/Ko2hSXcMhOOTC9RaVO3CVItN/EcQSviGZF2R0fPpOlsUqE5bx2dfqfs8YuW1TW16BpANuzIysrysmRHECeSSFQq2JtDPIZectL2AsiKEia6vn9Mybeq9dnJBB0NT1dmSZ0RGSuSxF9fh6YKBZ9S+EiNz8eNk2j74Og2QGBQWVlp/CG4yTYDEH4PAFVXV5u05GEC1De/YsQK5/FBW79C4wv0+S9X9GNUjlKLHunY71n67Od4nU8pUmXHkNEzcBeAHCZAuDZshsCSf1SA7CQNB0xv66a04sf6ISJbf/8xTieicpR1t15G10wu+LV2bnMQephUrE+AYC+Kax9CxCxA9ghHoXMw4Th9d5t6jFLfzTH2eXt0GyArYuSHvDgIhWyVdLA5oEB0kJ2g5xFxK3zcbnRSVefQe+Lk+az97jZAKGlSPe8pac9YBDOPLB6GFbMT83XsmJxXUV270UXkinw9s/ua2wARsJLmYZ8TzrJtxlHEchHJkxdxy1Hc9oP+MvO7J+h5/ikAROUGcOAijJZtJhaDY1BQboUaeNL/aQBRmiZYb2xsNEziBRBmnZ0PAMTen2CD1f80gJg/m0ypuJLV8MwJ7UTzJK3ZbIQvFEy6o+lpv36KyDY+zbOXswEpXCci1ju7bGK9jDu1IjgmFnNSaAQcsoh1dXXb6Y4J+vmrBLQDEPloZBA285RBy2qBHLFiLR2D+uFchk5dvqHypwPG0fPUN76+HxQgFDRB7P2WPp2OvWmi+cEXk1rfOPh+RGuk8vPzjbNMwswzWDcAMXnPlKvd4hIIKJ7PsBrU2IvLm/RjRJZ+vnjNRPUNgy/39G0CBWjbci2ofuClUgtrdCIyWyejrqq0skWLy86qHHAPkTzqBTcH6WEetu0AxIPsbI+KijJJbE85tA8HcqTzldXX6h4YVXjsTZEzDo3PN6UbYi1fuen9ANouAS2aXPSD1j6TJCNpT+4b0Vp7xebRvyYVCJ32GfSt2fgen6hHDc1ae7OuTY++dgBiYvgClH2Ki4uDKvtsGbne1OzCsooeNBkRIPhMK3psAlVA8hS1/QAiFnvcM6LEgkr981Si4Zqy6tbtDQ4bzjdzmcVcWVFmZpZ+upCikKIeNY6safnNlizcOwCBKGJGGZa6PAU15NOT3SzqgR4pxay8q4+l5JXru/B0E5zeqnlqkvnbQeiK/AFE5pGy9PWHT0xGkjJ0ZkGluvpHTd2N/oNpKOOBgUHFXL6ssNQin115AcQLyCPxCI5jMMkzz9EAmg0INY1dOhqaqq9OJyvhZoUpBqJssXZFtdueNKEGForr1Ohjrt03Oz7YyFDT2Gkqqk7KO5702O8mB1RerujoGHUMjNrLXkcvgOAWZNJuXsAn8jR5Xm8e8AQd8fbthsYn58xmBLa4fHcu0+SpUeIkyEh7VHY8N4m1nPuN+u5shr4+naycwhpNzS5pfX3Tsa7ZTS6Lhs/DPgR+prWyurr7EXPuBRBXeBFgCNqoE7n5mwsWYGNj01i6+pZeRSUV6tj5TFOvv5z7QH87Fm1SHRFpxUYcKQjazVROSjo+Z/xujkTv1MLYREWY4Y8R3gOITjF11MfYMI5lc+pZ+yOQ63AT1dCrt6v1xS9X9P8/XNb/Hr2o/zseo29CU3SrrF7Ts4umWhqMHtxNg5UStheS+yFJxvz8jeETIB7mp5CUY3GgQNjtxhg4luw0a+t6rvPx+frspzhFJt1WZ9+IXr9Zd5xV2ItWJGRubs44xFRx2GrINX/NJ0A8DBexmQEZRScFE+X7G5zrAPX6zVuNjs+KbTKTMwsGNFwFtxtjoTIePnyomJgYs+N1L+5hfL8A4W4DCt4l+2eovOIG7IW22xNysz/oxiqzDZj5kNbAigHaXs0vQLzEy5h9xIzfYLHx0amHvRcRH+IeShh9ikQQc+IUe8Zc/mjYEyBeomObK2GT0fDwsOl4P+T9DfgxriNG0I0DjHXmO6FVIHPYFyAmBNfQKVqf8hDo7ye7HwOI3WMCAAuMFFAYRe+wSYFrgYBDfwEBZAdCD8GiWDfyR4D0KTfog064hh/jYHR2R+v70R8QQHQCSOSJ2FjOD0JgV/4xAcUdiCzvR4ib96EVRxD6+PMCaOWHgE4sccAA2QkgbugkVgWWJZeNNTgI29q+3D4CDLqFheR3GHANi8nWFqcq4cAAQQQmE+eRfz9g0yfHoaGhgBWf28DY/lgkNoDx+xKiAMpYOLyBKmTbj+fxwADZlxkUZU2gZ0WO3SFw10Hl3Pbp5Gj9G8bFZ0Ok0JHQRRo5GHCgxzFAvGyJY9XwldghC1hsIya3C1DBEugLNMalX/qnTMz+QkBB5CmhE2yjG+H2YFtQADG4FTl0ExYDcwp7k1NiFSGWe24QaycLMCyK5V7SxPyKEEeQewDo1nhBA2SJhih0AIEghKIH8JvgKFaV7AC1JzgLCwNoe3EXE8Q68hzWh/fIcmIU6A9RIj0M5/IvM4zrVBHbOfg6ugaQZ+dMHEsCINS7YX3iHwpzmFyylVQwSVgRTaNI0RfoNI6c8+E3pogPz2M1AcT2Q784fVjQvYD2pMvJ90MBCEKs6MEFgIX4sfr8XQRJKiaLBQwNDVVISIjCw8ONaJ49e1anT5/WmTNnzP8F4ZhS0OQ9RAouoj/6dVOU/IF3aAB5DmjFD/2AqOAi8C9ScAD/1AKn8OG7PYe7cB2wToQKpCl4HzGmvw/VPghAH2oyhzHOfwHaB9V/A1wv2IXPy43iAAAAAElFTkSuQmCC;" vertex="1" parent="M06deS8VlxeRnnj21vpx-40">
          <mxGeometry width="42" height="42" as="geometry" />
        </mxCell>
        <mxCell id="M06deS8VlxeRnnj21vpx-42" value="Notification" style="text;html=1;resizable=0;autosize=1;align=center;verticalAlign=middle;points=[];fillColor=none;strokeColor=none;rounded=0;dashed=1;" vertex="1" parent="M06deS8VlxeRnnj21vpx-40">
          <mxGeometry x="-14.75" y="36" width="72" height="24" as="geometry" />
        </mxCell>
        <mxCell id="M06deS8VlxeRnnj21vpx-43" value="Backend Microservices" style="text;html=1;resizable=0;autosize=1;align=center;verticalAlign=middle;points=[];fillColor=none;strokeColor=none;rounded=0;dashed=1;" vertex="1" parent="M06deS8VlxeRnnj21vpx-1">
          <mxGeometry x="570" y="96" width="138" height="24" as="geometry" />
        </mxCell>
        <mxCell id="M06deS8VlxeRnnj21vpx-44" value="" style="group" vertex="1" connectable="0" parent="M06deS8VlxeRnnj21vpx-1">
          <mxGeometry x="570" y="276" width="60.25" height="60" as="geometry" />
        </mxCell>
        <mxCell id="M06deS8VlxeRnnj21vpx-45" value="" style="shape=image;verticalLabelPosition=bottom;labelBackgroundColor=#ffffff;verticalAlign=top;aspect=fixed;imageAspect=0;image=data:image/png,iVBORw0KGgoAAAANSUhEUgAAAEgAAABICAYAAABV7bNHAAAQX0lEQVR4Ae2c6VNU17rG/SPv1/vh1L2nKjknOUlMojGJiREQNYAakEHmSUQUFBBERSZlFlDmSRCQeR4cGPKc+i1cpBu7odm9UU/VWVVdu/e01rue9c7v6j6i/7Y9ETiy591DuPnnn39qa2tr57O5uSl/H8/neI/Ph24fDCAmt76+rrW1NS0uLmp2dlbPnz9XR0eHWltb9eDBA/MpLy/XkydP1N7eroGBAc3MzGhhYUGrq6vm/Q8N0qEAxCRY/bdv32p5eVljY2Pq6upSbW2tioqKlJOTo8TERKWkpCg9PV3Z2dnvfdLS0sz9pKQkc+/27duqqakxgI6Ojpp+6R/uO8zmOkAAs7GxYSYAFxQWFio5OVmRkZG6dOmSrl27ZjgFLunu7tbg4KBevnypiYkJ8xkfHzeAch1Qm5qazPNXr17VhQsXFBERIUADaLhvaWnJjMe4h8FdrgEEcawm4lNfX6/Y2Fj98ccfio+PV0lJifr7+81kELHXr1/rzZs3RmQQOwD11EOccx0O4Tme5z1Era+vT6WlpaZfAGechoYGMy7vuN2CBghgmAg65enTp7px44YRH44ABXe4pT8YCxDoD7F9/Pixrl+/roSEBN28eVPPnj0zdEAPHOVGCwogiGCFe3p6lJeXp4sXLyozM9MABeu7RaS/iQLY/Py8UeqIHRzLwvT29hquc2N8xwBZcSorK1N0dLTRC+gVlLJdQSZw2A06GG9lZcVwLPqOhUKsAY/7wbQDA8SqQNDIyIiwLHFxcbp3754RJbjJjVVzMiEW49WrV4Yuq6Nu3bplRBG6nC7WgQBiEMB58eKFESUUJHoGrnFKgBMw9noHOlDoWD/oQ+SxiOguJzQGDBCds0KYVqxHamqqsSgfk2v8AQUXY/nQjegmuLylpcWRXgoIIDtgc3OzsVD4Mni5EPGpNhYUbodOLB1AARLcdRBO2hcgz4Ewp1iJqakp47t8quB40sXi4nwWFBQYTurs7DyQuO0LEE4bPgfyTEjAdyzDQVbBk+CP8R39A92oBawcMSDzCqT5BQgALPo4YVeuXDEy/SmLlb8JWylAJwESUjA9PW04yd879rpfgAAHeb1z547hnra2tkPTOduLQaiynQaxxLl5ZAy4Bm8fpc28ArG+fgGCUwDl8uXLJoo+TGu1vr6hmfkl9T5/qdn5ZQPUYfiYgESY8ujRI2OJieH285F8AgT3TE5OGrFCuaGU6dzNtr2imwaQ2pYeXUot1vGz6YrNLFVjW5/mF1cEcG439CdxI/o0IyPDOJZ7eds+AYJ7qqqqjMuO1sdcutlYgDdv1zU2MavUvHIdDUvVVyHJikwr0Ze/JeubkBRdK6rR5Myi3q5vGF3o5vKgtEm1kGmoqKjYk4veA4iVxXcgYQXKgcjpQcBDzyBGFXXt+v5Mmr4KSdGl7DLVD4zp6diM6vrHFJ1zT1/+lqRj4emqaujQwtKqNjbdic6hlQXC6SVUwj/CDQA0X80LIF6Ee0h/kvHDRXeLe5jg8sorNT8bUHx2mb49k6awhALlV7ep5cWUemaW1De3rO7pRT0ZnlRexROFxRfo+LkMw2XPuoe1svrKFf0EEyBWMAJmHy4i2PWlRrwAAkXQxCEkSgccQAum8T5iMjW7qJyiGsM134SlKrO0znBNz8yi+udX3vv0zi6ptm9UKYU1hptOnM/UrXv1mp1feid2wQsd0gEzYIgAy5cu8gIIs37//n2TC4Z7fCF6ELC2tv404tHQ1qdfonL0r9PJ+j21WNWdQ2qfmNvhGl8A9c2tmPsdE3OqeDao0IQCfXkqSWdib+hp97CWVtaCXjzMPvMEoLt37xrp2T3nHYBYabQ7igsfgVyK04Y4ra69VnvPsDLyK3TsbIZCYm8qt7xZzUOTRowQJ1/A7L62LXYLah6aUHZZg07F5OmH85nKvl1l3ALGccrlgIFoUURA35IX393XDkCgScqS5DqJL6e6ByW8vPpKJRVP9NPvWWbVY6+Xq7Z3RF1TCwGBshskzuEo9FNN97Bic8v1xa+J+vVCjh7WPjPjMa4TT4R5EoTbYHZ3CLIDEFqdxBdpS/TQbiQD4SZEamhsSheSC/WPkwkKT7ytivZBISZWCfuafKDX4Cb6aR+f1d3mHsNN//otSdHpdzQxvaANB9lD9A7SAkCIGY6jZzMAwWrEJrm5ucZ58qfRPV/09X1za8tYqePh6cZ8F9d3qHVkylinQEEI5DlAahudUUFNm9FruAv9Q+NaDzAA9aQdRsByU55i/lRlPNsOQJRTKOLhIPKCkwZAeMHfhqXqb99HKzQuX/db+9QxMe86B5U0dumX6Ov6+4lYfRe2DRDW8qAN5oCLyEASkE9MTnp1sQMQcsgD5Jod6593AB0/m6HjEdmGi/7xa6LibzxUXd+oKzroUc8LxeU91OcnE/RteIZOXso1vlL/8Lgx/16zC/AEkEiBxMXFq7unz+utIxZByro4h7ZS6fVUgCeWg378PUuJ+ZUqrG03XvI3YWkKicvXzapW4wSibFG6gYiTp/OIFfw1Jk/4UX9cvaey5l4lFVQLH2lgeMIxQEyP+l1yWoYir1d5zdYABMfgGFLexRfy5TB5veXnxAL0c+RVZZTUqn18znjJBdVt+v5cptEXURmlxqJ1Ts4LZ3AvkLjPczVdwzqXXKgvTiXpRNRVFdd3qmVkytzLKq031jJYgNDBWbk39D+heV6zO4KSsnEJsUkwaQ1PgDJLao31YpKYd7xiVv3L08kGrLyKFrW8mPQLEpzThO9zr1Ffhabo67BUI1oNAy/VObVgdBr9ugUQZe3iOyVKzMjV+MyC1ta3IwgDEFxD1hAzBzc5MfHA/j5A8zscQkjRNjqt/Ko2hSXcMhOOTC9RaVO3CVItN/EcQSviGZF2R0fPpOlsUqE5bx2dfqfs8YuW1TW16BpANuzIysrysmRHECeSSFQq2JtDPIZectL2AsiKEia6vn9Mybeq9dnJBB0NT1dmSZ0RGSuSxF9fh6YKBZ9S+EiNz8eNk2j74Og2QGBQWVlp/CG4yTYDEH4PAFVXV5u05GEC1De/YsQK5/FBW79C4wv0+S9X9GNUjlKLHunY71n67Od4nU8pUmXHkNEzcBeAHCZAuDZshsCSf1SA7CQNB0xv66a04sf6ISJbf/8xTieicpR1t15G10wu+LV2bnMQephUrE+AYC+Kax9CxCxA9ghHoXMw4Th9d5t6jFLfzTH2eXt0GyArYuSHvDgIhWyVdLA5oEB0kJ2g5xFxK3zcbnRSVefQe+Lk+az97jZAKGlSPe8pac9YBDOPLB6GFbMT83XsmJxXUV270UXkinw9s/ua2wARsJLmYZ8TzrJtxlHEchHJkxdxy1Hc9oP+MvO7J+h5/ikAROUGcOAijJZtJhaDY1BQboUaeNL/aQBRmiZYb2xsNEziBRBmnZ0PAMTen2CD1f80gJg/m0ypuJLV8MwJ7UTzJK3ZbIQvFEy6o+lpv36KyDY+zbOXswEpXCci1ju7bGK9jDu1IjgmFnNSaAQcsoh1dXXb6Y4J+vmrBLQDEPloZBA285RBy2qBHLFiLR2D+uFchk5dvqHypwPG0fPUN76+HxQgFDRB7P2WPp2OvWmi+cEXk1rfOPh+RGuk8vPzjbNMwswzWDcAMXnPlKvd4hIIKJ7PsBrU2IvLm/RjRJZ+vnjNRPUNgy/39G0CBWjbci2ofuClUgtrdCIyWyejrqq0skWLy86qHHAPkTzqBTcH6WEetu0AxIPsbI+KijJJbE85tA8HcqTzldXX6h4YVXjsTZEzDo3PN6UbYi1fuen9ANouAS2aXPSD1j6TJCNpT+4b0Vp7xebRvyYVCJ32GfSt2fgen6hHDc1ae7OuTY++dgBiYvgClH2Ki4uDKvtsGbne1OzCsooeNBkRIPhMK3psAlVA8hS1/QAiFnvcM6LEgkr981Si4Zqy6tbtDQ4bzjdzmcVcWVFmZpZ+upCikKIeNY6safnNlizcOwCBKGJGGZa6PAU15NOT3SzqgR4pxay8q4+l5JXru/B0E5zeqnlqkvnbQeiK/AFE5pGy9PWHT0xGkjJ0ZkGluvpHTd2N/oNpKOOBgUHFXL6ssNQin115AcQLyCPxCI5jMMkzz9EAmg0INY1dOhqaqq9OJyvhZoUpBqJssXZFtdueNKEGForr1Ohjrt03Oz7YyFDT2Gkqqk7KO5702O8mB1RerujoGHUMjNrLXkcvgOAWZNJuXsAn8jR5Xm8e8AQd8fbthsYn58xmBLa4fHcu0+SpUeIkyEh7VHY8N4m1nPuN+u5shr4+naycwhpNzS5pfX3Tsa7ZTS6Lhs/DPgR+prWyurr7EXPuBRBXeBFgCNqoE7n5mwsWYGNj01i6+pZeRSUV6tj5TFOvv5z7QH87Fm1SHRFpxUYcKQjazVROSjo+Z/xujkTv1MLYREWY4Y8R3gOITjF11MfYMI5lc+pZ+yOQ63AT1dCrt6v1xS9X9P8/XNb/Hr2o/zseo29CU3SrrF7Ts4umWhqMHtxNg5UStheS+yFJxvz8jeETIB7mp5CUY3GgQNjtxhg4luw0a+t6rvPx+frspzhFJt1WZ9+IXr9Zd5xV2ItWJGRubs44xFRx2GrINX/NJ0A8DBexmQEZRScFE+X7G5zrAPX6zVuNjs+KbTKTMwsGNFwFtxtjoTIePnyomJgYs+N1L+5hfL8A4W4DCt4l+2eovOIG7IW22xNysz/oxiqzDZj5kNbAigHaXs0vQLzEy5h9xIzfYLHx0amHvRcRH+IeShh9ikQQc+IUe8Zc/mjYEyBeomObK2GT0fDwsOl4P+T9DfgxriNG0I0DjHXmO6FVIHPYFyAmBNfQKVqf8hDo7ye7HwOI3WMCAAuMFFAYRe+wSYFrgYBDfwEBZAdCD8GiWDfyR4D0KTfog064hh/jYHR2R+v70R8QQHQCSOSJ2FjOD0JgV/4xAcUdiCzvR4ib96EVRxD6+PMCaOWHgE4sccAA2QkgbugkVgWWJZeNNTgI29q+3D4CDLqFheR3GHANi8nWFqcq4cAAQQQmE+eRfz9g0yfHoaGhgBWf28DY/lgkNoDx+xKiAMpYOLyBKmTbj+fxwADZlxkUZU2gZ0WO3SFw10Hl3Pbp5Gj9G8bFZ0Ok0JHQRRo5GHCgxzFAvGyJY9XwldghC1hsIya3C1DBEugLNMalX/qnTMz+QkBB5CmhE2yjG+H2YFtQADG4FTl0ExYDcwp7k1NiFSGWe24QaycLMCyK5V7SxPyKEEeQewDo1nhBA2SJhih0AIEghKIH8JvgKFaV7AC1JzgLCwNoe3EXE8Q68hzWh/fIcmIU6A9RIj0M5/IvM4zrVBHbOfg6ugaQZ+dMHEsCINS7YX3iHwpzmFyylVQwSVgRTaNI0RfoNI6c8+E3pogPz2M1AcT2Q784fVjQvYD2pMvJ90MBCEKs6MEFgIX4sfr8XQRJKiaLBQwNDVVISIjCw8ONaJ49e1anT5/WmTNnzP8F4ZhS0OQ9RAouoj/6dVOU/IF3aAB5DmjFD/2AqOAi8C9ScAD/1AKn8OG7PYe7cB2wToQKpCl4HzGmvw/VPghAH2oyhzHOfwHaB9V/A1wv2IXPy43iAAAAAElFTkSuQmCC;" vertex="1" parent="M06deS8VlxeRnnj21vpx-44">
          <mxGeometry width="42" height="42" as="geometry" />
        </mxCell>
        <mxCell id="M06deS8VlxeRnnj21vpx-46" value="ServiceMgt" style="text;html=1;resizable=0;autosize=1;align=center;verticalAlign=middle;points=[];fillColor=none;strokeColor=none;rounded=0;dashed=1;" vertex="1" parent="M06deS8VlxeRnnj21vpx-44">
          <mxGeometry x="-17.75" y="36" width="78" height="24" as="geometry" />
        </mxCell>
        <mxCell id="M06deS8VlxeRnnj21vpx-47" value="" style="group" vertex="1" connectable="0" parent="M06deS8VlxeRnnj21vpx-1">
          <mxGeometry x="570" y="348" width="60.25" height="60" as="geometry" />
        </mxCell>
        <mxCell id="M06deS8VlxeRnnj21vpx-48" value="" style="shape=image;verticalLabelPosition=bottom;labelBackgroundColor=#ffffff;verticalAlign=top;aspect=fixed;imageAspect=0;image=data:image/png,iVBORw0KGgoAAAANSUhEUgAAAEgAAABICAYAAABV7bNHAAAQX0lEQVR4Ae2c6VNU17rG/SPv1/vh1L2nKjknOUlMojGJiREQNYAakEHmSUQUFBBERSZlFlDmSRCQeR4cGPKc+i1cpBu7odm9UU/VWVVdu/e01rue9c7v6j6i/7Y9ETiy591DuPnnn39qa2tr57O5uSl/H8/neI/Ph24fDCAmt76+rrW1NS0uLmp2dlbPnz9XR0eHWltb9eDBA/MpLy/XkydP1N7eroGBAc3MzGhhYUGrq6vm/Q8N0qEAxCRY/bdv32p5eVljY2Pq6upSbW2tioqKlJOTo8TERKWkpCg9PV3Z2dnvfdLS0sz9pKQkc+/27duqqakxgI6Ojpp+6R/uO8zmOkAAs7GxYSYAFxQWFio5OVmRkZG6dOmSrl27ZjgFLunu7tbg4KBevnypiYkJ8xkfHzeAch1Qm5qazPNXr17VhQsXFBERIUADaLhvaWnJjMe4h8FdrgEEcawm4lNfX6/Y2Fj98ccfio+PV0lJifr7+81kELHXr1/rzZs3RmQQOwD11EOccx0O4Tme5z1Era+vT6WlpaZfAGechoYGMy7vuN2CBghgmAg65enTp7px44YRH44ABXe4pT8YCxDoD7F9/Pixrl+/roSEBN28eVPPnj0zdEAPHOVGCwogiGCFe3p6lJeXp4sXLyozM9MABeu7RaS/iQLY/Py8UeqIHRzLwvT29hquc2N8xwBZcSorK1N0dLTRC+gVlLJdQSZw2A06GG9lZcVwLPqOhUKsAY/7wbQDA8SqQNDIyIiwLHFxcbp3754RJbjJjVVzMiEW49WrV4Yuq6Nu3bplRBG6nC7WgQBiEMB58eKFESUUJHoGrnFKgBMw9noHOlDoWD/oQ+SxiOguJzQGDBCds0KYVqxHamqqsSgfk2v8AQUXY/nQjegmuLylpcWRXgoIIDtgc3OzsVD4Mni5EPGpNhYUbodOLB1AARLcdRBO2hcgz4Ewp1iJqakp47t8quB40sXi4nwWFBQYTurs7DyQuO0LEE4bPgfyTEjAdyzDQVbBk+CP8R39A92oBawcMSDzCqT5BQgALPo4YVeuXDEy/SmLlb8JWylAJwESUjA9PW04yd879rpfgAAHeb1z547hnra2tkPTOduLQaiynQaxxLl5ZAy4Bm8fpc28ArG+fgGCUwDl8uXLJoo+TGu1vr6hmfkl9T5/qdn5ZQPUYfiYgESY8ujRI2OJieH285F8AgT3TE5OGrFCuaGU6dzNtr2imwaQ2pYeXUot1vGz6YrNLFVjW5/mF1cEcG439CdxI/o0IyPDOJZ7eds+AYJ7qqqqjMuO1sdcutlYgDdv1zU2MavUvHIdDUvVVyHJikwr0Ze/JeubkBRdK6rR5Myi3q5vGF3o5vKgtEm1kGmoqKjYk4veA4iVxXcgYQXKgcjpQcBDzyBGFXXt+v5Mmr4KSdGl7DLVD4zp6diM6vrHFJ1zT1/+lqRj4emqaujQwtKqNjbdic6hlQXC6SVUwj/CDQA0X80LIF6Ee0h/kvHDRXeLe5jg8sorNT8bUHx2mb49k6awhALlV7ep5cWUemaW1De3rO7pRT0ZnlRexROFxRfo+LkMw2XPuoe1svrKFf0EEyBWMAJmHy4i2PWlRrwAAkXQxCEkSgccQAum8T5iMjW7qJyiGsM134SlKrO0znBNz8yi+udX3vv0zi6ptm9UKYU1hptOnM/UrXv1mp1feid2wQsd0gEzYIgAy5cu8gIIs37//n2TC4Z7fCF6ELC2tv404tHQ1qdfonL0r9PJ+j21WNWdQ2qfmNvhGl8A9c2tmPsdE3OqeDao0IQCfXkqSWdib+hp97CWVtaCXjzMPvMEoLt37xrp2T3nHYBYabQ7igsfgVyK04Y4ra69VnvPsDLyK3TsbIZCYm8qt7xZzUOTRowQJ1/A7L62LXYLah6aUHZZg07F5OmH85nKvl1l3ALGccrlgIFoUURA35IX393XDkCgScqS5DqJL6e6ByW8vPpKJRVP9NPvWWbVY6+Xq7Z3RF1TCwGBshskzuEo9FNN97Bic8v1xa+J+vVCjh7WPjPjMa4TT4R5EoTbYHZ3CLIDEFqdxBdpS/TQbiQD4SZEamhsSheSC/WPkwkKT7ytivZBISZWCfuafKDX4Cb6aR+f1d3mHsNN//otSdHpdzQxvaANB9lD9A7SAkCIGY6jZzMAwWrEJrm5ucZ58qfRPV/09X1za8tYqePh6cZ8F9d3qHVkylinQEEI5DlAahudUUFNm9FruAv9Q+NaDzAA9aQdRsByU55i/lRlPNsOQJRTKOLhIPKCkwZAeMHfhqXqb99HKzQuX/db+9QxMe86B5U0dumX6Ov6+4lYfRe2DRDW8qAN5oCLyEASkE9MTnp1sQMQcsgD5Jod6593AB0/m6HjEdmGi/7xa6LibzxUXd+oKzroUc8LxeU91OcnE/RteIZOXso1vlL/8Lgx/16zC/AEkEiBxMXFq7unz+utIxZByro4h7ZS6fVUgCeWg378PUuJ+ZUqrG03XvI3YWkKicvXzapW4wSibFG6gYiTp/OIFfw1Jk/4UX9cvaey5l4lFVQLH2lgeMIxQEyP+l1yWoYir1d5zdYABMfgGFLexRfy5TB5veXnxAL0c+RVZZTUqn18znjJBdVt+v5cptEXURmlxqJ1Ts4LZ3AvkLjPczVdwzqXXKgvTiXpRNRVFdd3qmVkytzLKq031jJYgNDBWbk39D+heV6zO4KSsnEJsUkwaQ1PgDJLao31YpKYd7xiVv3L08kGrLyKFrW8mPQLEpzThO9zr1Ffhabo67BUI1oNAy/VObVgdBr9ugUQZe3iOyVKzMjV+MyC1ta3IwgDEFxD1hAzBzc5MfHA/j5A8zscQkjRNjqt/Ko2hSXcMhOOTC9RaVO3CVItN/EcQSviGZF2R0fPpOlsUqE5bx2dfqfs8YuW1TW16BpANuzIysrysmRHECeSSFQq2JtDPIZectL2AsiKEia6vn9Mybeq9dnJBB0NT1dmSZ0RGSuSxF9fh6YKBZ9S+EiNz8eNk2j74Og2QGBQWVlp/CG4yTYDEH4PAFVXV5u05GEC1De/YsQK5/FBW79C4wv0+S9X9GNUjlKLHunY71n67Od4nU8pUmXHkNEzcBeAHCZAuDZshsCSf1SA7CQNB0xv66a04sf6ISJbf/8xTieicpR1t15G10wu+LV2bnMQephUrE+AYC+Kax9CxCxA9ghHoXMw4Th9d5t6jFLfzTH2eXt0GyArYuSHvDgIhWyVdLA5oEB0kJ2g5xFxK3zcbnRSVefQe+Lk+az97jZAKGlSPe8pac9YBDOPLB6GFbMT83XsmJxXUV270UXkinw9s/ua2wARsJLmYZ8TzrJtxlHEchHJkxdxy1Hc9oP+MvO7J+h5/ikAROUGcOAijJZtJhaDY1BQboUaeNL/aQBRmiZYb2xsNEziBRBmnZ0PAMTen2CD1f80gJg/m0ypuJLV8MwJ7UTzJK3ZbIQvFEy6o+lpv36KyDY+zbOXswEpXCci1ju7bGK9jDu1IjgmFnNSaAQcsoh1dXXb6Y4J+vmrBLQDEPloZBA285RBy2qBHLFiLR2D+uFchk5dvqHypwPG0fPUN76+HxQgFDRB7P2WPp2OvWmi+cEXk1rfOPh+RGuk8vPzjbNMwswzWDcAMXnPlKvd4hIIKJ7PsBrU2IvLm/RjRJZ+vnjNRPUNgy/39G0CBWjbci2ofuClUgtrdCIyWyejrqq0skWLy86qHHAPkTzqBTcH6WEetu0AxIPsbI+KijJJbE85tA8HcqTzldXX6h4YVXjsTZEzDo3PN6UbYi1fuen9ANouAS2aXPSD1j6TJCNpT+4b0Vp7xebRvyYVCJ32GfSt2fgen6hHDc1ae7OuTY++dgBiYvgClH2Ki4uDKvtsGbne1OzCsooeNBkRIPhMK3psAlVA8hS1/QAiFnvcM6LEgkr981Si4Zqy6tbtDQ4bzjdzmcVcWVFmZpZ+upCikKIeNY6safnNlizcOwCBKGJGGZa6PAU15NOT3SzqgR4pxay8q4+l5JXru/B0E5zeqnlqkvnbQeiK/AFE5pGy9PWHT0xGkjJ0ZkGluvpHTd2N/oNpKOOBgUHFXL6ssNQin115AcQLyCPxCI5jMMkzz9EAmg0INY1dOhqaqq9OJyvhZoUpBqJssXZFtdueNKEGForr1Ohjrt03Oz7YyFDT2Gkqqk7KO5702O8mB1RerujoGHUMjNrLXkcvgOAWZNJuXsAn8jR5Xm8e8AQd8fbthsYn58xmBLa4fHcu0+SpUeIkyEh7VHY8N4m1nPuN+u5shr4+naycwhpNzS5pfX3Tsa7ZTS6Lhs/DPgR+prWyurr7EXPuBRBXeBFgCNqoE7n5mwsWYGNj01i6+pZeRSUV6tj5TFOvv5z7QH87Fm1SHRFpxUYcKQjazVROSjo+Z/xujkTv1MLYREWY4Y8R3gOITjF11MfYMI5lc+pZ+yOQ63AT1dCrt6v1xS9X9P8/XNb/Hr2o/zseo29CU3SrrF7Ts4umWhqMHtxNg5UStheS+yFJxvz8jeETIB7mp5CUY3GgQNjtxhg4luw0a+t6rvPx+frspzhFJt1WZ9+IXr9Zd5xV2ItWJGRubs44xFRx2GrINX/NJ0A8DBexmQEZRScFE+X7G5zrAPX6zVuNjs+KbTKTMwsGNFwFtxtjoTIePnyomJgYs+N1L+5hfL8A4W4DCt4l+2eovOIG7IW22xNysz/oxiqzDZj5kNbAigHaXs0vQLzEy5h9xIzfYLHx0amHvRcRH+IeShh9ikQQc+IUe8Zc/mjYEyBeomObK2GT0fDwsOl4P+T9DfgxriNG0I0DjHXmO6FVIHPYFyAmBNfQKVqf8hDo7ye7HwOI3WMCAAuMFFAYRe+wSYFrgYBDfwEBZAdCD8GiWDfyR4D0KTfog064hh/jYHR2R+v70R8QQHQCSOSJ2FjOD0JgV/4xAcUdiCzvR4ib96EVRxD6+PMCaOWHgE4sccAA2QkgbugkVgWWJZeNNTgI29q+3D4CDLqFheR3GHANi8nWFqcq4cAAQQQmE+eRfz9g0yfHoaGhgBWf28DY/lgkNoDx+xKiAMpYOLyBKmTbj+fxwADZlxkUZU2gZ0WO3SFw10Hl3Pbp5Gj9G8bFZ0Ok0JHQRRo5GHCgxzFAvGyJY9XwldghC1hsIya3C1DBEugLNMalX/qnTMz+QkBB5CmhE2yjG+H2YFtQADG4FTl0ExYDcwp7k1NiFSGWe24QaycLMCyK5V7SxPyKEEeQewDo1nhBA2SJhih0AIEghKIH8JvgKFaV7AC1JzgLCwNoe3EXE8Q68hzWh/fIcmIU6A9RIj0M5/IvM4zrVBHbOfg6ugaQZ+dMHEsCINS7YX3iHwpzmFyylVQwSVgRTaNI0RfoNI6c8+E3pogPz2M1AcT2Q784fVjQvYD2pMvJ90MBCEKs6MEFgIX4sfr8XQRJKiaLBQwNDVVISIjCw8ONaJ49e1anT5/WmTNnzP8F4ZhS0OQ9RAouoj/6dVOU/IF3aAB5DmjFD/2AqOAi8C9ScAD/1AKn8OG7PYe7cB2wToQKpCl4HzGmvw/VPghAH2oyhzHOfwHaB9V/A1wv2IXPy43iAAAAAElFTkSuQmCC;" vertex="1" parent="M06deS8VlxeRnnj21vpx-47">
          <mxGeometry width="42" height="42" as="geometry" />
        </mxCell>
        <mxCell id="M06deS8VlxeRnnj21vpx-49" value="Recora" style="text;html=1;resizable=0;autosize=1;align=center;verticalAlign=middle;points=[];fillColor=none;strokeColor=none;rounded=0;dashed=1;" vertex="1" parent="M06deS8VlxeRnnj21vpx-47">
          <mxGeometry x="-5.75" y="36" width="54" height="24" as="geometry" />
        </mxCell>
        <mxCell id="M06deS8VlxeRnnj21vpx-50" value="" style="group" vertex="1" connectable="0" parent="M06deS8VlxeRnnj21vpx-1">
          <mxGeometry x="648" y="138" width="60.25" height="60" as="geometry" />
        </mxCell>
        <mxCell id="M06deS8VlxeRnnj21vpx-51" value="" style="shape=image;verticalLabelPosition=bottom;labelBackgroundColor=#ffffff;verticalAlign=top;aspect=fixed;imageAspect=0;image=data:image/png,iVBORw0KGgoAAAANSUhEUgAAAEgAAABICAYAAABV7bNHAAAQX0lEQVR4Ae2c6VNU17rG/SPv1/vh1L2nKjknOUlMojGJiREQNYAakEHmSUQUFBBERSZlFlDmSRCQeR4cGPKc+i1cpBu7odm9UU/VWVVdu/e01rue9c7v6j6i/7Y9ETiy591DuPnnn39qa2tr57O5uSl/H8/neI/Ph24fDCAmt76+rrW1NS0uLmp2dlbPnz9XR0eHWltb9eDBA/MpLy/XkydP1N7eroGBAc3MzGhhYUGrq6vm/Q8N0qEAxCRY/bdv32p5eVljY2Pq6upSbW2tioqKlJOTo8TERKWkpCg9PV3Z2dnvfdLS0sz9pKQkc+/27duqqakxgI6Ojpp+6R/uO8zmOkAAs7GxYSYAFxQWFio5OVmRkZG6dOmSrl27ZjgFLunu7tbg4KBevnypiYkJ8xkfHzeAch1Qm5qazPNXr17VhQsXFBERIUADaLhvaWnJjMe4h8FdrgEEcawm4lNfX6/Y2Fj98ccfio+PV0lJifr7+81kELHXr1/rzZs3RmQQOwD11EOccx0O4Tme5z1Era+vT6WlpaZfAGechoYGMy7vuN2CBghgmAg65enTp7px44YRH44ABXe4pT8YCxDoD7F9/Pixrl+/roSEBN28eVPPnj0zdEAPHOVGCwogiGCFe3p6lJeXp4sXLyozM9MABeu7RaS/iQLY/Py8UeqIHRzLwvT29hquc2N8xwBZcSorK1N0dLTRC+gVlLJdQSZw2A06GG9lZcVwLPqOhUKsAY/7wbQDA8SqQNDIyIiwLHFxcbp3754RJbjJjVVzMiEW49WrV4Yuq6Nu3bplRBG6nC7WgQBiEMB58eKFESUUJHoGrnFKgBMw9noHOlDoWD/oQ+SxiOguJzQGDBCds0KYVqxHamqqsSgfk2v8AQUXY/nQjegmuLylpcWRXgoIIDtgc3OzsVD4Mni5EPGpNhYUbodOLB1AARLcdRBO2hcgz4Ewp1iJqakp47t8quB40sXi4nwWFBQYTurs7DyQuO0LEE4bPgfyTEjAdyzDQVbBk+CP8R39A92oBawcMSDzCqT5BQgALPo4YVeuXDEy/SmLlb8JWylAJwESUjA9PW04yd879rpfgAAHeb1z547hnra2tkPTOduLQaiynQaxxLl5ZAy4Bm8fpc28ArG+fgGCUwDl8uXLJoo+TGu1vr6hmfkl9T5/qdn5ZQPUYfiYgESY8ujRI2OJieH285F8AgT3TE5OGrFCuaGU6dzNtr2imwaQ2pYeXUot1vGz6YrNLFVjW5/mF1cEcG439CdxI/o0IyPDOJZ7eds+AYJ7qqqqjMuO1sdcutlYgDdv1zU2MavUvHIdDUvVVyHJikwr0Ze/JeubkBRdK6rR5Myi3q5vGF3o5vKgtEm1kGmoqKjYk4veA4iVxXcgYQXKgcjpQcBDzyBGFXXt+v5Mmr4KSdGl7DLVD4zp6diM6vrHFJ1zT1/+lqRj4emqaujQwtKqNjbdic6hlQXC6SVUwj/CDQA0X80LIF6Ee0h/kvHDRXeLe5jg8sorNT8bUHx2mb49k6awhALlV7ep5cWUemaW1De3rO7pRT0ZnlRexROFxRfo+LkMw2XPuoe1svrKFf0EEyBWMAJmHy4i2PWlRrwAAkXQxCEkSgccQAum8T5iMjW7qJyiGsM134SlKrO0znBNz8yi+udX3vv0zi6ptm9UKYU1hptOnM/UrXv1mp1feid2wQsd0gEzYIgAy5cu8gIIs37//n2TC4Z7fCF6ELC2tv404tHQ1qdfonL0r9PJ+j21WNWdQ2qfmNvhGl8A9c2tmPsdE3OqeDao0IQCfXkqSWdib+hp97CWVtaCXjzMPvMEoLt37xrp2T3nHYBYabQ7igsfgVyK04Y4ra69VnvPsDLyK3TsbIZCYm8qt7xZzUOTRowQJ1/A7L62LXYLah6aUHZZg07F5OmH85nKvl1l3ALGccrlgIFoUURA35IX393XDkCgScqS5DqJL6e6ByW8vPpKJRVP9NPvWWbVY6+Xq7Z3RF1TCwGBshskzuEo9FNN97Bic8v1xa+J+vVCjh7WPjPjMa4TT4R5EoTbYHZ3CLIDEFqdxBdpS/TQbiQD4SZEamhsSheSC/WPkwkKT7ytivZBISZWCfuafKDX4Cb6aR+f1d3mHsNN//otSdHpdzQxvaANB9lD9A7SAkCIGY6jZzMAwWrEJrm5ucZ58qfRPV/09X1za8tYqePh6cZ8F9d3qHVkylinQEEI5DlAahudUUFNm9FruAv9Q+NaDzAA9aQdRsByU55i/lRlPNsOQJRTKOLhIPKCkwZAeMHfhqXqb99HKzQuX/db+9QxMe86B5U0dumX6Ov6+4lYfRe2DRDW8qAN5oCLyEASkE9MTnp1sQMQcsgD5Jod6593AB0/m6HjEdmGi/7xa6LibzxUXd+oKzroUc8LxeU91OcnE/RteIZOXso1vlL/8Lgx/16zC/AEkEiBxMXFq7unz+utIxZByro4h7ZS6fVUgCeWg378PUuJ+ZUqrG03XvI3YWkKicvXzapW4wSibFG6gYiTp/OIFfw1Jk/4UX9cvaey5l4lFVQLH2lgeMIxQEyP+l1yWoYir1d5zdYABMfgGFLexRfy5TB5veXnxAL0c+RVZZTUqn18znjJBdVt+v5cptEXURmlxqJ1Ts4LZ3AvkLjPczVdwzqXXKgvTiXpRNRVFdd3qmVkytzLKq031jJYgNDBWbk39D+heV6zO4KSsnEJsUkwaQ1PgDJLao31YpKYd7xiVv3L08kGrLyKFrW8mPQLEpzThO9zr1Ffhabo67BUI1oNAy/VObVgdBr9ugUQZe3iOyVKzMjV+MyC1ta3IwgDEFxD1hAzBzc5MfHA/j5A8zscQkjRNjqt/Ko2hSXcMhOOTC9RaVO3CVItN/EcQSviGZF2R0fPpOlsUqE5bx2dfqfs8YuW1TW16BpANuzIysrysmRHECeSSFQq2JtDPIZectL2AsiKEia6vn9Mybeq9dnJBB0NT1dmSZ0RGSuSxF9fh6YKBZ9S+EiNz8eNk2j74Og2QGBQWVlp/CG4yTYDEH4PAFVXV5u05GEC1De/YsQK5/FBW79C4wv0+S9X9GNUjlKLHunY71n67Od4nU8pUmXHkNEzcBeAHCZAuDZshsCSf1SA7CQNB0xv66a04sf6ISJbf/8xTieicpR1t15G10wu+LV2bnMQephUrE+AYC+Kax9CxCxA9ghHoXMw4Th9d5t6jFLfzTH2eXt0GyArYuSHvDgIhWyVdLA5oEB0kJ2g5xFxK3zcbnRSVefQe+Lk+az97jZAKGlSPe8pac9YBDOPLB6GFbMT83XsmJxXUV270UXkinw9s/ua2wARsJLmYZ8TzrJtxlHEchHJkxdxy1Hc9oP+MvO7J+h5/ikAROUGcOAijJZtJhaDY1BQboUaeNL/aQBRmiZYb2xsNEziBRBmnZ0PAMTen2CD1f80gJg/m0ypuJLV8MwJ7UTzJK3ZbIQvFEy6o+lpv36KyDY+zbOXswEpXCci1ju7bGK9jDu1IjgmFnNSaAQcsoh1dXXb6Y4J+vmrBLQDEPloZBA285RBy2qBHLFiLR2D+uFchk5dvqHypwPG0fPUN76+HxQgFDRB7P2WPp2OvWmi+cEXk1rfOPh+RGuk8vPzjbNMwswzWDcAMXnPlKvd4hIIKJ7PsBrU2IvLm/RjRJZ+vnjNRPUNgy/39G0CBWjbci2ofuClUgtrdCIyWyejrqq0skWLy86qHHAPkTzqBTcH6WEetu0AxIPsbI+KijJJbE85tA8HcqTzldXX6h4YVXjsTZEzDo3PN6UbYi1fuen9ANouAS2aXPSD1j6TJCNpT+4b0Vp7xebRvyYVCJ32GfSt2fgen6hHDc1ae7OuTY++dgBiYvgClH2Ki4uDKvtsGbne1OzCsooeNBkRIPhMK3psAlVA8hS1/QAiFnvcM6LEgkr981Si4Zqy6tbtDQ4bzjdzmcVcWVFmZpZ+upCikKIeNY6safnNlizcOwCBKGJGGZa6PAU15NOT3SzqgR4pxay8q4+l5JXru/B0E5zeqnlqkvnbQeiK/AFE5pGy9PWHT0xGkjJ0ZkGluvpHTd2N/oNpKOOBgUHFXL6ssNQin115AcQLyCPxCI5jMMkzz9EAmg0INY1dOhqaqq9OJyvhZoUpBqJssXZFtdueNKEGForr1Ohjrt03Oz7YyFDT2Gkqqk7KO5702O8mB1RerujoGHUMjNrLXkcvgOAWZNJuXsAn8jR5Xm8e8AQd8fbthsYn58xmBLa4fHcu0+SpUeIkyEh7VHY8N4m1nPuN+u5shr4+naycwhpNzS5pfX3Tsa7ZTS6Lhs/DPgR+prWyurr7EXPuBRBXeBFgCNqoE7n5mwsWYGNj01i6+pZeRSUV6tj5TFOvv5z7QH87Fm1SHRFpxUYcKQjazVROSjo+Z/xujkTv1MLYREWY4Y8R3gOITjF11MfYMI5lc+pZ+yOQ63AT1dCrt6v1xS9X9P8/XNb/Hr2o/zseo29CU3SrrF7Ts4umWhqMHtxNg5UStheS+yFJxvz8jeETIB7mp5CUY3GgQNjtxhg4luw0a+t6rvPx+frspzhFJt1WZ9+IXr9Zd5xV2ItWJGRubs44xFRx2GrINX/NJ0A8DBexmQEZRScFE+X7G5zrAPX6zVuNjs+KbTKTMwsGNFwFtxtjoTIePnyomJgYs+N1L+5hfL8A4W4DCt4l+2eovOIG7IW22xNysz/oxiqzDZj5kNbAigHaXs0vQLzEy5h9xIzfYLHx0amHvRcRH+IeShh9ikQQc+IUe8Zc/mjYEyBeomObK2GT0fDwsOl4P+T9DfgxriNG0I0DjHXmO6FVIHPYFyAmBNfQKVqf8hDo7ye7HwOI3WMCAAuMFFAYRe+wSYFrgYBDfwEBZAdCD8GiWDfyR4D0KTfog064hh/jYHR2R+v70R8QQHQCSOSJ2FjOD0JgV/4xAcUdiCzvR4ib96EVRxD6+PMCaOWHgE4sccAA2QkgbugkVgWWJZeNNTgI29q+3D4CDLqFheR3GHANi8nWFqcq4cAAQQQmE+eRfz9g0yfHoaGhgBWf28DY/lgkNoDx+xKiAMpYOLyBKmTbj+fxwADZlxkUZU2gZ0WO3SFw10Hl3Pbp5Gj9G8bFZ0Ok0JHQRRo5GHCgxzFAvGyJY9XwldghC1hsIya3C1DBEugLNMalX/qnTMz+QkBB5CmhE2yjG+H2YFtQADG4FTl0ExYDcwp7k1NiFSGWe24QaycLMCyK5V7SxPyKEEeQewDo1nhBA2SJhih0AIEghKIH8JvgKFaV7AC1JzgLCwNoe3EXE8Q68hzWh/fIcmIU6A9RIj0M5/IvM4zrVBHbOfg6ugaQZ+dMHEsCINS7YX3iHwpzmFyylVQwSVgRTaNI0RfoNI6c8+E3pogPz2M1AcT2Q784fVjQvYD2pMvJ90MBCEKs6MEFgIX4sfr8XQRJKiaLBQwNDVVISIjCw8ONaJ49e1anT5/WmTNnzP8F4ZhS0OQ9RAouoj/6dVOU/IF3aAB5DmjFD/2AqOAi8C9ScAD/1AKn8OG7PYe7cB2wToQKpCl4HzGmvw/VPghAH2oyhzHOfwHaB9V/A1wv2IXPy43iAAAAAElFTkSuQmCC;" vertex="1" parent="M06deS8VlxeRnnj21vpx-50">
          <mxGeometry width="42" height="42" as="geometry" />
        </mxCell>
        <mxCell id="M06deS8VlxeRnnj21vpx-52" value="Reports" style="text;html=1;resizable=0;autosize=1;align=center;verticalAlign=middle;points=[];fillColor=none;strokeColor=none;rounded=0;dashed=1;" vertex="1" parent="M06deS8VlxeRnnj21vpx-50">
          <mxGeometry x="-8.75" y="36" width="60" height="24" as="geometry" />
        </mxCell>
        <mxCell id="M06deS8VlxeRnnj21vpx-53" value="" style="group" vertex="1" connectable="0" parent="M06deS8VlxeRnnj21vpx-1">
          <mxGeometry x="648" y="210" width="60.25" height="60" as="geometry" />
        </mxCell>
        <mxCell id="M06deS8VlxeRnnj21vpx-54" value="" style="shape=image;verticalLabelPosition=bottom;labelBackgroundColor=#ffffff;verticalAlign=top;aspect=fixed;imageAspect=0;image=data:image/png,iVBORw0KGgoAAAANSUhEUgAAAEgAAABICAYAAABV7bNHAAAQX0lEQVR4Ae2c6VNU17rG/SPv1/vh1L2nKjknOUlMojGJiREQNYAakEHmSUQUFBBERSZlFlDmSRCQeR4cGPKc+i1cpBu7odm9UU/VWVVdu/e01rue9c7v6j6i/7Y9ETiy591DuPnnn39qa2tr57O5uSl/H8/neI/Ph24fDCAmt76+rrW1NS0uLmp2dlbPnz9XR0eHWltb9eDBA/MpLy/XkydP1N7eroGBAc3MzGhhYUGrq6vm/Q8N0qEAxCRY/bdv32p5eVljY2Pq6upSbW2tioqKlJOTo8TERKWkpCg9PV3Z2dnvfdLS0sz9pKQkc+/27duqqakxgI6Ojpp+6R/uO8zmOkAAs7GxYSYAFxQWFio5OVmRkZG6dOmSrl27ZjgFLunu7tbg4KBevnypiYkJ8xkfHzeAch1Qm5qazPNXr17VhQsXFBERIUADaLhvaWnJjMe4h8FdrgEEcawm4lNfX6/Y2Fj98ccfio+PV0lJifr7+81kELHXr1/rzZs3RmQQOwD11EOccx0O4Tme5z1Era+vT6WlpaZfAGechoYGMy7vuN2CBghgmAg65enTp7px44YRH44ABXe4pT8YCxDoD7F9/Pixrl+/roSEBN28eVPPnj0zdEAPHOVGCwogiGCFe3p6lJeXp4sXLyozM9MABeu7RaS/iQLY/Py8UeqIHRzLwvT29hquc2N8xwBZcSorK1N0dLTRC+gVlLJdQSZw2A06GG9lZcVwLPqOhUKsAY/7wbQDA8SqQNDIyIiwLHFxcbp3754RJbjJjVVzMiEW49WrV4Yuq6Nu3bplRBG6nC7WgQBiEMB58eKFESUUJHoGrnFKgBMw9noHOlDoWD/oQ+SxiOguJzQGDBCds0KYVqxHamqqsSgfk2v8AQUXY/nQjegmuLylpcWRXgoIIDtgc3OzsVD4Mni5EPGpNhYUbodOLB1AARLcdRBO2hcgz4Ewp1iJqakp47t8quB40sXi4nwWFBQYTurs7DyQuO0LEE4bPgfyTEjAdyzDQVbBk+CP8R39A92oBawcMSDzCqT5BQgALPo4YVeuXDEy/SmLlb8JWylAJwESUjA9PW04yd879rpfgAAHeb1z547hnra2tkPTOduLQaiynQaxxLl5ZAy4Bm8fpc28ArG+fgGCUwDl8uXLJoo+TGu1vr6hmfkl9T5/qdn5ZQPUYfiYgESY8ujRI2OJieH285F8AgT3TE5OGrFCuaGU6dzNtr2imwaQ2pYeXUot1vGz6YrNLFVjW5/mF1cEcG439CdxI/o0IyPDOJZ7eds+AYJ7qqqqjMuO1sdcutlYgDdv1zU2MavUvHIdDUvVVyHJikwr0Ze/JeubkBRdK6rR5Myi3q5vGF3o5vKgtEm1kGmoqKjYk4veA4iVxXcgYQXKgcjpQcBDzyBGFXXt+v5Mmr4KSdGl7DLVD4zp6diM6vrHFJ1zT1/+lqRj4emqaujQwtKqNjbdic6hlQXC6SVUwj/CDQA0X80LIF6Ee0h/kvHDRXeLe5jg8sorNT8bUHx2mb49k6awhALlV7ep5cWUemaW1De3rO7pRT0ZnlRexROFxRfo+LkMw2XPuoe1svrKFf0EEyBWMAJmHy4i2PWlRrwAAkXQxCEkSgccQAum8T5iMjW7qJyiGsM134SlKrO0znBNz8yi+udX3vv0zi6ptm9UKYU1hptOnM/UrXv1mp1feid2wQsd0gEzYIgAy5cu8gIIs37//n2TC4Z7fCF6ELC2tv404tHQ1qdfonL0r9PJ+j21WNWdQ2qfmNvhGl8A9c2tmPsdE3OqeDao0IQCfXkqSWdib+hp97CWVtaCXjzMPvMEoLt37xrp2T3nHYBYabQ7igsfgVyK04Y4ra69VnvPsDLyK3TsbIZCYm8qt7xZzUOTRowQJ1/A7L62LXYLah6aUHZZg07F5OmH85nKvl1l3ALGccrlgIFoUURA35IX393XDkCgScqS5DqJL6e6ByW8vPpKJRVP9NPvWWbVY6+Xq7Z3RF1TCwGBshskzuEo9FNN97Bic8v1xa+J+vVCjh7WPjPjMa4TT4R5EoTbYHZ3CLIDEFqdxBdpS/TQbiQD4SZEamhsSheSC/WPkwkKT7ytivZBISZWCfuafKDX4Cb6aR+f1d3mHsNN//otSdHpdzQxvaANB9lD9A7SAkCIGY6jZzMAwWrEJrm5ucZ58qfRPV/09X1za8tYqePh6cZ8F9d3qHVkylinQEEI5DlAahudUUFNm9FruAv9Q+NaDzAA9aQdRsByU55i/lRlPNsOQJRTKOLhIPKCkwZAeMHfhqXqb99HKzQuX/db+9QxMe86B5U0dumX6Ov6+4lYfRe2DRDW8qAN5oCLyEASkE9MTnp1sQMQcsgD5Jod6593AB0/m6HjEdmGi/7xa6LibzxUXd+oKzroUc8LxeU91OcnE/RteIZOXso1vlL/8Lgx/16zC/AEkEiBxMXFq7unz+utIxZByro4h7ZS6fVUgCeWg378PUuJ+ZUqrG03XvI3YWkKicvXzapW4wSibFG6gYiTp/OIFfw1Jk/4UX9cvaey5l4lFVQLH2lgeMIxQEyP+l1yWoYir1d5zdYABMfgGFLexRfy5TB5veXnxAL0c+RVZZTUqn18znjJBdVt+v5cptEXURmlxqJ1Ts4LZ3AvkLjPczVdwzqXXKgvTiXpRNRVFdd3qmVkytzLKq031jJYgNDBWbk39D+heV6zO4KSsnEJsUkwaQ1PgDJLao31YpKYd7xiVv3L08kGrLyKFrW8mPQLEpzThO9zr1Ffhabo67BUI1oNAy/VObVgdBr9ugUQZe3iOyVKzMjV+MyC1ta3IwgDEFxD1hAzBzc5MfHA/j5A8zscQkjRNjqt/Ko2hSXcMhOOTC9RaVO3CVItN/EcQSviGZF2R0fPpOlsUqE5bx2dfqfs8YuW1TW16BpANuzIysrysmRHECeSSFQq2JtDPIZectL2AsiKEia6vn9Mybeq9dnJBB0NT1dmSZ0RGSuSxF9fh6YKBZ9S+EiNz8eNk2j74Og2QGBQWVlp/CG4yTYDEH4PAFVXV5u05GEC1De/YsQK5/FBW79C4wv0+S9X9GNUjlKLHunY71n67Od4nU8pUmXHkNEzcBeAHCZAuDZshsCSf1SA7CQNB0xv66a04sf6ISJbf/8xTieicpR1t15G10wu+LV2bnMQephUrE+AYC+Kax9CxCxA9ghHoXMw4Th9d5t6jFLfzTH2eXt0GyArYuSHvDgIhWyVdLA5oEB0kJ2g5xFxK3zcbnRSVefQe+Lk+az97jZAKGlSPe8pac9YBDOPLB6GFbMT83XsmJxXUV270UXkinw9s/ua2wARsJLmYZ8TzrJtxlHEchHJkxdxy1Hc9oP+MvO7J+h5/ikAROUGcOAijJZtJhaDY1BQboUaeNL/aQBRmiZYb2xsNEziBRBmnZ0PAMTen2CD1f80gJg/m0ypuJLV8MwJ7UTzJK3ZbIQvFEy6o+lpv36KyDY+zbOXswEpXCci1ju7bGK9jDu1IjgmFnNSaAQcsoh1dXXb6Y4J+vmrBLQDEPloZBA285RBy2qBHLFiLR2D+uFchk5dvqHypwPG0fPUN76+HxQgFDRB7P2WPp2OvWmi+cEXk1rfOPh+RGuk8vPzjbNMwswzWDcAMXnPlKvd4hIIKJ7PsBrU2IvLm/RjRJZ+vnjNRPUNgy/39G0CBWjbci2ofuClUgtrdCIyWyejrqq0skWLy86qHHAPkTzqBTcH6WEetu0AxIPsbI+KijJJbE85tA8HcqTzldXX6h4YVXjsTZEzDo3PN6UbYi1fuen9ANouAS2aXPSD1j6TJCNpT+4b0Vp7xebRvyYVCJ32GfSt2fgen6hHDc1ae7OuTY++dgBiYvgClH2Ki4uDKvtsGbne1OzCsooeNBkRIPhMK3psAlVA8hS1/QAiFnvcM6LEgkr981Si4Zqy6tbtDQ4bzjdzmcVcWVFmZpZ+upCikKIeNY6safnNlizcOwCBKGJGGZa6PAU15NOT3SzqgR4pxay8q4+l5JXru/B0E5zeqnlqkvnbQeiK/AFE5pGy9PWHT0xGkjJ0ZkGluvpHTd2N/oNpKOOBgUHFXL6ssNQin115AcQLyCPxCI5jMMkzz9EAmg0INY1dOhqaqq9OJyvhZoUpBqJssXZFtdueNKEGForr1Ohjrt03Oz7YyFDT2Gkqqk7KO5702O8mB1RerujoGHUMjNrLXkcvgOAWZNJuXsAn8jR5Xm8e8AQd8fbthsYn58xmBLa4fHcu0+SpUeIkyEh7VHY8N4m1nPuN+u5shr4+naycwhpNzS5pfX3Tsa7ZTS6Lhs/DPgR+prWyurr7EXPuBRBXeBFgCNqoE7n5mwsWYGNj01i6+pZeRSUV6tj5TFOvv5z7QH87Fm1SHRFpxUYcKQjazVROSjo+Z/xujkTv1MLYREWY4Y8R3gOITjF11MfYMI5lc+pZ+yOQ63AT1dCrt6v1xS9X9P8/XNb/Hr2o/zseo29CU3SrrF7Ts4umWhqMHtxNg5UStheS+yFJxvz8jeETIB7mp5CUY3GgQNjtxhg4luw0a+t6rvPx+frspzhFJt1WZ9+IXr9Zd5xV2ItWJGRubs44xFRx2GrINX/NJ0A8DBexmQEZRScFE+X7G5zrAPX6zVuNjs+KbTKTMwsGNFwFtxtjoTIePnyomJgYs+N1L+5hfL8A4W4DCt4l+2eovOIG7IW22xNysz/oxiqzDZj5kNbAigHaXs0vQLzEy5h9xIzfYLHx0amHvRcRH+IeShh9ikQQc+IUe8Zc/mjYEyBeomObK2GT0fDwsOl4P+T9DfgxriNG0I0DjHXmO6FVIHPYFyAmBNfQKVqf8hDo7ye7HwOI3WMCAAuMFFAYRe+wSYFrgYBDfwEBZAdCD8GiWDfyR4D0KTfog064hh/jYHR2R+v70R8QQHQCSOSJ2FjOD0JgV/4xAcUdiCzvR4ib96EVRxD6+PMCaOWHgE4sccAA2QkgbugkVgWWJZeNNTgI29q+3D4CDLqFheR3GHANi8nWFqcq4cAAQQQmE+eRfz9g0yfHoaGhgBWf28DY/lgkNoDx+xKiAMpYOLyBKmTbj+fxwADZlxkUZU2gZ0WO3SFw10Hl3Pbp5Gj9G8bFZ0Ok0JHQRRo5GHCgxzFAvGyJY9XwldghC1hsIya3C1DBEugLNMalX/qnTMz+QkBB5CmhE2yjG+H2YFtQADG4FTl0ExYDcwp7k1NiFSGWe24QaycLMCyK5V7SxPyKEEeQewDo1nhBA2SJhih0AIEghKIH8JvgKFaV7AC1JzgLCwNoe3EXE8Q68hzWh/fIcmIU6A9RIj0M5/IvM4zrVBHbOfg6ugaQZ+dMHEsCINS7YX3iHwpzmFyylVQwSVgRTaNI0RfoNI6c8+E3pogPz2M1AcT2Q784fVjQvYD2pMvJ90MBCEKs6MEFgIX4sfr8XQRJKiaLBQwNDVVISIjCw8ONaJ49e1anT5/WmTNnzP8F4ZhS0OQ9RAouoj/6dVOU/IF3aAB5DmjFD/2AqOAi8C9ScAD/1AKn8OG7PYe7cB2wToQKpCl4HzGmvw/VPghAH2oyhzHOfwHaB9V/A1wv2IXPy43iAAAAAElFTkSuQmCC;" vertex="1" parent="M06deS8VlxeRnnj21vpx-53">
          <mxGeometry width="42" height="42" as="geometry" />
        </mxCell>
        <mxCell id="M06deS8VlxeRnnj21vpx-55" value="Subscriber" style="text;html=1;resizable=0;autosize=1;align=center;verticalAlign=middle;points=[];fillColor=none;strokeColor=none;rounded=0;dashed=1;" vertex="1" parent="M06deS8VlxeRnnj21vpx-53">
          <mxGeometry x="-14.75" y="36" width="72" height="24" as="geometry" />
        </mxCell>
        <mxCell id="M06deS8VlxeRnnj21vpx-56" value="" style="group" vertex="1" connectable="0" parent="M06deS8VlxeRnnj21vpx-1">
          <mxGeometry x="648" y="282" width="60.25" height="60" as="geometry" />
        </mxCell>
        <mxCell id="M06deS8VlxeRnnj21vpx-57" value="" style="shape=image;verticalLabelPosition=bottom;labelBackgroundColor=#ffffff;verticalAlign=top;aspect=fixed;imageAspect=0;image=data:image/png,iVBORw0KGgoAAAANSUhEUgAAAEgAAABICAYAAABV7bNHAAAQX0lEQVR4Ae2c6VNU17rG/SPv1/vh1L2nKjknOUlMojGJiREQNYAakEHmSUQUFBBERSZlFlDmSRCQeR4cGPKc+i1cpBu7odm9UU/VWVVdu/e01rue9c7v6j6i/7Y9ETiy591DuPnnn39qa2tr57O5uSl/H8/neI/Ph24fDCAmt76+rrW1NS0uLmp2dlbPnz9XR0eHWltb9eDBA/MpLy/XkydP1N7eroGBAc3MzGhhYUGrq6vm/Q8N0qEAxCRY/bdv32p5eVljY2Pq6upSbW2tioqKlJOTo8TERKWkpCg9PV3Z2dnvfdLS0sz9pKQkc+/27duqqakxgI6Ojpp+6R/uO8zmOkAAs7GxYSYAFxQWFio5OVmRkZG6dOmSrl27ZjgFLunu7tbg4KBevnypiYkJ8xkfHzeAch1Qm5qazPNXr17VhQsXFBERIUADaLhvaWnJjMe4h8FdrgEEcawm4lNfX6/Y2Fj98ccfio+PV0lJifr7+81kELHXr1/rzZs3RmQQOwD11EOccx0O4Tme5z1Era+vT6WlpaZfAGechoYGMy7vuN2CBghgmAg65enTp7px44YRH44ABXe4pT8YCxDoD7F9/Pixrl+/roSEBN28eVPPnj0zdEAPHOVGCwogiGCFe3p6lJeXp4sXLyozM9MABeu7RaS/iQLY/Py8UeqIHRzLwvT29hquc2N8xwBZcSorK1N0dLTRC+gVlLJdQSZw2A06GG9lZcVwLPqOhUKsAY/7wbQDA8SqQNDIyIiwLHFxcbp3754RJbjJjVVzMiEW49WrV4Yuq6Nu3bplRBG6nC7WgQBiEMB58eKFESUUJHoGrnFKgBMw9noHOlDoWD/oQ+SxiOguJzQGDBCds0KYVqxHamqqsSgfk2v8AQUXY/nQjegmuLylpcWRXgoIIDtgc3OzsVD4Mni5EPGpNhYUbodOLB1AARLcdRBO2hcgz4Ewp1iJqakp47t8quB40sXi4nwWFBQYTurs7DyQuO0LEE4bPgfyTEjAdyzDQVbBk+CP8R39A92oBawcMSDzCqT5BQgALPo4YVeuXDEy/SmLlb8JWylAJwESUjA9PW04yd879rpfgAAHeb1z547hnra2tkPTOduLQaiynQaxxLl5ZAy4Bm8fpc28ArG+fgGCUwDl8uXLJoo+TGu1vr6hmfkl9T5/qdn5ZQPUYfiYgESY8ujRI2OJieH285F8AgT3TE5OGrFCuaGU6dzNtr2imwaQ2pYeXUot1vGz6YrNLFVjW5/mF1cEcG439CdxI/o0IyPDOJZ7eds+AYJ7qqqqjMuO1sdcutlYgDdv1zU2MavUvHIdDUvVVyHJikwr0Ze/JeubkBRdK6rR5Myi3q5vGF3o5vKgtEm1kGmoqKjYk4veA4iVxXcgYQXKgcjpQcBDzyBGFXXt+v5Mmr4KSdGl7DLVD4zp6diM6vrHFJ1zT1/+lqRj4emqaujQwtKqNjbdic6hlQXC6SVUwj/CDQA0X80LIF6Ee0h/kvHDRXeLe5jg8sorNT8bUHx2mb49k6awhALlV7ep5cWUemaW1De3rO7pRT0ZnlRexROFxRfo+LkMw2XPuoe1svrKFf0EEyBWMAJmHy4i2PWlRrwAAkXQxCEkSgccQAum8T5iMjW7qJyiGsM134SlKrO0znBNz8yi+udX3vv0zi6ptm9UKYU1hptOnM/UrXv1mp1feid2wQsd0gEzYIgAy5cu8gIIs37//n2TC4Z7fCF6ELC2tv404tHQ1qdfonL0r9PJ+j21WNWdQ2qfmNvhGl8A9c2tmPsdE3OqeDao0IQCfXkqSWdib+hp97CWVtaCXjzMPvMEoLt37xrp2T3nHYBYabQ7igsfgVyK04Y4ra69VnvPsDLyK3TsbIZCYm8qt7xZzUOTRowQJ1/A7L62LXYLah6aUHZZg07F5OmH85nKvl1l3ALGccrlgIFoUURA35IX393XDkCgScqS5DqJL6e6ByW8vPpKJRVP9NPvWWbVY6+Xq7Z3RF1TCwGBshskzuEo9FNN97Bic8v1xa+J+vVCjh7WPjPjMa4TT4R5EoTbYHZ3CLIDEFqdxBdpS/TQbiQD4SZEamhsSheSC/WPkwkKT7ytivZBISZWCfuafKDX4Cb6aR+f1d3mHsNN//otSdHpdzQxvaANB9lD9A7SAkCIGY6jZzMAwWrEJrm5ucZ58qfRPV/09X1za8tYqePh6cZ8F9d3qHVkylinQEEI5DlAahudUUFNm9FruAv9Q+NaDzAA9aQdRsByU55i/lRlPNsOQJRTKOLhIPKCkwZAeMHfhqXqb99HKzQuX/db+9QxMe86B5U0dumX6Ov6+4lYfRe2DRDW8qAN5oCLyEASkE9MTnp1sQMQcsgD5Jod6593AB0/m6HjEdmGi/7xa6LibzxUXd+oKzroUc8LxeU91OcnE/RteIZOXso1vlL/8Lgx/16zC/AEkEiBxMXFq7unz+utIxZByro4h7ZS6fVUgCeWg378PUuJ+ZUqrG03XvI3YWkKicvXzapW4wSibFG6gYiTp/OIFfw1Jk/4UX9cvaey5l4lFVQLH2lgeMIxQEyP+l1yWoYir1d5zdYABMfgGFLexRfy5TB5veXnxAL0c+RVZZTUqn18znjJBdVt+v5cptEXURmlxqJ1Ts4LZ3AvkLjPczVdwzqXXKgvTiXpRNRVFdd3qmVkytzLKq031jJYgNDBWbk39D+heV6zO4KSsnEJsUkwaQ1PgDJLao31YpKYd7xiVv3L08kGrLyKFrW8mPQLEpzThO9zr1Ffhabo67BUI1oNAy/VObVgdBr9ugUQZe3iOyVKzMjV+MyC1ta3IwgDEFxD1hAzBzc5MfHA/j5A8zscQkjRNjqt/Ko2hSXcMhOOTC9RaVO3CVItN/EcQSviGZF2R0fPpOlsUqE5bx2dfqfs8YuW1TW16BpANuzIysrysmRHECeSSFQq2JtDPIZectL2AsiKEia6vn9Mybeq9dnJBB0NT1dmSZ0RGSuSxF9fh6YKBZ9S+EiNz8eNk2j74Og2QGBQWVlp/CG4yTYDEH4PAFVXV5u05GEC1De/YsQK5/FBW79C4wv0+S9X9GNUjlKLHunY71n67Od4nU8pUmXHkNEzcBeAHCZAuDZshsCSf1SA7CQNB0xv66a04sf6ISJbf/8xTieicpR1t15G10wu+LV2bnMQephUrE+AYC+Kax9CxCxA9ghHoXMw4Th9d5t6jFLfzTH2eXt0GyArYuSHvDgIhWyVdLA5oEB0kJ2g5xFxK3zcbnRSVefQe+Lk+az97jZAKGlSPe8pac9YBDOPLB6GFbMT83XsmJxXUV270UXkinw9s/ua2wARsJLmYZ8TzrJtxlHEchHJkxdxy1Hc9oP+MvO7J+h5/ikAROUGcOAijJZtJhaDY1BQboUaeNL/aQBRmiZYb2xsNEziBRBmnZ0PAMTen2CD1f80gJg/m0ypuJLV8MwJ7UTzJK3ZbIQvFEy6o+lpv36KyDY+zbOXswEpXCci1ju7bGK9jDu1IjgmFnNSaAQcsoh1dXXb6Y4J+vmrBLQDEPloZBA285RBy2qBHLFiLR2D+uFchk5dvqHypwPG0fPUN76+HxQgFDRB7P2WPp2OvWmi+cEXk1rfOPh+RGuk8vPzjbNMwswzWDcAMXnPlKvd4hIIKJ7PsBrU2IvLm/RjRJZ+vnjNRPUNgy/39G0CBWjbci2ofuClUgtrdCIyWyejrqq0skWLy86qHHAPkTzqBTcH6WEetu0AxIPsbI+KijJJbE85tA8HcqTzldXX6h4YVXjsTZEzDo3PN6UbYi1fuen9ANouAS2aXPSD1j6TJCNpT+4b0Vp7xebRvyYVCJ32GfSt2fgen6hHDc1ae7OuTY++dgBiYvgClH2Ki4uDKvtsGbne1OzCsooeNBkRIPhMK3psAlVA8hS1/QAiFnvcM6LEgkr981Si4Zqy6tbtDQ4bzjdzmcVcWVFmZpZ+upCikKIeNY6safnNlizcOwCBKGJGGZa6PAU15NOT3SzqgR4pxay8q4+l5JXru/B0E5zeqnlqkvnbQeiK/AFE5pGy9PWHT0xGkjJ0ZkGluvpHTd2N/oNpKOOBgUHFXL6ssNQin115AcQLyCPxCI5jMMkzz9EAmg0INY1dOhqaqq9OJyvhZoUpBqJssXZFtdueNKEGForr1Ohjrt03Oz7YyFDT2Gkqqk7KO5702O8mB1RerujoGHUMjNrLXkcvgOAWZNJuXsAn8jR5Xm8e8AQd8fbthsYn58xmBLa4fHcu0+SpUeIkyEh7VHY8N4m1nPuN+u5shr4+naycwhpNzS5pfX3Tsa7ZTS6Lhs/DPgR+prWyurr7EXPuBRBXeBFgCNqoE7n5mwsWYGNj01i6+pZeRSUV6tj5TFOvv5z7QH87Fm1SHRFpxUYcKQjazVROSjo+Z/xujkTv1MLYREWY4Y8R3gOITjF11MfYMI5lc+pZ+yOQ63AT1dCrt6v1xS9X9P8/XNb/Hr2o/zseo29CU3SrrF7Ts4umWhqMHtxNg5UStheS+yFJxvz8jeETIB7mp5CUY3GgQNjtxhg4luw0a+t6rvPx+frspzhFJt1WZ9+IXr9Zd5xV2ItWJGRubs44xFRx2GrINX/NJ0A8DBexmQEZRScFE+X7G5zrAPX6zVuNjs+KbTKTMwsGNFwFtxtjoTIePnyomJgYs+N1L+5hfL8A4W4DCt4l+2eovOIG7IW22xNysz/oxiqzDZj5kNbAigHaXs0vQLzEy5h9xIzfYLHx0amHvRcRH+IeShh9ikQQc+IUe8Zc/mjYEyBeomObK2GT0fDwsOl4P+T9DfgxriNG0I0DjHXmO6FVIHPYFyAmBNfQKVqf8hDo7ye7HwOI3WMCAAuMFFAYRe+wSYFrgYBDfwEBZAdCD8GiWDfyR4D0KTfog064hh/jYHR2R+v70R8QQHQCSOSJ2FjOD0JgV/4xAcUdiCzvR4ib96EVRxD6+PMCaOWHgE4sccAA2QkgbugkVgWWJZeNNTgI29q+3D4CDLqFheR3GHANi8nWFqcq4cAAQQQmE+eRfz9g0yfHoaGhgBWf28DY/lgkNoDx+xKiAMpYOLyBKmTbj+fxwADZlxkUZU2gZ0WO3SFw10Hl3Pbp5Gj9G8bFZ0Ok0JHQRRo5GHCgxzFAvGyJY9XwldghC1hsIya3C1DBEugLNMalX/qnTMz+QkBB5CmhE2yjG+H2YFtQADG4FTl0ExYDcwp7k1NiFSGWe24QaycLMCyK5V7SxPyKEEeQewDo1nhBA2SJhih0AIEghKIH8JvgKFaV7AC1JzgLCwNoe3EXE8Q68hzWh/fIcmIU6A9RIj0M5/IvM4zrVBHbOfg6ugaQZ+dMHEsCINS7YX3iHwpzmFyylVQwSVgRTaNI0RfoNI6c8+E3pogPz2M1AcT2Q784fVjQvYD2pMvJ90MBCEKs6MEFgIX4sfr8XQRJKiaLBQwNDVVISIjCw8ONaJ49e1anT5/WmTNnzP8F4ZhS0OQ9RAouoj/6dVOU/IF3aAB5DmjFD/2AqOAi8C9ScAD/1AKn8OG7PYe7cB2wToQKpCl4HzGmvw/VPghAH2oyhzHOfwHaB9V/A1wv2IXPy43iAAAAAElFTkSuQmCC;" vertex="1" parent="M06deS8VlxeRnnj21vpx-56">
          <mxGeometry width="42" height="42" as="geometry" />
        </mxCell>
        <mxCell id="M06deS8VlxeRnnj21vpx-58" value="Publisher" style="text;html=1;resizable=0;autosize=1;align=center;verticalAlign=middle;points=[];fillColor=none;strokeColor=none;rounded=0;dashed=1;" vertex="1" parent="M06deS8VlxeRnnj21vpx-56">
          <mxGeometry x="-11.75" y="36" width="66" height="24" as="geometry" />
        </mxCell>
        <mxCell id="M06deS8VlxeRnnj21vpx-59" value="" style="group" vertex="1" connectable="0" parent="M06deS8VlxeRnnj21vpx-1">
          <mxGeometry x="648" y="354" width="60.25" height="60" as="geometry" />
        </mxCell>
        <mxCell id="M06deS8VlxeRnnj21vpx-60" value="" style="shape=image;verticalLabelPosition=bottom;labelBackgroundColor=#ffffff;verticalAlign=top;aspect=fixed;imageAspect=0;image=data:image/png,iVBORw0KGgoAAAANSUhEUgAAAEgAAABICAYAAABV7bNHAAAQX0lEQVR4Ae2c6VNU17rG/SPv1/vh1L2nKjknOUlMojGJiREQNYAakEHmSUQUFBBERSZlFlDmSRCQeR4cGPKc+i1cpBu7odm9UU/VWVVdu/e01rue9c7v6j6i/7Y9ETiy591DuPnnn39qa2tr57O5uSl/H8/neI/Ph24fDCAmt76+rrW1NS0uLmp2dlbPnz9XR0eHWltb9eDBA/MpLy/XkydP1N7eroGBAc3MzGhhYUGrq6vm/Q8N0qEAxCRY/bdv32p5eVljY2Pq6upSbW2tioqKlJOTo8TERKWkpCg9PV3Z2dnvfdLS0sz9pKQkc+/27duqqakxgI6Ojpp+6R/uO8zmOkAAs7GxYSYAFxQWFio5OVmRkZG6dOmSrl27ZjgFLunu7tbg4KBevnypiYkJ8xkfHzeAch1Qm5qazPNXr17VhQsXFBERIUADaLhvaWnJjMe4h8FdrgEEcawm4lNfX6/Y2Fj98ccfio+PV0lJifr7+81kELHXr1/rzZs3RmQQOwD11EOccx0O4Tme5z1Era+vT6WlpaZfAGechoYGMy7vuN2CBghgmAg65enTp7px44YRH44ABXe4pT8YCxDoD7F9/Pixrl+/roSEBN28eVPPnj0zdEAPHOVGCwogiGCFe3p6lJeXp4sXLyozM9MABeu7RaS/iQLY/Py8UeqIHRzLwvT29hquc2N8xwBZcSorK1N0dLTRC+gVlLJdQSZw2A06GG9lZcVwLPqOhUKsAY/7wbQDA8SqQNDIyIiwLHFxcbp3754RJbjJjVVzMiEW49WrV4Yuq6Nu3bplRBG6nC7WgQBiEMB58eKFESUUJHoGrnFKgBMw9noHOlDoWD/oQ+SxiOguJzQGDBCds0KYVqxHamqqsSgfk2v8AQUXY/nQjegmuLylpcWRXgoIIDtgc3OzsVD4Mni5EPGpNhYUbodOLB1AARLcdRBO2hcgz4Ewp1iJqakp47t8quB40sXi4nwWFBQYTurs7DyQuO0LEE4bPgfyTEjAdyzDQVbBk+CP8R39A92oBawcMSDzCqT5BQgALPo4YVeuXDEy/SmLlb8JWylAJwESUjA9PW04yd879rpfgAAHeb1z547hnra2tkPTOduLQaiynQaxxLl5ZAy4Bm8fpc28ArG+fgGCUwDl8uXLJoo+TGu1vr6hmfkl9T5/qdn5ZQPUYfiYgESY8ujRI2OJieH285F8AgT3TE5OGrFCuaGU6dzNtr2imwaQ2pYeXUot1vGz6YrNLFVjW5/mF1cEcG439CdxI/o0IyPDOJZ7eds+AYJ7qqqqjMuO1sdcutlYgDdv1zU2MavUvHIdDUvVVyHJikwr0Ze/JeubkBRdK6rR5Myi3q5vGF3o5vKgtEm1kGmoqKjYk4veA4iVxXcgYQXKgcjpQcBDzyBGFXXt+v5Mmr4KSdGl7DLVD4zp6diM6vrHFJ1zT1/+lqRj4emqaujQwtKqNjbdic6hlQXC6SVUwj/CDQA0X80LIF6Ee0h/kvHDRXeLe5jg8sorNT8bUHx2mb49k6awhALlV7ep5cWUemaW1De3rO7pRT0ZnlRexROFxRfo+LkMw2XPuoe1svrKFf0EEyBWMAJmHy4i2PWlRrwAAkXQxCEkSgccQAum8T5iMjW7qJyiGsM134SlKrO0znBNz8yi+udX3vv0zi6ptm9UKYU1hptOnM/UrXv1mp1feid2wQsd0gEzYIgAy5cu8gIIs37//n2TC4Z7fCF6ELC2tv404tHQ1qdfonL0r9PJ+j21WNWdQ2qfmNvhGl8A9c2tmPsdE3OqeDao0IQCfXkqSWdib+hp97CWVtaCXjzMPvMEoLt37xrp2T3nHYBYabQ7igsfgVyK04Y4ra69VnvPsDLyK3TsbIZCYm8qt7xZzUOTRowQJ1/A7L62LXYLah6aUHZZg07F5OmH85nKvl1l3ALGccrlgIFoUURA35IX393XDkCgScqS5DqJL6e6ByW8vPpKJRVP9NPvWWbVY6+Xq7Z3RF1TCwGBshskzuEo9FNN97Bic8v1xa+J+vVCjh7WPjPjMa4TT4R5EoTbYHZ3CLIDEFqdxBdpS/TQbiQD4SZEamhsSheSC/WPkwkKT7ytivZBISZWCfuafKDX4Cb6aR+f1d3mHsNN//otSdHpdzQxvaANB9lD9A7SAkCIGY6jZzMAwWrEJrm5ucZ58qfRPV/09X1za8tYqePh6cZ8F9d3qHVkylinQEEI5DlAahudUUFNm9FruAv9Q+NaDzAA9aQdRsByU55i/lRlPNsOQJRTKOLhIPKCkwZAeMHfhqXqb99HKzQuX/db+9QxMe86B5U0dumX6Ov6+4lYfRe2DRDW8qAN5oCLyEASkE9MTnp1sQMQcsgD5Jod6593AB0/m6HjEdmGi/7xa6LibzxUXd+oKzroUc8LxeU91OcnE/RteIZOXso1vlL/8Lgx/16zC/AEkEiBxMXFq7unz+utIxZByro4h7ZS6fVUgCeWg378PUuJ+ZUqrG03XvI3YWkKicvXzapW4wSibFG6gYiTp/OIFfw1Jk/4UX9cvaey5l4lFVQLH2lgeMIxQEyP+l1yWoYir1d5zdYABMfgGFLexRfy5TB5veXnxAL0c+RVZZTUqn18znjJBdVt+v5cptEXURmlxqJ1Ts4LZ3AvkLjPczVdwzqXXKgvTiXpRNRVFdd3qmVkytzLKq031jJYgNDBWbk39D+heV6zO4KSsnEJsUkwaQ1PgDJLao31YpKYd7xiVv3L08kGrLyKFrW8mPQLEpzThO9zr1Ffhabo67BUI1oNAy/VObVgdBr9ugUQZe3iOyVKzMjV+MyC1ta3IwgDEFxD1hAzBzc5MfHA/j5A8zscQkjRNjqt/Ko2hSXcMhOOTC9RaVO3CVItN/EcQSviGZF2R0fPpOlsUqE5bx2dfqfs8YuW1TW16BpANuzIysrysmRHECeSSFQq2JtDPIZectL2AsiKEia6vn9Mybeq9dnJBB0NT1dmSZ0RGSuSxF9fh6YKBZ9S+EiNz8eNk2j74Og2QGBQWVlp/CG4yTYDEH4PAFVXV5u05GEC1De/YsQK5/FBW79C4wv0+S9X9GNUjlKLHunY71n67Od4nU8pUmXHkNEzcBeAHCZAuDZshsCSf1SA7CQNB0xv66a04sf6ISJbf/8xTieicpR1t15G10wu+LV2bnMQephUrE+AYC+Kax9CxCxA9ghHoXMw4Th9d5t6jFLfzTH2eXt0GyArYuSHvDgIhWyVdLA5oEB0kJ2g5xFxK3zcbnRSVefQe+Lk+az97jZAKGlSPe8pac9YBDOPLB6GFbMT83XsmJxXUV270UXkinw9s/ua2wARsJLmYZ8TzrJtxlHEchHJkxdxy1Hc9oP+MvO7J+h5/ikAROUGcOAijJZtJhaDY1BQboUaeNL/aQBRmiZYb2xsNEziBRBmnZ0PAMTen2CD1f80gJg/m0ypuJLV8MwJ7UTzJK3ZbIQvFEy6o+lpv36KyDY+zbOXswEpXCci1ju7bGK9jDu1IjgmFnNSaAQcsoh1dXXb6Y4J+vmrBLQDEPloZBA285RBy2qBHLFiLR2D+uFchk5dvqHypwPG0fPUN76+HxQgFDRB7P2WPp2OvWmi+cEXk1rfOPh+RGuk8vPzjbNMwswzWDcAMXnPlKvd4hIIKJ7PsBrU2IvLm/RjRJZ+vnjNRPUNgy/39G0CBWjbci2ofuClUgtrdCIyWyejrqq0skWLy86qHHAPkTzqBTcH6WEetu0AxIPsbI+KijJJbE85tA8HcqTzldXX6h4YVXjsTZEzDo3PN6UbYi1fuen9ANouAS2aXPSD1j6TJCNpT+4b0Vp7xebRvyYVCJ32GfSt2fgen6hHDc1ae7OuTY++dgBiYvgClH2Ki4uDKvtsGbne1OzCsooeNBkRIPhMK3psAlVA8hS1/QAiFnvcM6LEgkr981Si4Zqy6tbtDQ4bzjdzmcVcWVFmZpZ+upCikKIeNY6safnNlizcOwCBKGJGGZa6PAU15NOT3SzqgR4pxay8q4+l5JXru/B0E5zeqnlqkvnbQeiK/AFE5pGy9PWHT0xGkjJ0ZkGluvpHTd2N/oNpKOOBgUHFXL6ssNQin115AcQLyCPxCI5jMMkzz9EAmg0INY1dOhqaqq9OJyvhZoUpBqJssXZFtdueNKEGForr1Ohjrt03Oz7YyFDT2Gkqqk7KO5702O8mB1RerujoGHUMjNrLXkcvgOAWZNJuXsAn8jR5Xm8e8AQd8fbthsYn58xmBLa4fHcu0+SpUeIkyEh7VHY8N4m1nPuN+u5shr4+naycwhpNzS5pfX3Tsa7ZTS6Lhs/DPgR+prWyurr7EXPuBRBXeBFgCNqoE7n5mwsWYGNj01i6+pZeRSUV6tj5TFOvv5z7QH87Fm1SHRFpxUYcKQjazVROSjo+Z/xujkTv1MLYREWY4Y8R3gOITjF11MfYMI5lc+pZ+yOQ63AT1dCrt6v1xS9X9P8/XNb/Hr2o/zseo29CU3SrrF7Ts4umWhqMHtxNg5UStheS+yFJxvz8jeETIB7mp5CUY3GgQNjtxhg4luw0a+t6rvPx+frspzhFJt1WZ9+IXr9Zd5xV2ItWJGRubs44xFRx2GrINX/NJ0A8DBexmQEZRScFE+X7G5zrAPX6zVuNjs+KbTKTMwsGNFwFtxtjoTIePnyomJgYs+N1L+5hfL8A4W4DCt4l+2eovOIG7IW22xNysz/oxiqzDZj5kNbAigHaXs0vQLzEy5h9xIzfYLHx0amHvRcRH+IeShh9ikQQc+IUe8Zc/mjYEyBeomObK2GT0fDwsOl4P+T9DfgxriNG0I0DjHXmO6FVIHPYFyAmBNfQKVqf8hDo7ye7HwOI3WMCAAuMFFAYRe+wSYFrgYBDfwEBZAdCD8GiWDfyR4D0KTfog064hh/jYHR2R+v70R8QQHQCSOSJ2FjOD0JgV/4xAcUdiCzvR4ib96EVRxD6+PMCaOWHgE4sccAA2QkgbugkVgWWJZeNNTgI29q+3D4CDLqFheR3GHANi8nWFqcq4cAAQQQmE+eRfz9g0yfHoaGhgBWf28DY/lgkNoDx+xKiAMpYOLyBKmTbj+fxwADZlxkUZU2gZ0WO3SFw10Hl3Pbp5Gj9G8bFZ0Ok0JHQRRo5GHCgxzFAvGyJY9XwldghC1hsIya3C1DBEugLNMalX/qnTMz+QkBB5CmhE2yjG+H2YFtQADG4FTl0ExYDcwp7k1NiFSGWe24QaycLMCyK5V7SxPyKEEeQewDo1nhBA2SJhih0AIEghKIH8JvgKFaV7AC1JzgLCwNoe3EXE8Q68hzWh/fIcmIU6A9RIj0M5/IvM4zrVBHbOfg6ugaQZ+dMHEsCINS7YX3iHwpzmFyylVQwSVgRTaNI0RfoNI6c8+E3pogPz2M1AcT2Q784fVjQvYD2pMvJ90MBCEKs6MEFgIX4sfr8XQRJKiaLBQwNDVVISIjCw8ONaJ49e1anT5/WmTNnzP8F4ZhS0OQ9RAouoj/6dVOU/IF3aAB5DmjFD/2AqOAi8C9ScAD/1AKn8OG7PYe7cB2wToQKpCl4HzGmvw/VPghAH2oyhzHOfwHaB9V/A1wv2IXPy43iAAAAAElFTkSuQmCC;" vertex="1" parent="M06deS8VlxeRnnj21vpx-59">
          <mxGeometry width="42" height="42" as="geometry" />
        </mxCell>
        <mxCell id="M06deS8VlxeRnnj21vpx-61" value="TPI" style="text;html=1;resizable=0;autosize=1;align=center;verticalAlign=middle;points=[];fillColor=none;strokeColor=none;rounded=0;dashed=1;" vertex="1" parent="M06deS8VlxeRnnj21vpx-59">
          <mxGeometry x="3.25" y="36" width="36" height="24" as="geometry" />
        </mxCell>
        <mxCell id="M06deS8VlxeRnnj21vpx-62" value="" style="group" vertex="1" connectable="0" parent="M06deS8VlxeRnnj21vpx-1">
          <mxGeometry x="648" y="426" width="60.25" height="60" as="geometry" />
        </mxCell>
        <mxCell id="M06deS8VlxeRnnj21vpx-63" value="" style="shape=image;verticalLabelPosition=bottom;labelBackgroundColor=#ffffff;verticalAlign=top;aspect=fixed;imageAspect=0;image=data:image/png,iVBORw0KGgoAAAANSUhEUgAAAEgAAABICAYAAABV7bNHAAAQX0lEQVR4Ae2c6VNU17rG/SPv1/vh1L2nKjknOUlMojGJiREQNYAakEHmSUQUFBBERSZlFlDmSRCQeR4cGPKc+i1cpBu7odm9UU/VWVVdu/e01rue9c7v6j6i/7Y9ETiy591DuPnnn39qa2tr57O5uSl/H8/neI/Ph24fDCAmt76+rrW1NS0uLmp2dlbPnz9XR0eHWltb9eDBA/MpLy/XkydP1N7eroGBAc3MzGhhYUGrq6vm/Q8N0qEAxCRY/bdv32p5eVljY2Pq6upSbW2tioqKlJOTo8TERKWkpCg9PV3Z2dnvfdLS0sz9pKQkc+/27duqqakxgI6Ojpp+6R/uO8zmOkAAs7GxYSYAFxQWFio5OVmRkZG6dOmSrl27ZjgFLunu7tbg4KBevnypiYkJ8xkfHzeAch1Qm5qazPNXr17VhQsXFBERIUADaLhvaWnJjMe4h8FdrgEEcawm4lNfX6/Y2Fj98ccfio+PV0lJifr7+81kELHXr1/rzZs3RmQQOwD11EOccx0O4Tme5z1Era+vT6WlpaZfAGechoYGMy7vuN2CBghgmAg65enTp7px44YRH44ABXe4pT8YCxDoD7F9/Pixrl+/roSEBN28eVPPnj0zdEAPHOVGCwogiGCFe3p6lJeXp4sXLyozM9MABeu7RaS/iQLY/Py8UeqIHRzLwvT29hquc2N8xwBZcSorK1N0dLTRC+gVlLJdQSZw2A06GG9lZcVwLPqOhUKsAY/7wbQDA8SqQNDIyIiwLHFxcbp3754RJbjJjVVzMiEW49WrV4Yuq6Nu3bplRBG6nC7WgQBiEMB58eKFESUUJHoGrnFKgBMw9noHOlDoWD/oQ+SxiOguJzQGDBCds0KYVqxHamqqsSgfk2v8AQUXY/nQjegmuLylpcWRXgoIIDtgc3OzsVD4Mni5EPGpNhYUbodOLB1AARLcdRBO2hcgz4Ewp1iJqakp47t8quB40sXi4nwWFBQYTurs7DyQuO0LEE4bPgfyTEjAdyzDQVbBk+CP8R39A92oBawcMSDzCqT5BQgALPo4YVeuXDEy/SmLlb8JWylAJwESUjA9PW04yd879rpfgAAHeb1z547hnra2tkPTOduLQaiynQaxxLl5ZAy4Bm8fpc28ArG+fgGCUwDl8uXLJoo+TGu1vr6hmfkl9T5/qdn5ZQPUYfiYgESY8ujRI2OJieH285F8AgT3TE5OGrFCuaGU6dzNtr2imwaQ2pYeXUot1vGz6YrNLFVjW5/mF1cEcG439CdxI/o0IyPDOJZ7eds+AYJ7qqqqjMuO1sdcutlYgDdv1zU2MavUvHIdDUvVVyHJikwr0Ze/JeubkBRdK6rR5Myi3q5vGF3o5vKgtEm1kGmoqKjYk4veA4iVxXcgYQXKgcjpQcBDzyBGFXXt+v5Mmr4KSdGl7DLVD4zp6diM6vrHFJ1zT1/+lqRj4emqaujQwtKqNjbdic6hlQXC6SVUwj/CDQA0X80LIF6Ee0h/kvHDRXeLe5jg8sorNT8bUHx2mb49k6awhALlV7ep5cWUemaW1De3rO7pRT0ZnlRexROFxRfo+LkMw2XPuoe1svrKFf0EEyBWMAJmHy4i2PWlRrwAAkXQxCEkSgccQAum8T5iMjW7qJyiGsM134SlKrO0znBNz8yi+udX3vv0zi6ptm9UKYU1hptOnM/UrXv1mp1feid2wQsd0gEzYIgAy5cu8gIIs37//n2TC4Z7fCF6ELC2tv404tHQ1qdfonL0r9PJ+j21WNWdQ2qfmNvhGl8A9c2tmPsdE3OqeDao0IQCfXkqSWdib+hp97CWVtaCXjzMPvMEoLt37xrp2T3nHYBYabQ7igsfgVyK04Y4ra69VnvPsDLyK3TsbIZCYm8qt7xZzUOTRowQJ1/A7L62LXYLah6aUHZZg07F5OmH85nKvl1l3ALGccrlgIFoUURA35IX393XDkCgScqS5DqJL6e6ByW8vPpKJRVP9NPvWWbVY6+Xq7Z3RF1TCwGBshskzuEo9FNN97Bic8v1xa+J+vVCjh7WPjPjMa4TT4R5EoTbYHZ3CLIDEFqdxBdpS/TQbiQD4SZEamhsSheSC/WPkwkKT7ytivZBISZWCfuafKDX4Cb6aR+f1d3mHsNN//otSdHpdzQxvaANB9lD9A7SAkCIGY6jZzMAwWrEJrm5ucZ58qfRPV/09X1za8tYqePh6cZ8F9d3qHVkylinQEEI5DlAahudUUFNm9FruAv9Q+NaDzAA9aQdRsByU55i/lRlPNsOQJRTKOLhIPKCkwZAeMHfhqXqb99HKzQuX/db+9QxMe86B5U0dumX6Ov6+4lYfRe2DRDW8qAN5oCLyEASkE9MTnp1sQMQcsgD5Jod6593AB0/m6HjEdmGi/7xa6LibzxUXd+oKzroUc8LxeU91OcnE/RteIZOXso1vlL/8Lgx/16zC/AEkEiBxMXFq7unz+utIxZByro4h7ZS6fVUgCeWg378PUuJ+ZUqrG03XvI3YWkKicvXzapW4wSibFG6gYiTp/OIFfw1Jk/4UX9cvaey5l4lFVQLH2lgeMIxQEyP+l1yWoYir1d5zdYABMfgGFLexRfy5TB5veXnxAL0c+RVZZTUqn18znjJBdVt+v5cptEXURmlxqJ1Ts4LZ3AvkLjPczVdwzqXXKgvTiXpRNRVFdd3qmVkytzLKq031jJYgNDBWbk39D+heV6zO4KSsnEJsUkwaQ1PgDJLao31YpKYd7xiVv3L08kGrLyKFrW8mPQLEpzThO9zr1Ffhabo67BUI1oNAy/VObVgdBr9ugUQZe3iOyVKzMjV+MyC1ta3IwgDEFxD1hAzBzc5MfHA/j5A8zscQkjRNjqt/Ko2hSXcMhOOTC9RaVO3CVItN/EcQSviGZF2R0fPpOlsUqE5bx2dfqfs8YuW1TW16BpANuzIysrysmRHECeSSFQq2JtDPIZectL2AsiKEia6vn9Mybeq9dnJBB0NT1dmSZ0RGSuSxF9fh6YKBZ9S+EiNz8eNk2j74Og2QGBQWVlp/CG4yTYDEH4PAFVXV5u05GEC1De/YsQK5/FBW79C4wv0+S9X9GNUjlKLHunY71n67Od4nU8pUmXHkNEzcBeAHCZAuDZshsCSf1SA7CQNB0xv66a04sf6ISJbf/8xTieicpR1t15G10wu+LV2bnMQephUrE+AYC+Kax9CxCxA9ghHoXMw4Th9d5t6jFLfzTH2eXt0GyArYuSHvDgIhWyVdLA5oEB0kJ2g5xFxK3zcbnRSVefQe+Lk+az97jZAKGlSPe8pac9YBDOPLB6GFbMT83XsmJxXUV270UXkinw9s/ua2wARsJLmYZ8TzrJtxlHEchHJkxdxy1Hc9oP+MvO7J+h5/ikAROUGcOAijJZtJhaDY1BQboUaeNL/aQBRmiZYb2xsNEziBRBmnZ0PAMTen2CD1f80gJg/m0ypuJLV8MwJ7UTzJK3ZbIQvFEy6o+lpv36KyDY+zbOXswEpXCci1ju7bGK9jDu1IjgmFnNSaAQcsoh1dXXb6Y4J+vmrBLQDEPloZBA285RBy2qBHLFiLR2D+uFchk5dvqHypwPG0fPUN76+HxQgFDRB7P2WPp2OvWmi+cEXk1rfOPh+RGuk8vPzjbNMwswzWDcAMXnPlKvd4hIIKJ7PsBrU2IvLm/RjRJZ+vnjNRPUNgy/39G0CBWjbci2ofuClUgtrdCIyWyejrqq0skWLy86qHHAPkTzqBTcH6WEetu0AxIPsbI+KijJJbE85tA8HcqTzldXX6h4YVXjsTZEzDo3PN6UbYi1fuen9ANouAS2aXPSD1j6TJCNpT+4b0Vp7xebRvyYVCJ32GfSt2fgen6hHDc1ae7OuTY++dgBiYvgClH2Ki4uDKvtsGbne1OzCsooeNBkRIPhMK3psAlVA8hS1/QAiFnvcM6LEgkr981Si4Zqy6tbtDQ4bzjdzmcVcWVFmZpZ+upCikKIeNY6safnNlizcOwCBKGJGGZa6PAU15NOT3SzqgR4pxay8q4+l5JXru/B0E5zeqnlqkvnbQeiK/AFE5pGy9PWHT0xGkjJ0ZkGluvpHTd2N/oNpKOOBgUHFXL6ssNQin115AcQLyCPxCI5jMMkzz9EAmg0INY1dOhqaqq9OJyvhZoUpBqJssXZFtdueNKEGForr1Ohjrt03Oz7YyFDT2Gkqqk7KO5702O8mB1RerujoGHUMjNrLXkcvgOAWZNJuXsAn8jR5Xm8e8AQd8fbthsYn58xmBLa4fHcu0+SpUeIkyEh7VHY8N4m1nPuN+u5shr4+naycwhpNzS5pfX3Tsa7ZTS6Lhs/DPgR+prWyurr7EXPuBRBXeBFgCNqoE7n5mwsWYGNj01i6+pZeRSUV6tj5TFOvv5z7QH87Fm1SHRFpxUYcKQjazVROSjo+Z/xujkTv1MLYREWY4Y8R3gOITjF11MfYMI5lc+pZ+yOQ63AT1dCrt6v1xS9X9P8/XNb/Hr2o/zseo29CU3SrrF7Ts4umWhqMHtxNg5UStheS+yFJxvz8jeETIB7mp5CUY3GgQNjtxhg4luw0a+t6rvPx+frspzhFJt1WZ9+IXr9Zd5xV2ItWJGRubs44xFRx2GrINX/NJ0A8DBexmQEZRScFE+X7G5zrAPX6zVuNjs+KbTKTMwsGNFwFtxtjoTIePnyomJgYs+N1L+5hfL8A4W4DCt4l+2eovOIG7IW22xNysz/oxiqzDZj5kNbAigHaXs0vQLzEy5h9xIzfYLHx0amHvRcRH+IeShh9ikQQc+IUe8Zc/mjYEyBeomObK2GT0fDwsOl4P+T9DfgxriNG0I0DjHXmO6FVIHPYFyAmBNfQKVqf8hDo7ye7HwOI3WMCAAuMFFAYRe+wSYFrgYBDfwEBZAdCD8GiWDfyR4D0KTfog064hh/jYHR2R+v70R8QQHQCSOSJ2FjOD0JgV/4xAcUdiCzvR4ib96EVRxD6+PMCaOWHgE4sccAA2QkgbugkVgWWJZeNNTgI29q+3D4CDLqFheR3GHANi8nWFqcq4cAAQQQmE+eRfz9g0yfHoaGhgBWf28DY/lgkNoDx+xKiAMpYOLyBKmTbj+fxwADZlxkUZU2gZ0WO3SFw10Hl3Pbp5Gj9G8bFZ0Ok0JHQRRo5GHCgxzFAvGyJY9XwldghC1hsIya3C1DBEugLNMalX/qnTMz+QkBB5CmhE2yjG+H2YFtQADG4FTl0ExYDcwp7k1NiFSGWe24QaycLMCyK5V7SxPyKEEeQewDo1nhBA2SJhih0AIEghKIH8JvgKFaV7AC1JzgLCwNoe3EXE8Q68hzWh/fIcmIU6A9RIj0M5/IvM4zrVBHbOfg6ugaQZ+dMHEsCINS7YX3iHwpzmFyylVQwSVgRTaNI0RfoNI6c8+E3pogPz2M1AcT2Q784fVjQvYD2pMvJ90MBCEKs6MEFgIX4sfr8XQRJKiaLBQwNDVVISIjCw8ONaJ49e1anT5/WmTNnzP8F4ZhS0OQ9RAouoj/6dVOU/IF3aAB5DmjFD/2AqOAi8C9ScAD/1AKn8OG7PYe7cB2wToQKpCl4HzGmvw/VPghAH2oyhzHOfwHaB9V/A1wv2IXPy43iAAAAAElFTkSuQmCC;" vertex="1" parent="M06deS8VlxeRnnj21vpx-62">
          <mxGeometry width="42" height="42" as="geometry" />
        </mxCell>
        <mxCell id="M06deS8VlxeRnnj21vpx-64" value="Job" style="text;html=1;resizable=0;autosize=1;align=center;verticalAlign=middle;points=[];fillColor=none;strokeColor=none;rounded=0;dashed=1;" vertex="1" parent="M06deS8VlxeRnnj21vpx-62">
          <mxGeometry x="3.25" y="36" width="36" height="24" as="geometry" />
        </mxCell>
        <mxCell id="M06deS8VlxeRnnj21vpx-66" value="" style="group" vertex="1" connectable="0" parent="M06deS8VlxeRnnj21vpx-1">
          <mxGeometry x="738" y="138" width="60.25" height="60" as="geometry" />
        </mxCell>
        <mxCell id="M06deS8VlxeRnnj21vpx-67" value="" style="shape=image;verticalLabelPosition=bottom;labelBackgroundColor=#ffffff;verticalAlign=top;aspect=fixed;imageAspect=0;image=data:image/png,iVBORw0KGgoAAAANSUhEUgAAAEgAAABICAYAAABV7bNHAAAQX0lEQVR4Ae2c6VNU17rG/SPv1/vh1L2nKjknOUlMojGJiREQNYAakEHmSUQUFBBERSZlFlDmSRCQeR4cGPKc+i1cpBu7odm9UU/VWVVdu/e01rue9c7v6j6i/7Y9ETiy591DuPnnn39qa2tr57O5uSl/H8/neI/Ph24fDCAmt76+rrW1NS0uLmp2dlbPnz9XR0eHWltb9eDBA/MpLy/XkydP1N7eroGBAc3MzGhhYUGrq6vm/Q8N0qEAxCRY/bdv32p5eVljY2Pq6upSbW2tioqKlJOTo8TERKWkpCg9PV3Z2dnvfdLS0sz9pKQkc+/27duqqakxgI6Ojpp+6R/uO8zmOkAAs7GxYSYAFxQWFio5OVmRkZG6dOmSrl27ZjgFLunu7tbg4KBevnypiYkJ8xkfHzeAch1Qm5qazPNXr17VhQsXFBERIUADaLhvaWnJjMe4h8FdrgEEcawm4lNfX6/Y2Fj98ccfio+PV0lJifr7+81kELHXr1/rzZs3RmQQOwD11EOccx0O4Tme5z1Era+vT6WlpaZfAGechoYGMy7vuN2CBghgmAg65enTp7px44YRH44ABXe4pT8YCxDoD7F9/Pixrl+/roSEBN28eVPPnj0zdEAPHOVGCwogiGCFe3p6lJeXp4sXLyozM9MABeu7RaS/iQLY/Py8UeqIHRzLwvT29hquc2N8xwBZcSorK1N0dLTRC+gVlLJdQSZw2A06GG9lZcVwLPqOhUKsAY/7wbQDA8SqQNDIyIiwLHFxcbp3754RJbjJjVVzMiEW49WrV4Yuq6Nu3bplRBG6nC7WgQBiEMB58eKFESUUJHoGrnFKgBMw9noHOlDoWD/oQ+SxiOguJzQGDBCds0KYVqxHamqqsSgfk2v8AQUXY/nQjegmuLylpcWRXgoIIDtgc3OzsVD4Mni5EPGpNhYUbodOLB1AARLcdRBO2hcgz4Ewp1iJqakp47t8quB40sXi4nwWFBQYTurs7DyQuO0LEE4bPgfyTEjAdyzDQVbBk+CP8R39A92oBawcMSDzCqT5BQgALPo4YVeuXDEy/SmLlb8JWylAJwESUjA9PW04yd879rpfgAAHeb1z547hnra2tkPTOduLQaiynQaxxLl5ZAy4Bm8fpc28ArG+fgGCUwDl8uXLJoo+TGu1vr6hmfkl9T5/qdn5ZQPUYfiYgESY8ujRI2OJieH285F8AgT3TE5OGrFCuaGU6dzNtr2imwaQ2pYeXUot1vGz6YrNLFVjW5/mF1cEcG439CdxI/o0IyPDOJZ7eds+AYJ7qqqqjMuO1sdcutlYgDdv1zU2MavUvHIdDUvVVyHJikwr0Ze/JeubkBRdK6rR5Myi3q5vGF3o5vKgtEm1kGmoqKjYk4veA4iVxXcgYQXKgcjpQcBDzyBGFXXt+v5Mmr4KSdGl7DLVD4zp6diM6vrHFJ1zT1/+lqRj4emqaujQwtKqNjbdic6hlQXC6SVUwj/CDQA0X80LIF6Ee0h/kvHDRXeLe5jg8sorNT8bUHx2mb49k6awhALlV7ep5cWUemaW1De3rO7pRT0ZnlRexROFxRfo+LkMw2XPuoe1svrKFf0EEyBWMAJmHy4i2PWlRrwAAkXQxCEkSgccQAum8T5iMjW7qJyiGsM134SlKrO0znBNz8yi+udX3vv0zi6ptm9UKYU1hptOnM/UrXv1mp1feid2wQsd0gEzYIgAy5cu8gIIs37//n2TC4Z7fCF6ELC2tv404tHQ1qdfonL0r9PJ+j21WNWdQ2qfmNvhGl8A9c2tmPsdE3OqeDao0IQCfXkqSWdib+hp97CWVtaCXjzMPvMEoLt37xrp2T3nHYBYabQ7igsfgVyK04Y4ra69VnvPsDLyK3TsbIZCYm8qt7xZzUOTRowQJ1/A7L62LXYLah6aUHZZg07F5OmH85nKvl1l3ALGccrlgIFoUURA35IX393XDkCgScqS5DqJL6e6ByW8vPpKJRVP9NPvWWbVY6+Xq7Z3RF1TCwGBshskzuEo9FNN97Bic8v1xa+J+vVCjh7WPjPjMa4TT4R5EoTbYHZ3CLIDEFqdxBdpS/TQbiQD4SZEamhsSheSC/WPkwkKT7ytivZBISZWCfuafKDX4Cb6aR+f1d3mHsNN//otSdHpdzQxvaANB9lD9A7SAkCIGY6jZzMAwWrEJrm5ucZ58qfRPV/09X1za8tYqePh6cZ8F9d3qHVkylinQEEI5DlAahudUUFNm9FruAv9Q+NaDzAA9aQdRsByU55i/lRlPNsOQJRTKOLhIPKCkwZAeMHfhqXqb99HKzQuX/db+9QxMe86B5U0dumX6Ov6+4lYfRe2DRDW8qAN5oCLyEASkE9MTnp1sQMQcsgD5Jod6593AB0/m6HjEdmGi/7xa6LibzxUXd+oKzroUc8LxeU91OcnE/RteIZOXso1vlL/8Lgx/16zC/AEkEiBxMXFq7unz+utIxZByro4h7ZS6fVUgCeWg378PUuJ+ZUqrG03XvI3YWkKicvXzapW4wSibFG6gYiTp/OIFfw1Jk/4UX9cvaey5l4lFVQLH2lgeMIxQEyP+l1yWoYir1d5zdYABMfgGFLexRfy5TB5veXnxAL0c+RVZZTUqn18znjJBdVt+v5cptEXURmlxqJ1Ts4LZ3AvkLjPczVdwzqXXKgvTiXpRNRVFdd3qmVkytzLKq031jJYgNDBWbk39D+heV6zO4KSsnEJsUkwaQ1PgDJLao31YpKYd7xiVv3L08kGrLyKFrW8mPQLEpzThO9zr1Ffhabo67BUI1oNAy/VObVgdBr9ugUQZe3iOyVKzMjV+MyC1ta3IwgDEFxD1hAzBzc5MfHA/j5A8zscQkjRNjqt/Ko2hSXcMhOOTC9RaVO3CVItN/EcQSviGZF2R0fPpOlsUqE5bx2dfqfs8YuW1TW16BpANuzIysrysmRHECeSSFQq2JtDPIZectL2AsiKEia6vn9Mybeq9dnJBB0NT1dmSZ0RGSuSxF9fh6YKBZ9S+EiNz8eNk2j74Og2QGBQWVlp/CG4yTYDEH4PAFVXV5u05GEC1De/YsQK5/FBW79C4wv0+S9X9GNUjlKLHunY71n67Od4nU8pUmXHkNEzcBeAHCZAuDZshsCSf1SA7CQNB0xv66a04sf6ISJbf/8xTieicpR1t15G10wu+LV2bnMQephUrE+AYC+Kax9CxCxA9ghHoXMw4Th9d5t6jFLfzTH2eXt0GyArYuSHvDgIhWyVdLA5oEB0kJ2g5xFxK3zcbnRSVefQe+Lk+az97jZAKGlSPe8pac9YBDOPLB6GFbMT83XsmJxXUV270UXkinw9s/ua2wARsJLmYZ8TzrJtxlHEchHJkxdxy1Hc9oP+MvO7J+h5/ikAROUGcOAijJZtJhaDY1BQboUaeNL/aQBRmiZYb2xsNEziBRBmnZ0PAMTen2CD1f80gJg/m0ypuJLV8MwJ7UTzJK3ZbIQvFEy6o+lpv36KyDY+zbOXswEpXCci1ju7bGK9jDu1IjgmFnNSaAQcsoh1dXXb6Y4J+vmrBLQDEPloZBA285RBy2qBHLFiLR2D+uFchk5dvqHypwPG0fPUN76+HxQgFDRB7P2WPp2OvWmi+cEXk1rfOPh+RGuk8vPzjbNMwswzWDcAMXnPlKvd4hIIKJ7PsBrU2IvLm/RjRJZ+vnjNRPUNgy/39G0CBWjbci2ofuClUgtrdCIyWyejrqq0skWLy86qHHAPkTzqBTcH6WEetu0AxIPsbI+KijJJbE85tA8HcqTzldXX6h4YVXjsTZEzDo3PN6UbYi1fuen9ANouAS2aXPSD1j6TJCNpT+4b0Vp7xebRvyYVCJ32GfSt2fgen6hHDc1ae7OuTY++dgBiYvgClH2Ki4uDKvtsGbne1OzCsooeNBkRIPhMK3psAlVA8hS1/QAiFnvcM6LEgkr981Si4Zqy6tbtDQ4bzjdzmcVcWVFmZpZ+upCikKIeNY6safnNlizcOwCBKGJGGZa6PAU15NOT3SzqgR4pxay8q4+l5JXru/B0E5zeqnlqkvnbQeiK/AFE5pGy9PWHT0xGkjJ0ZkGluvpHTd2N/oNpKOOBgUHFXL6ssNQin115AcQLyCPxCI5jMMkzz9EAmg0INY1dOhqaqq9OJyvhZoUpBqJssXZFtdueNKEGForr1Ohjrt03Oz7YyFDT2Gkqqk7KO5702O8mB1RerujoGHUMjNrLXkcvgOAWZNJuXsAn8jR5Xm8e8AQd8fbthsYn58xmBLa4fHcu0+SpUeIkyEh7VHY8N4m1nPuN+u5shr4+naycwhpNzS5pfX3Tsa7ZTS6Lhs/DPgR+prWyurr7EXPuBRBXeBFgCNqoE7n5mwsWYGNj01i6+pZeRSUV6tj5TFOvv5z7QH87Fm1SHRFpxUYcKQjazVROSjo+Z/xujkTv1MLYREWY4Y8R3gOITjF11MfYMI5lc+pZ+yOQ63AT1dCrt6v1xS9X9P8/XNb/Hr2o/zseo29CU3SrrF7Ts4umWhqMHtxNg5UStheS+yFJxvz8jeETIB7mp5CUY3GgQNjtxhg4luw0a+t6rvPx+frspzhFJt1WZ9+IXr9Zd5xV2ItWJGRubs44xFRx2GrINX/NJ0A8DBexmQEZRScFE+X7G5zrAPX6zVuNjs+KbTKTMwsGNFwFtxtjoTIePnyomJgYs+N1L+5hfL8A4W4DCt4l+2eovOIG7IW22xNysz/oxiqzDZj5kNbAigHaXs0vQLzEy5h9xIzfYLHx0amHvRcRH+IeShh9ikQQc+IUe8Zc/mjYEyBeomObK2GT0fDwsOl4P+T9DfgxriNG0I0DjHXmO6FVIHPYFyAmBNfQKVqf8hDo7ye7HwOI3WMCAAuMFFAYRe+wSYFrgYBDfwEBZAdCD8GiWDfyR4D0KTfog064hh/jYHR2R+v70R8QQHQCSOSJ2FjOD0JgV/4xAcUdiCzvR4ib96EVRxD6+PMCaOWHgE4sccAA2QkgbugkVgWWJZeNNTgI29q+3D4CDLqFheR3GHANi8nWFqcq4cAAQQQmE+eRfz9g0yfHoaGhgBWf28DY/lgkNoDx+xKiAMpYOLyBKmTbj+fxwADZlxkUZU2gZ0WO3SFw10Hl3Pbp5Gj9G8bFZ0Ok0JHQRRo5GHCgxzFAvGyJY9XwldghC1hsIya3C1DBEugLNMalX/qnTMz+QkBB5CmhE2yjG+H2YFtQADG4FTl0ExYDcwp7k1NiFSGWe24QaycLMCyK5V7SxPyKEEeQewDo1nhBA2SJhih0AIEghKIH8JvgKFaV7AC1JzgLCwNoe3EXE8Q68hzWh/fIcmIU6A9RIj0M5/IvM4zrVBHbOfg6ugaQZ+dMHEsCINS7YX3iHwpzmFyylVQwSVgRTaNI0RfoNI6c8+E3pogPz2M1AcT2Q784fVjQvYD2pMvJ90MBCEKs6MEFgIX4sfr8XQRJKiaLBQwNDVVISIjCw8ONaJ49e1anT5/WmTNnzP8F4ZhS0OQ9RAouoj/6dVOU/IF3aAB5DmjFD/2AqOAi8C9ScAD/1AKn8OG7PYe7cB2wToQKpCl4HzGmvw/VPghAH2oyhzHOfwHaB9V/A1wv2IXPy43iAAAAAElFTkSuQmCC;" vertex="1" parent="M06deS8VlxeRnnj21vpx-66">
          <mxGeometry width="42" height="42" as="geometry" />
        </mxCell>
        <mxCell id="M06deS8VlxeRnnj21vpx-68" value="Archiver" style="text;html=1;resizable=0;autosize=1;align=center;verticalAlign=middle;points=[];fillColor=none;strokeColor=none;rounded=0;dashed=1;" vertex="1" parent="M06deS8VlxeRnnj21vpx-66">
          <mxGeometry x="-8.75" y="36" width="60" height="24" as="geometry" />
        </mxCell>
        <mxCell id="M06deS8VlxeRnnj21vpx-69" value="" style="group" vertex="1" connectable="0" parent="M06deS8VlxeRnnj21vpx-1">
          <mxGeometry x="744" y="210" width="69.25" height="60" as="geometry" />
        </mxCell>
        <mxCell id="M06deS8VlxeRnnj21vpx-70" value="" style="shape=image;verticalLabelPosition=bottom;labelBackgroundColor=#ffffff;verticalAlign=top;aspect=fixed;imageAspect=0;image=data:image/png,iVBORw0KGgoAAAANSUhEUgAAAEgAAABICAYAAABV7bNHAAAQX0lEQVR4Ae2c6VNU17rG/SPv1/vh1L2nKjknOUlMojGJiREQNYAakEHmSUQUFBBERSZlFlDmSRCQeR4cGPKc+i1cpBu7odm9UU/VWVVdu/e01rue9c7v6j6i/7Y9ETiy591DuPnnn39qa2tr57O5uSl/H8/neI/Ph24fDCAmt76+rrW1NS0uLmp2dlbPnz9XR0eHWltb9eDBA/MpLy/XkydP1N7eroGBAc3MzGhhYUGrq6vm/Q8N0qEAxCRY/bdv32p5eVljY2Pq6upSbW2tioqKlJOTo8TERKWkpCg9PV3Z2dnvfdLS0sz9pKQkc+/27duqqakxgI6Ojpp+6R/uO8zmOkAAs7GxYSYAFxQWFio5OVmRkZG6dOmSrl27ZjgFLunu7tbg4KBevnypiYkJ8xkfHzeAch1Qm5qazPNXr17VhQsXFBERIUADaLhvaWnJjMe4h8FdrgEEcawm4lNfX6/Y2Fj98ccfio+PV0lJifr7+81kELHXr1/rzZs3RmQQOwD11EOccx0O4Tme5z1Era+vT6WlpaZfAGechoYGMy7vuN2CBghgmAg65enTp7px44YRH44ABXe4pT8YCxDoD7F9/Pixrl+/roSEBN28eVPPnj0zdEAPHOVGCwogiGCFe3p6lJeXp4sXLyozM9MABeu7RaS/iQLY/Py8UeqIHRzLwvT29hquc2N8xwBZcSorK1N0dLTRC+gVlLJdQSZw2A06GG9lZcVwLPqOhUKsAY/7wbQDA8SqQNDIyIiwLHFxcbp3754RJbjJjVVzMiEW49WrV4Yuq6Nu3bplRBG6nC7WgQBiEMB58eKFESUUJHoGrnFKgBMw9noHOlDoWD/oQ+SxiOguJzQGDBCds0KYVqxHamqqsSgfk2v8AQUXY/nQjegmuLylpcWRXgoIIDtgc3OzsVD4Mni5EPGpNhYUbodOLB1AARLcdRBO2hcgz4Ewp1iJqakp47t8quB40sXi4nwWFBQYTurs7DyQuO0LEE4bPgfyTEjAdyzDQVbBk+CP8R39A92oBawcMSDzCqT5BQgALPo4YVeuXDEy/SmLlb8JWylAJwESUjA9PW04yd879rpfgAAHeb1z547hnra2tkPTOduLQaiynQaxxLl5ZAy4Bm8fpc28ArG+fgGCUwDl8uXLJoo+TGu1vr6hmfkl9T5/qdn5ZQPUYfiYgESY8ujRI2OJieH285F8AgT3TE5OGrFCuaGU6dzNtr2imwaQ2pYeXUot1vGz6YrNLFVjW5/mF1cEcG439CdxI/o0IyPDOJZ7eds+AYJ7qqqqjMuO1sdcutlYgDdv1zU2MavUvHIdDUvVVyHJikwr0Ze/JeubkBRdK6rR5Myi3q5vGF3o5vKgtEm1kGmoqKjYk4veA4iVxXcgYQXKgcjpQcBDzyBGFXXt+v5Mmr4KSdGl7DLVD4zp6diM6vrHFJ1zT1/+lqRj4emqaujQwtKqNjbdic6hlQXC6SVUwj/CDQA0X80LIF6Ee0h/kvHDRXeLe5jg8sorNT8bUHx2mb49k6awhALlV7ep5cWUemaW1De3rO7pRT0ZnlRexROFxRfo+LkMw2XPuoe1svrKFf0EEyBWMAJmHy4i2PWlRrwAAkXQxCEkSgccQAum8T5iMjW7qJyiGsM134SlKrO0znBNz8yi+udX3vv0zi6ptm9UKYU1hptOnM/UrXv1mp1feid2wQsd0gEzYIgAy5cu8gIIs37//n2TC4Z7fCF6ELC2tv404tHQ1qdfonL0r9PJ+j21WNWdQ2qfmNvhGl8A9c2tmPsdE3OqeDao0IQCfXkqSWdib+hp97CWVtaCXjzMPvMEoLt37xrp2T3nHYBYabQ7igsfgVyK04Y4ra69VnvPsDLyK3TsbIZCYm8qt7xZzUOTRowQJ1/A7L62LXYLah6aUHZZg07F5OmH85nKvl1l3ALGccrlgIFoUURA35IX393XDkCgScqS5DqJL6e6ByW8vPpKJRVP9NPvWWbVY6+Xq7Z3RF1TCwGBshskzuEo9FNN97Bic8v1xa+J+vVCjh7WPjPjMa4TT4R5EoTbYHZ3CLIDEFqdxBdpS/TQbiQD4SZEamhsSheSC/WPkwkKT7ytivZBISZWCfuafKDX4Cb6aR+f1d3mHsNN//otSdHpdzQxvaANB9lD9A7SAkCIGY6jZzMAwWrEJrm5ucZ58qfRPV/09X1za8tYqePh6cZ8F9d3qHVkylinQEEI5DlAahudUUFNm9FruAv9Q+NaDzAA9aQdRsByU55i/lRlPNsOQJRTKOLhIPKCkwZAeMHfhqXqb99HKzQuX/db+9QxMe86B5U0dumX6Ov6+4lYfRe2DRDW8qAN5oCLyEASkE9MTnp1sQMQcsgD5Jod6593AB0/m6HjEdmGi/7xa6LibzxUXd+oKzroUc8LxeU91OcnE/RteIZOXso1vlL/8Lgx/16zC/AEkEiBxMXFq7unz+utIxZByro4h7ZS6fVUgCeWg378PUuJ+ZUqrG03XvI3YWkKicvXzapW4wSibFG6gYiTp/OIFfw1Jk/4UX9cvaey5l4lFVQLH2lgeMIxQEyP+l1yWoYir1d5zdYABMfgGFLexRfy5TB5veXnxAL0c+RVZZTUqn18znjJBdVt+v5cptEXURmlxqJ1Ts4LZ3AvkLjPczVdwzqXXKgvTiXpRNRVFdd3qmVkytzLKq031jJYgNDBWbk39D+heV6zO4KSsnEJsUkwaQ1PgDJLao31YpKYd7xiVv3L08kGrLyKFrW8mPQLEpzThO9zr1Ffhabo67BUI1oNAy/VObVgdBr9ugUQZe3iOyVKzMjV+MyC1ta3IwgDEFxD1hAzBzc5MfHA/j5A8zscQkjRNjqt/Ko2hSXcMhOOTC9RaVO3CVItN/EcQSviGZF2R0fPpOlsUqE5bx2dfqfs8YuW1TW16BpANuzIysrysmRHECeSSFQq2JtDPIZectL2AsiKEia6vn9Mybeq9dnJBB0NT1dmSZ0RGSuSxF9fh6YKBZ9S+EiNz8eNk2j74Og2QGBQWVlp/CG4yTYDEH4PAFVXV5u05GEC1De/YsQK5/FBW79C4wv0+S9X9GNUjlKLHunY71n67Od4nU8pUmXHkNEzcBeAHCZAuDZshsCSf1SA7CQNB0xv66a04sf6ISJbf/8xTieicpR1t15G10wu+LV2bnMQephUrE+AYC+Kax9CxCxA9ghHoXMw4Th9d5t6jFLfzTH2eXt0GyArYuSHvDgIhWyVdLA5oEB0kJ2g5xFxK3zcbnRSVefQe+Lk+az97jZAKGlSPe8pac9YBDOPLB6GFbMT83XsmJxXUV270UXkinw9s/ua2wARsJLmYZ8TzrJtxlHEchHJkxdxy1Hc9oP+MvO7J+h5/ikAROUGcOAijJZtJhaDY1BQboUaeNL/aQBRmiZYb2xsNEziBRBmnZ0PAMTen2CD1f80gJg/m0ypuJLV8MwJ7UTzJK3ZbIQvFEy6o+lpv36KyDY+zbOXswEpXCci1ju7bGK9jDu1IjgmFnNSaAQcsoh1dXXb6Y4J+vmrBLQDEPloZBA285RBy2qBHLFiLR2D+uFchk5dvqHypwPG0fPUN76+HxQgFDRB7P2WPp2OvWmi+cEXk1rfOPh+RGuk8vPzjbNMwswzWDcAMXnPlKvd4hIIKJ7PsBrU2IvLm/RjRJZ+vnjNRPUNgy/39G0CBWjbci2ofuClUgtrdCIyWyejrqq0skWLy86qHHAPkTzqBTcH6WEetu0AxIPsbI+KijJJbE85tA8HcqTzldXX6h4YVXjsTZEzDo3PN6UbYi1fuen9ANouAS2aXPSD1j6TJCNpT+4b0Vp7xebRvyYVCJ32GfSt2fgen6hHDc1ae7OuTY++dgBiYvgClH2Ki4uDKvtsGbne1OzCsooeNBkRIPhMK3psAlVA8hS1/QAiFnvcM6LEgkr981Si4Zqy6tbtDQ4bzjdzmcVcWVFmZpZ+upCikKIeNY6safnNlizcOwCBKGJGGZa6PAU15NOT3SzqgR4pxay8q4+l5JXru/B0E5zeqnlqkvnbQeiK/AFE5pGy9PWHT0xGkjJ0ZkGluvpHTd2N/oNpKOOBgUHFXL6ssNQin115AcQLyCPxCI5jMMkzz9EAmg0INY1dOhqaqq9OJyvhZoUpBqJssXZFtdueNKEGForr1Ohjrt03Oz7YyFDT2Gkqqk7KO5702O8mB1RerujoGHUMjNrLXkcvgOAWZNJuXsAn8jR5Xm8e8AQd8fbthsYn58xmBLa4fHcu0+SpUeIkyEh7VHY8N4m1nPuN+u5shr4+naycwhpNzS5pfX3Tsa7ZTS6Lhs/DPgR+prWyurr7EXPuBRBXeBFgCNqoE7n5mwsWYGNj01i6+pZeRSUV6tj5TFOvv5z7QH87Fm1SHRFpxUYcKQjazVROSjo+Z/xujkTv1MLYREWY4Y8R3gOITjF11MfYMI5lc+pZ+yOQ63AT1dCrt6v1xS9X9P8/XNb/Hr2o/zseo29CU3SrrF7Ts4umWhqMHtxNg5UStheS+yFJxvz8jeETIB7mp5CUY3GgQNjtxhg4luw0a+t6rvPx+frspzhFJt1WZ9+IXr9Zd5xV2ItWJGRubs44xFRx2GrINX/NJ0A8DBexmQEZRScFE+X7G5zrAPX6zVuNjs+KbTKTMwsGNFwFtxtjoTIePnyomJgYs+N1L+5hfL8A4W4DCt4l+2eovOIG7IW22xNysz/oxiqzDZj5kNbAigHaXs0vQLzEy5h9xIzfYLHx0amHvRcRH+IeShh9ikQQc+IUe8Zc/mjYEyBeomObK2GT0fDwsOl4P+T9DfgxriNG0I0DjHXmO6FVIHPYFyAmBNfQKVqf8hDo7ye7HwOI3WMCAAuMFFAYRe+wSYFrgYBDfwEBZAdCD8GiWDfyR4D0KTfog064hh/jYHR2R+v70R8QQHQCSOSJ2FjOD0JgV/4xAcUdiCzvR4ib96EVRxD6+PMCaOWHgE4sccAA2QkgbugkVgWWJZeNNTgI29q+3D4CDLqFheR3GHANi8nWFqcq4cAAQQQmE+eRfz9g0yfHoaGhgBWf28DY/lgkNoDx+xKiAMpYOLyBKmTbj+fxwADZlxkUZU2gZ0WO3SFw10Hl3Pbp5Gj9G8bFZ0Ok0JHQRRo5GHCgxzFAvGyJY9XwldghC1hsIya3C1DBEugLNMalX/qnTMz+QkBB5CmhE2yjG+H2YFtQADG4FTl0ExYDcwp7k1NiFSGWe24QaycLMCyK5V7SxPyKEEeQewDo1nhBA2SJhih0AIEghKIH8JvgKFaV7AC1JzgLCwNoe3EXE8Q68hzWh/fIcmIU6A9RIj0M5/IvM4zrVBHbOfg6ugaQZ+dMHEsCINS7YX3iHwpzmFyylVQwSVgRTaNI0RfoNI6c8+E3pogPz2M1AcT2Q784fVjQvYD2pMvJ90MBCEKs6MEFgIX4sfr8XQRJKiaLBQwNDVVISIjCw8ONaJ49e1anT5/WmTNnzP8F4ZhS0OQ9RAouoj/6dVOU/IF3aAB5DmjFD/2AqOAi8C9ScAD/1AKn8OG7PYe7cB2wToQKpCl4HzGmvw/VPghAH2oyhzHOfwHaB9V/A1wv2IXPy43iAAAAAElFTkSuQmCC;" vertex="1" parent="M06deS8VlxeRnnj21vpx-69">
          <mxGeometry width="42" height="42" as="geometry" />
        </mxCell>
        <mxCell id="M06deS8VlxeRnnj21vpx-71" value="Service Report" style="text;html=1;resizable=0;autosize=1;align=center;verticalAlign=middle;points=[];fillColor=none;strokeColor=none;rounded=0;dashed=1;" vertex="1" parent="M06deS8VlxeRnnj21vpx-69">
          <mxGeometry x="-26.75" y="36" width="96" height="24" as="geometry" />
        </mxCell>
        <mxCell id="M06deS8VlxeRnnj21vpx-72" value="" style="group" vertex="1" connectable="0" parent="M06deS8VlxeRnnj21vpx-1">
          <mxGeometry x="744" y="282" width="69.25" height="60" as="geometry" />
        </mxCell>
        <mxCell id="M06deS8VlxeRnnj21vpx-73" value="" style="shape=image;verticalLabelPosition=bottom;labelBackgroundColor=#ffffff;verticalAlign=top;aspect=fixed;imageAspect=0;image=data:image/png,iVBORw0KGgoAAAANSUhEUgAAAEgAAABICAYAAABV7bNHAAAQX0lEQVR4Ae2c6VNU17rG/SPv1/vh1L2nKjknOUlMojGJiREQNYAakEHmSUQUFBBERSZlFlDmSRCQeR4cGPKc+i1cpBu7odm9UU/VWVVdu/e01rue9c7v6j6i/7Y9ETiy591DuPnnn39qa2tr57O5uSl/H8/neI/Ph24fDCAmt76+rrW1NS0uLmp2dlbPnz9XR0eHWltb9eDBA/MpLy/XkydP1N7eroGBAc3MzGhhYUGrq6vm/Q8N0qEAxCRY/bdv32p5eVljY2Pq6upSbW2tioqKlJOTo8TERKWkpCg9PV3Z2dnvfdLS0sz9pKQkc+/27duqqakxgI6Ojpp+6R/uO8zmOkAAs7GxYSYAFxQWFio5OVmRkZG6dOmSrl27ZjgFLunu7tbg4KBevnypiYkJ8xkfHzeAch1Qm5qazPNXr17VhQsXFBERIUADaLhvaWnJjMe4h8FdrgEEcawm4lNfX6/Y2Fj98ccfio+PV0lJifr7+81kELHXr1/rzZs3RmQQOwD11EOccx0O4Tme5z1Era+vT6WlpaZfAGechoYGMy7vuN2CBghgmAg65enTp7px44YRH44ABXe4pT8YCxDoD7F9/Pixrl+/roSEBN28eVPPnj0zdEAPHOVGCwogiGCFe3p6lJeXp4sXLyozM9MABeu7RaS/iQLY/Py8UeqIHRzLwvT29hquc2N8xwBZcSorK1N0dLTRC+gVlLJdQSZw2A06GG9lZcVwLPqOhUKsAY/7wbQDA8SqQNDIyIiwLHFxcbp3754RJbjJjVVzMiEW49WrV4Yuq6Nu3bplRBG6nC7WgQBiEMB58eKFESUUJHoGrnFKgBMw9noHOlDoWD/oQ+SxiOguJzQGDBCds0KYVqxHamqqsSgfk2v8AQUXY/nQjegmuLylpcWRXgoIIDtgc3OzsVD4Mni5EPGpNhYUbodOLB1AARLcdRBO2hcgz4Ewp1iJqakp47t8quB40sXi4nwWFBQYTurs7DyQuO0LEE4bPgfyTEjAdyzDQVbBk+CP8R39A92oBawcMSDzCqT5BQgALPo4YVeuXDEy/SmLlb8JWylAJwESUjA9PW04yd879rpfgAAHeb1z547hnra2tkPTOduLQaiynQaxxLl5ZAy4Bm8fpc28ArG+fgGCUwDl8uXLJoo+TGu1vr6hmfkl9T5/qdn5ZQPUYfiYgESY8ujRI2OJieH285F8AgT3TE5OGrFCuaGU6dzNtr2imwaQ2pYeXUot1vGz6YrNLFVjW5/mF1cEcG439CdxI/o0IyPDOJZ7eds+AYJ7qqqqjMuO1sdcutlYgDdv1zU2MavUvHIdDUvVVyHJikwr0Ze/JeubkBRdK6rR5Myi3q5vGF3o5vKgtEm1kGmoqKjYk4veA4iVxXcgYQXKgcjpQcBDzyBGFXXt+v5Mmr4KSdGl7DLVD4zp6diM6vrHFJ1zT1/+lqRj4emqaujQwtKqNjbdic6hlQXC6SVUwj/CDQA0X80LIF6Ee0h/kvHDRXeLe5jg8sorNT8bUHx2mb49k6awhALlV7ep5cWUemaW1De3rO7pRT0ZnlRexROFxRfo+LkMw2XPuoe1svrKFf0EEyBWMAJmHy4i2PWlRrwAAkXQxCEkSgccQAum8T5iMjW7qJyiGsM134SlKrO0znBNz8yi+udX3vv0zi6ptm9UKYU1hptOnM/UrXv1mp1feid2wQsd0gEzYIgAy5cu8gIIs37//n2TC4Z7fCF6ELC2tv404tHQ1qdfonL0r9PJ+j21WNWdQ2qfmNvhGl8A9c2tmPsdE3OqeDao0IQCfXkqSWdib+hp97CWVtaCXjzMPvMEoLt37xrp2T3nHYBYabQ7igsfgVyK04Y4ra69VnvPsDLyK3TsbIZCYm8qt7xZzUOTRowQJ1/A7L62LXYLah6aUHZZg07F5OmH85nKvl1l3ALGccrlgIFoUURA35IX393XDkCgScqS5DqJL6e6ByW8vPpKJRVP9NPvWWbVY6+Xq7Z3RF1TCwGBshskzuEo9FNN97Bic8v1xa+J+vVCjh7WPjPjMa4TT4R5EoTbYHZ3CLIDEFqdxBdpS/TQbiQD4SZEamhsSheSC/WPkwkKT7ytivZBISZWCfuafKDX4Cb6aR+f1d3mHsNN//otSdHpdzQxvaANB9lD9A7SAkCIGY6jZzMAwWrEJrm5ucZ58qfRPV/09X1za8tYqePh6cZ8F9d3qHVkylinQEEI5DlAahudUUFNm9FruAv9Q+NaDzAA9aQdRsByU55i/lRlPNsOQJRTKOLhIPKCkwZAeMHfhqXqb99HKzQuX/db+9QxMe86B5U0dumX6Ov6+4lYfRe2DRDW8qAN5oCLyEASkE9MTnp1sQMQcsgD5Jod6593AB0/m6HjEdmGi/7xa6LibzxUXd+oKzroUc8LxeU91OcnE/RteIZOXso1vlL/8Lgx/16zC/AEkEiBxMXFq7unz+utIxZByro4h7ZS6fVUgCeWg378PUuJ+ZUqrG03XvI3YWkKicvXzapW4wSibFG6gYiTp/OIFfw1Jk/4UX9cvaey5l4lFVQLH2lgeMIxQEyP+l1yWoYir1d5zdYABMfgGFLexRfy5TB5veXnxAL0c+RVZZTUqn18znjJBdVt+v5cptEXURmlxqJ1Ts4LZ3AvkLjPczVdwzqXXKgvTiXpRNRVFdd3qmVkytzLKq031jJYgNDBWbk39D+heV6zO4KSsnEJsUkwaQ1PgDJLao31YpKYd7xiVv3L08kGrLyKFrW8mPQLEpzThO9zr1Ffhabo67BUI1oNAy/VObVgdBr9ugUQZe3iOyVKzMjV+MyC1ta3IwgDEFxD1hAzBzc5MfHA/j5A8zscQkjRNjqt/Ko2hSXcMhOOTC9RaVO3CVItN/EcQSviGZF2R0fPpOlsUqE5bx2dfqfs8YuW1TW16BpANuzIysrysmRHECeSSFQq2JtDPIZectL2AsiKEia6vn9Mybeq9dnJBB0NT1dmSZ0RGSuSxF9fh6YKBZ9S+EiNz8eNk2j74Og2QGBQWVlp/CG4yTYDEH4PAFVXV5u05GEC1De/YsQK5/FBW79C4wv0+S9X9GNUjlKLHunY71n67Od4nU8pUmXHkNEzcBeAHCZAuDZshsCSf1SA7CQNB0xv66a04sf6ISJbf/8xTieicpR1t15G10wu+LV2bnMQephUrE+AYC+Kax9CxCxA9ghHoXMw4Th9d5t6jFLfzTH2eXt0GyArYuSHvDgIhWyVdLA5oEB0kJ2g5xFxK3zcbnRSVefQe+Lk+az97jZAKGlSPe8pac9YBDOPLB6GFbMT83XsmJxXUV270UXkinw9s/ua2wARsJLmYZ8TzrJtxlHEchHJkxdxy1Hc9oP+MvO7J+h5/ikAROUGcOAijJZtJhaDY1BQboUaeNL/aQBRmiZYb2xsNEziBRBmnZ0PAMTen2CD1f80gJg/m0ypuJLV8MwJ7UTzJK3ZbIQvFEy6o+lpv36KyDY+zbOXswEpXCci1ju7bGK9jDu1IjgmFnNSaAQcsoh1dXXb6Y4J+vmrBLQDEPloZBA285RBy2qBHLFiLR2D+uFchk5dvqHypwPG0fPUN76+HxQgFDRB7P2WPp2OvWmi+cEXk1rfOPh+RGuk8vPzjbNMwswzWDcAMXnPlKvd4hIIKJ7PsBrU2IvLm/RjRJZ+vnjNRPUNgy/39G0CBWjbci2ofuClUgtrdCIyWyejrqq0skWLy86qHHAPkTzqBTcH6WEetu0AxIPsbI+KijJJbE85tA8HcqTzldXX6h4YVXjsTZEzDo3PN6UbYi1fuen9ANouAS2aXPSD1j6TJCNpT+4b0Vp7xebRvyYVCJ32GfSt2fgen6hHDc1ae7OuTY++dgBiYvgClH2Ki4uDKvtsGbne1OzCsooeNBkRIPhMK3psAlVA8hS1/QAiFnvcM6LEgkr981Si4Zqy6tbtDQ4bzjdzmcVcWVFmZpZ+upCikKIeNY6safnNlizcOwCBKGJGGZa6PAU15NOT3SzqgR4pxay8q4+l5JXru/B0E5zeqnlqkvnbQeiK/AFE5pGy9PWHT0xGkjJ0ZkGluvpHTd2N/oNpKOOBgUHFXL6ssNQin115AcQLyCPxCI5jMMkzz9EAmg0INY1dOhqaqq9OJyvhZoUpBqJssXZFtdueNKEGForr1Ohjrt03Oz7YyFDT2Gkqqk7KO5702O8mB1RerujoGHUMjNrLXkcvgOAWZNJuXsAn8jR5Xm8e8AQd8fbthsYn58xmBLa4fHcu0+SpUeIkyEh7VHY8N4m1nPuN+u5shr4+naycwhpNzS5pfX3Tsa7ZTS6Lhs/DPgR+prWyurr7EXPuBRBXeBFgCNqoE7n5mwsWYGNj01i6+pZeRSUV6tj5TFOvv5z7QH87Fm1SHRFpxUYcKQjazVROSjo+Z/xujkTv1MLYREWY4Y8R3gOITjF11MfYMI5lc+pZ+yOQ63AT1dCrt6v1xS9X9P8/XNb/Hr2o/zseo29CU3SrrF7Ts4umWhqMHtxNg5UStheS+yFJxvz8jeETIB7mp5CUY3GgQNjtxhg4luw0a+t6rvPx+frspzhFJt1WZ9+IXr9Zd5xV2ItWJGRubs44xFRx2GrINX/NJ0A8DBexmQEZRScFE+X7G5zrAPX6zVuNjs+KbTKTMwsGNFwFtxtjoTIePnyomJgYs+N1L+5hfL8A4W4DCt4l+2eovOIG7IW22xNysz/oxiqzDZj5kNbAigHaXs0vQLzEy5h9xIzfYLHx0amHvRcRH+IeShh9ikQQc+IUe8Zc/mjYEyBeomObK2GT0fDwsOl4P+T9DfgxriNG0I0DjHXmO6FVIHPYFyAmBNfQKVqf8hDo7ye7HwOI3WMCAAuMFFAYRe+wSYFrgYBDfwEBZAdCD8GiWDfyR4D0KTfog064hh/jYHR2R+v70R8QQHQCSOSJ2FjOD0JgV/4xAcUdiCzvR4ib96EVRxD6+PMCaOWHgE4sccAA2QkgbugkVgWWJZeNNTgI29q+3D4CDLqFheR3GHANi8nWFqcq4cAAQQQmE+eRfz9g0yfHoaGhgBWf28DY/lgkNoDx+xKiAMpYOLyBKmTbj+fxwADZlxkUZU2gZ0WO3SFw10Hl3Pbp5Gj9G8bFZ0Ok0JHQRRo5GHCgxzFAvGyJY9XwldghC1hsIya3C1DBEugLNMalX/qnTMz+QkBB5CmhE2yjG+H2YFtQADG4FTl0ExYDcwp7k1NiFSGWe24QaycLMCyK5V7SxPyKEEeQewDo1nhBA2SJhih0AIEghKIH8JvgKFaV7AC1JzgLCwNoe3EXE8Q68hzWh/fIcmIU6A9RIj0M5/IvM4zrVBHbOfg6ugaQZ+dMHEsCINS7YX3iHwpzmFyylVQwSVgRTaNI0RfoNI6c8+E3pogPz2M1AcT2Q784fVjQvYD2pMvJ90MBCEKs6MEFgIX4sfr8XQRJKiaLBQwNDVVISIjCw8ONaJ49e1anT5/WmTNnzP8F4ZhS0OQ9RAouoj/6dVOU/IF3aAB5DmjFD/2AqOAi8C9ScAD/1AKn8OG7PYe7cB2wToQKpCl4HzGmvw/VPghAH2oyhzHOfwHaB9V/A1wv2IXPy43iAAAAAElFTkSuQmCC;" vertex="1" parent="M06deS8VlxeRnnj21vpx-72">
          <mxGeometry width="42" height="42" as="geometry" />
        </mxCell>
        <mxCell id="M06deS8VlxeRnnj21vpx-74" value="Mail" style="text;html=1;resizable=0;autosize=1;align=center;verticalAlign=middle;points=[];fillColor=none;strokeColor=none;rounded=0;dashed=1;" vertex="1" parent="M06deS8VlxeRnnj21vpx-72">
          <mxGeometry x="3.25" y="36" width="36" height="24" as="geometry" />
        </mxCell>
        <mxCell id="M06deS8VlxeRnnj21vpx-75" value="" style="group" vertex="1" connectable="0" parent="M06deS8VlxeRnnj21vpx-1">
          <mxGeometry x="744" y="348" width="69.25" height="60" as="geometry" />
        </mxCell>
        <mxCell id="M06deS8VlxeRnnj21vpx-76" value="" style="shape=image;verticalLabelPosition=bottom;labelBackgroundColor=#ffffff;verticalAlign=top;aspect=fixed;imageAspect=0;image=data:image/png,iVBORw0KGgoAAAANSUhEUgAAAEgAAABICAYAAABV7bNHAAAQX0lEQVR4Ae2c6VNU17rG/SPv1/vh1L2nKjknOUlMojGJiREQNYAakEHmSUQUFBBERSZlFlDmSRCQeR4cGPKc+i1cpBu7odm9UU/VWVVdu/e01rue9c7v6j6i/7Y9ETiy591DuPnnn39qa2tr57O5uSl/H8/neI/Ph24fDCAmt76+rrW1NS0uLmp2dlbPnz9XR0eHWltb9eDBA/MpLy/XkydP1N7eroGBAc3MzGhhYUGrq6vm/Q8N0qEAxCRY/bdv32p5eVljY2Pq6upSbW2tioqKlJOTo8TERKWkpCg9PV3Z2dnvfdLS0sz9pKQkc+/27duqqakxgI6Ojpp+6R/uO8zmOkAAs7GxYSYAFxQWFio5OVmRkZG6dOmSrl27ZjgFLunu7tbg4KBevnypiYkJ8xkfHzeAch1Qm5qazPNXr17VhQsXFBERIUADaLhvaWnJjMe4h8FdrgEEcawm4lNfX6/Y2Fj98ccfio+PV0lJifr7+81kELHXr1/rzZs3RmQQOwD11EOccx0O4Tme5z1Era+vT6WlpaZfAGechoYGMy7vuN2CBghgmAg65enTp7px44YRH44ABXe4pT8YCxDoD7F9/Pixrl+/roSEBN28eVPPnj0zdEAPHOVGCwogiGCFe3p6lJeXp4sXLyozM9MABeu7RaS/iQLY/Py8UeqIHRzLwvT29hquc2N8xwBZcSorK1N0dLTRC+gVlLJdQSZw2A06GG9lZcVwLPqOhUKsAY/7wbQDA8SqQNDIyIiwLHFxcbp3754RJbjJjVVzMiEW49WrV4Yuq6Nu3bplRBG6nC7WgQBiEMB58eKFESUUJHoGrnFKgBMw9noHOlDoWD/oQ+SxiOguJzQGDBCds0KYVqxHamqqsSgfk2v8AQUXY/nQjegmuLylpcWRXgoIIDtgc3OzsVD4Mni5EPGpNhYUbodOLB1AARLcdRBO2hcgz4Ewp1iJqakp47t8quB40sXi4nwWFBQYTurs7DyQuO0LEE4bPgfyTEjAdyzDQVbBk+CP8R39A92oBawcMSDzCqT5BQgALPo4YVeuXDEy/SmLlb8JWylAJwESUjA9PW04yd879rpfgAAHeb1z547hnra2tkPTOduLQaiynQaxxLl5ZAy4Bm8fpc28ArG+fgGCUwDl8uXLJoo+TGu1vr6hmfkl9T5/qdn5ZQPUYfiYgESY8ujRI2OJieH285F8AgT3TE5OGrFCuaGU6dzNtr2imwaQ2pYeXUot1vGz6YrNLFVjW5/mF1cEcG439CdxI/o0IyPDOJZ7eds+AYJ7qqqqjMuO1sdcutlYgDdv1zU2MavUvHIdDUvVVyHJikwr0Ze/JeubkBRdK6rR5Myi3q5vGF3o5vKgtEm1kGmoqKjYk4veA4iVxXcgYQXKgcjpQcBDzyBGFXXt+v5Mmr4KSdGl7DLVD4zp6diM6vrHFJ1zT1/+lqRj4emqaujQwtKqNjbdic6hlQXC6SVUwj/CDQA0X80LIF6Ee0h/kvHDRXeLe5jg8sorNT8bUHx2mb49k6awhALlV7ep5cWUemaW1De3rO7pRT0ZnlRexROFxRfo+LkMw2XPuoe1svrKFf0EEyBWMAJmHy4i2PWlRrwAAkXQxCEkSgccQAum8T5iMjW7qJyiGsM134SlKrO0znBNz8yi+udX3vv0zi6ptm9UKYU1hptOnM/UrXv1mp1feid2wQsd0gEzYIgAy5cu8gIIs37//n2TC4Z7fCF6ELC2tv404tHQ1qdfonL0r9PJ+j21WNWdQ2qfmNvhGl8A9c2tmPsdE3OqeDao0IQCfXkqSWdib+hp97CWVtaCXjzMPvMEoLt37xrp2T3nHYBYabQ7igsfgVyK04Y4ra69VnvPsDLyK3TsbIZCYm8qt7xZzUOTRowQJ1/A7L62LXYLah6aUHZZg07F5OmH85nKvl1l3ALGccrlgIFoUURA35IX393XDkCgScqS5DqJL6e6ByW8vPpKJRVP9NPvWWbVY6+Xq7Z3RF1TCwGBshskzuEo9FNN97Bic8v1xa+J+vVCjh7WPjPjMa4TT4R5EoTbYHZ3CLIDEFqdxBdpS/TQbiQD4SZEamhsSheSC/WPkwkKT7ytivZBISZWCfuafKDX4Cb6aR+f1d3mHsNN//otSdHpdzQxvaANB9lD9A7SAkCIGY6jZzMAwWrEJrm5ucZ58qfRPV/09X1za8tYqePh6cZ8F9d3qHVkylinQEEI5DlAahudUUFNm9FruAv9Q+NaDzAA9aQdRsByU55i/lRlPNsOQJRTKOLhIPKCkwZAeMHfhqXqb99HKzQuX/db+9QxMe86B5U0dumX6Ov6+4lYfRe2DRDW8qAN5oCLyEASkE9MTnp1sQMQcsgD5Jod6593AB0/m6HjEdmGi/7xa6LibzxUXd+oKzroUc8LxeU91OcnE/RteIZOXso1vlL/8Lgx/16zC/AEkEiBxMXFq7unz+utIxZByro4h7ZS6fVUgCeWg378PUuJ+ZUqrG03XvI3YWkKicvXzapW4wSibFG6gYiTp/OIFfw1Jk/4UX9cvaey5l4lFVQLH2lgeMIxQEyP+l1yWoYir1d5zdYABMfgGFLexRfy5TB5veXnxAL0c+RVZZTUqn18znjJBdVt+v5cptEXURmlxqJ1Ts4LZ3AvkLjPczVdwzqXXKgvTiXpRNRVFdd3qmVkytzLKq031jJYgNDBWbk39D+heV6zO4KSsnEJsUkwaQ1PgDJLao31YpKYd7xiVv3L08kGrLyKFrW8mPQLEpzThO9zr1Ffhabo67BUI1oNAy/VObVgdBr9ugUQZe3iOyVKzMjV+MyC1ta3IwgDEFxD1hAzBzc5MfHA/j5A8zscQkjRNjqt/Ko2hSXcMhOOTC9RaVO3CVItN/EcQSviGZF2R0fPpOlsUqE5bx2dfqfs8YuW1TW16BpANuzIysrysmRHECeSSFQq2JtDPIZectL2AsiKEia6vn9Mybeq9dnJBB0NT1dmSZ0RGSuSxF9fh6YKBZ9S+EiNz8eNk2j74Og2QGBQWVlp/CG4yTYDEH4PAFVXV5u05GEC1De/YsQK5/FBW79C4wv0+S9X9GNUjlKLHunY71n67Od4nU8pUmXHkNEzcBeAHCZAuDZshsCSf1SA7CQNB0xv66a04sf6ISJbf/8xTieicpR1t15G10wu+LV2bnMQephUrE+AYC+Kax9CxCxA9ghHoXMw4Th9d5t6jFLfzTH2eXt0GyArYuSHvDgIhWyVdLA5oEB0kJ2g5xFxK3zcbnRSVefQe+Lk+az97jZAKGlSPe8pac9YBDOPLB6GFbMT83XsmJxXUV270UXkinw9s/ua2wARsJLmYZ8TzrJtxlHEchHJkxdxy1Hc9oP+MvO7J+h5/ikAROUGcOAijJZtJhaDY1BQboUaeNL/aQBRmiZYb2xsNEziBRBmnZ0PAMTen2CD1f80gJg/m0ypuJLV8MwJ7UTzJK3ZbIQvFEy6o+lpv36KyDY+zbOXswEpXCci1ju7bGK9jDu1IjgmFnNSaAQcsoh1dXXb6Y4J+vmrBLQDEPloZBA285RBy2qBHLFiLR2D+uFchk5dvqHypwPG0fPUN76+HxQgFDRB7P2WPp2OvWmi+cEXk1rfOPh+RGuk8vPzjbNMwswzWDcAMXnPlKvd4hIIKJ7PsBrU2IvLm/RjRJZ+vnjNRPUNgy/39G0CBWjbci2ofuClUgtrdCIyWyejrqq0skWLy86qHHAPkTzqBTcH6WEetu0AxIPsbI+KijJJbE85tA8HcqTzldXX6h4YVXjsTZEzDo3PN6UbYi1fuen9ANouAS2aXPSD1j6TJCNpT+4b0Vp7xebRvyYVCJ32GfSt2fgen6hHDc1ae7OuTY++dgBiYvgClH2Ki4uDKvtsGbne1OzCsooeNBkRIPhMK3psAlVA8hS1/QAiFnvcM6LEgkr981Si4Zqy6tbtDQ4bzjdzmcVcWVFmZpZ+upCikKIeNY6safnNlizcOwCBKGJGGZa6PAU15NOT3SzqgR4pxay8q4+l5JXru/B0E5zeqnlqkvnbQeiK/AFE5pGy9PWHT0xGkjJ0ZkGluvpHTd2N/oNpKOOBgUHFXL6ssNQin115AcQLyCPxCI5jMMkzz9EAmg0INY1dOhqaqq9OJyvhZoUpBqJssXZFtdueNKEGForr1Ohjrt03Oz7YyFDT2Gkqqk7KO5702O8mB1RerujoGHUMjNrLXkcvgOAWZNJuXsAn8jR5Xm8e8AQd8fbthsYn58xmBLa4fHcu0+SpUeIkyEh7VHY8N4m1nPuN+u5shr4+naycwhpNzS5pfX3Tsa7ZTS6Lhs/DPgR+prWyurr7EXPuBRBXeBFgCNqoE7n5mwsWYGNj01i6+pZeRSUV6tj5TFOvv5z7QH87Fm1SHRFpxUYcKQjazVROSjo+Z/xujkTv1MLYREWY4Y8R3gOITjF11MfYMI5lc+pZ+yOQ63AT1dCrt6v1xS9X9P8/XNb/Hr2o/zseo29CU3SrrF7Ts4umWhqMHtxNg5UStheS+yFJxvz8jeETIB7mp5CUY3GgQNjtxhg4luw0a+t6rvPx+frspzhFJt1WZ9+IXr9Zd5xV2ItWJGRubs44xFRx2GrINX/NJ0A8DBexmQEZRScFE+X7G5zrAPX6zVuNjs+KbTKTMwsGNFwFtxtjoTIePnyomJgYs+N1L+5hfL8A4W4DCt4l+2eovOIG7IW22xNysz/oxiqzDZj5kNbAigHaXs0vQLzEy5h9xIzfYLHx0amHvRcRH+IeShh9ikQQc+IUe8Zc/mjYEyBeomObK2GT0fDwsOl4P+T9DfgxriNG0I0DjHXmO6FVIHPYFyAmBNfQKVqf8hDo7ye7HwOI3WMCAAuMFFAYRe+wSYFrgYBDfwEBZAdCD8GiWDfyR4D0KTfog064hh/jYHR2R+v70R8QQHQCSOSJ2FjOD0JgV/4xAcUdiCzvR4ib96EVRxD6+PMCaOWHgE4sccAA2QkgbugkVgWWJZeNNTgI29q+3D4CDLqFheR3GHANi8nWFqcq4cAAQQQmE+eRfz9g0yfHoaGhgBWf28DY/lgkNoDx+xKiAMpYOLyBKmTbj+fxwADZlxkUZU2gZ0WO3SFw10Hl3Pbp5Gj9G8bFZ0Ok0JHQRRo5GHCgxzFAvGyJY9XwldghC1hsIya3C1DBEugLNMalX/qnTMz+QkBB5CmhE2yjG+H2YFtQADG4FTl0ExYDcwp7k1NiFSGWe24QaycLMCyK5V7SxPyKEEeQewDo1nhBA2SJhih0AIEghKIH8JvgKFaV7AC1JzgLCwNoe3EXE8Q68hzWh/fIcmIU6A9RIj0M5/IvM4zrVBHbOfg6ugaQZ+dMHEsCINS7YX3iHwpzmFyylVQwSVgRTaNI0RfoNI6c8+E3pogPz2M1AcT2Q784fVjQvYD2pMvJ90MBCEKs6MEFgIX4sfr8XQRJKiaLBQwNDVVISIjCw8ONaJ49e1anT5/WmTNnzP8F4ZhS0OQ9RAouoj/6dVOU/IF3aAB5DmjFD/2AqOAi8C9ScAD/1AKn8OG7PYe7cB2wToQKpCl4HzGmvw/VPghAH2oyhzHOfwHaB9V/A1wv2IXPy43iAAAAAElFTkSuQmCC;" vertex="1" parent="M06deS8VlxeRnnj21vpx-75">
          <mxGeometry width="42" height="42" as="geometry" />
        </mxCell>
        <mxCell id="M06deS8VlxeRnnj21vpx-77" value="Host" style="text;html=1;resizable=0;autosize=1;align=center;verticalAlign=middle;points=[];fillColor=none;strokeColor=none;rounded=0;dashed=1;" vertex="1" parent="M06deS8VlxeRnnj21vpx-75">
          <mxGeometry x="0.25" y="36" width="42" height="24" as="geometry" />
        </mxCell>
        <mxCell id="M06deS8VlxeRnnj21vpx-80" value="" style="group" vertex="1" connectable="0" parent="M06deS8VlxeRnnj21vpx-1">
          <mxGeometry x="411.25" y="120" width="60" height="48" as="geometry" />
        </mxCell>
        <mxCell id="M06deS8VlxeRnnj21vpx-78" value="" style="html=1;dashed=0;whitespace=wrap;fillColor=#2875E2;strokeColor=#ffffff;points=[[0.005,0.63,0],[0.1,0.2,0],[0.9,0.2,0],[0.5,0,0],[0.995,0.63,0],[0.72,0.99,0],[0.5,1,0],[0.28,0.99,0]];shape=mxgraph.kubernetes.icon;prIcon=pod;rounded=1;" vertex="1" parent="M06deS8VlxeRnnj21vpx-80">
          <mxGeometry x="2.75" width="36.25" height="30" as="geometry" />
        </mxCell>
        <mxCell id="M06deS8VlxeRnnj21vpx-79" value="k8-pods" style="text;html=1;resizable=0;autosize=1;align=center;verticalAlign=middle;points=[];fillColor=none;strokeColor=none;rounded=0;dashed=1;" vertex="1" parent="M06deS8VlxeRnnj21vpx-80">
          <mxGeometry y="24" width="60" height="24" as="geometry" />
        </mxCell>
        <mxCell id="M06deS8VlxeRnnj21vpx-81" value="" style="group" vertex="1" connectable="0" parent="M06deS8VlxeRnnj21vpx-1">
          <mxGeometry x="798" y="120" width="60" height="48" as="geometry" />
        </mxCell>
        <mxCell id="M06deS8VlxeRnnj21vpx-82" value="" style="html=1;dashed=0;whitespace=wrap;fillColor=#2875E2;strokeColor=#ffffff;points=[[0.005,0.63,0],[0.1,0.2,0],[0.9,0.2,0],[0.5,0,0],[0.995,0.63,0],[0.72,0.99,0],[0.5,1,0],[0.28,0.99,0]];shape=mxgraph.kubernetes.icon;prIcon=pod;rounded=1;" vertex="1" parent="M06deS8VlxeRnnj21vpx-81">
          <mxGeometry x="2.75" width="36.25" height="30" as="geometry" />
        </mxCell>
        <mxCell id="M06deS8VlxeRnnj21vpx-83" value="k8-pods" style="text;html=1;resizable=0;autosize=1;align=center;verticalAlign=middle;points=[];fillColor=none;strokeColor=none;rounded=0;dashed=1;" vertex="1" parent="M06deS8VlxeRnnj21vpx-81">
          <mxGeometry y="24" width="60" height="24" as="geometry" />
        </mxCell>
        <mxCell id="M06deS8VlxeRnnj21vpx-89" value="" style="group" vertex="1" connectable="0" parent="M06deS8VlxeRnnj21vpx-1">
          <mxGeometry x="1026" y="164" width="84" height="88" as="geometry" />
        </mxCell>
        <mxCell id="M06deS8VlxeRnnj21vpx-86" value="" style="aspect=fixed;html=1;points=[];align=center;image;fontSize=12;image=img/lib/azure2/databases/Cache_Redis.svg;rounded=1;dashed=1;strokeColor=#3399FF;" vertex="1" parent="M06deS8VlxeRnnj21vpx-89">
          <mxGeometry x="6" width="64" height="52" as="geometry" />
        </mxCell>
        <mxCell id="M06deS8VlxeRnnj21vpx-87" value="Azure cache &lt;br&gt;for Redis" style="text;html=1;resizable=0;autosize=1;align=center;verticalAlign=middle;points=[];fillColor=none;strokeColor=none;rounded=0;dashed=1;" vertex="1" parent="M06deS8VlxeRnnj21vpx-89">
          <mxGeometry y="52" width="84" height="36" as="geometry" />
        </mxCell>
        <mxCell id="M06deS8VlxeRnnj21vpx-91" value="" style="aspect=fixed;html=1;points=[];align=center;image;fontSize=12;image=img/lib/azure2/databases/Cache_Redis.svg;rounded=1;dashed=1;strokeColor=#3399FF;" vertex="1" parent="M06deS8VlxeRnnj21vpx-1">
          <mxGeometry x="1046" y="290" width="64" height="52" as="geometry" />
        </mxCell>
        <mxCell id="M06deS8VlxeRnnj21vpx-90" value="" style="shape=image;verticalLabelPosition=bottom;labelBackgroundColor=#ffffff;verticalAlign=top;aspect=fixed;imageAspect=0;image=data:image/svg+xml,PHN2ZyB4bWxuczpjYz0iaHR0cDovL2NyZWF0aXZlY29tbW9ucy5vcmcvbnMjIiB4bWxuczpkYz0iaHR0cDovL3B1cmwub3JnL2RjL2VsZW1lbnRzLzEuMS8iIHhtbG5zOmlua3NjYXBlPSJodHRwOi8vd3d3Lmlua3NjYXBlLm9yZy9uYW1lc3BhY2VzL2lua3NjYXBlIiB4bWxuczpyZGY9Imh0dHA6Ly93d3cudzMub3JnLzE5OTkvMDIvMjItcmRmLXN5bnRheC1ucyMiIHhtbG5zOnNvZGlwb2RpPSJodHRwOi8vc29kaXBvZGkuc291cmNlZm9yZ2UubmV0L0RURC9zb2RpcG9kaS0wLmR0ZCIgeG1sbnM6c3ZnPSJodHRwOi8vd3d3LnczLm9yZy8yMDAwL3N2ZyIgeG1sbnM9Imh0dHA6Ly93d3cudzMub3JnLzIwMDAvc3ZnIiB4bWxuczp4bGluaz0iaHR0cDovL3d3dy53My5vcmcvMTk5OS94bGluayIgdmVyc2lvbj0iMS4xIiBpZD0ic3ZnMTAxMjg5IiBpbmtzY2FwZTp2ZXJzaW9uPSIwLjkyLjMgKDI0MDU1NDYsIDIwMTgtMDMtMTEpIiBzb2RpcG9kaTpkb2NuYW1lPSJtb25nb2RiLnN2ZyIgeD0iMHB4IiB5PSIwcHgiIHZpZXdCb3g9IjAgMCAxMDEuMjggNjQuNDYiIHN0eWxlPSJlbmFibGUtYmFja2dyb3VuZDpuZXcgMCAwIDEwMS4yOCA2NC40NjsiIHhtbDpzcGFjZT0icHJlc2VydmUiPiYjeGE7PHNvZGlwb2RpOm5hbWVkdmlldyBib3JkZXJjb2xvcj0iIzY2NjY2NiIgYm9yZGVyb3BhY2l0eT0iMSIgZml0LW1hcmdpbi1ib3R0b209IjAiIGZpdC1tYXJnaW4tbGVmdD0iMCIgZml0LW1hcmdpbi1yaWdodD0iMCIgZml0LW1hcmdpbi10b3A9IjAiIGdyaWR0b2xlcmFuY2U9IjEwIiBndWlkZXRvbGVyYW5jZT0iMTAiIGlkPSJuYW1lZHZpZXcxMDEyOTEiIGlua3NjYXBlOmN1cnJlbnQtbGF5ZXI9InN2ZzEwMTI4OSIgaW5rc2NhcGU6Y3g9IjY3LjUyMzY1MyIgaW5rc2NhcGU6Y3k9IjQzLjE3NTI0NCIgaW5rc2NhcGU6cGFnZW9wYWNpdHk9IjAiIGlua3NjYXBlOnBhZ2VzaGFkb3c9IjIiIGlua3NjYXBlOndpbmRvdy1oZWlnaHQ9IjEwMTciIGlua3NjYXBlOndpbmRvdy1tYXhpbWl6ZWQ9IjEiIGlua3NjYXBlOndpbmRvdy13aWR0aD0iMTkyMCIgaW5rc2NhcGU6d2luZG93LXg9Ii04IiBpbmtzY2FwZTp3aW5kb3cteT0iLTgiIGlua3NjYXBlOnpvb209IjkuODQ1NDgxNCIgb2JqZWN0dG9sZXJhbmNlPSIxMCIgcGFnZWNvbG9yPSIjZmZmZmZmIiBzaG93Z3JpZD0iZmFsc2UiPiYjeGE7CTwvc29kaXBvZGk6bmFtZWR2aWV3PiYjeGE7PGcgaWQ9ImcxMDEyODciIHRyYW5zZm9ybT0idHJhbnNsYXRlKC0wLjY0NTM3OTIxLC0wLjk0MzY1ODU5KSI+JiN4YTsJPHRpdGxlIGlkPSJ0aXRsZTEwMTIxNyI+UGFnZS0xPC90aXRsZT4mI3hhOwk8ZyBpZD0iZ3JvdXAzOTM5LTEiIHRyYW5zZm9ybT0idHJhbnNsYXRlKDAuNTc1NTk0LC0wLjU4MDQ2NikiPiYjeGE7CQk8dGl0bGUgaWQ9InRpdGxlMTAxMjE5Ij5Nb25nb0RCPC90aXRsZT4mI3hhOwkJPGcgaWQ9Imdyb3VwMzk0MC0yIj4mI3hhOwkJCTx0aXRsZSBpZD0idGl0bGUxMDEyMjEiPkxheWVyIDE8L3RpdGxlPiYjeGE7CQkJPGcgaWQ9Imdyb3VwMzk0MS0zIj4mI3hhOwkJCQk8dGl0bGUgaWQ9InRpdGxlMTAxMjIzIj5zdmdfMTwvdGl0bGU+JiN4YTsJCQkJPGcgaWQ9Imdyb3VwMzk0Mi00IiB0cmFuc2Zvcm09InRyYW5zbGF0ZSgzOS4zOTksLTIwLjUxMTUpIj4mI3hhOwkJCQkJPHRpdGxlIGlkPSJ0aXRsZTEwMTIyNSI+Zzg2MjwvdGl0bGU+JiN4YTsJCQkJCTxnIGlkPSJzaGFwZTM5NDMtNSIgdHJhbnNmb3JtPSJ0cmFuc2xhdGUoOS43MDgzNywtNS44MDEwNykiPiYjeGE7CQkJCQkJPHRpdGxlIGlkPSJ0aXRsZTEwMTIyNyI+cGF0aDI8L3RpdGxlPiYjeGE7CQkJCQkJPHBhdGggaWQ9InBhdGgxMDEyMjkiIGlua3NjYXBlOmNvbm5lY3Rvci1jdXJ2YXR1cmU9IjAiIHN0eWxlPSJmaWxsOiM1OTk2MzY7IiBkPSJNMC4xNCwyNy45NmMwLjM0LDAuNjIsMC43OSwxLjYsMS4xOCwyLjIgICAgICAgIGMwLjI2LDAuNDEsMC41NSwwLjc3LDAuODksMS4xYzAuOTgsMC45OSwxLjkxLDIuMDIsMi43NSwzLjEyYzEuOTksMi42MSwzLjMzLDUuNTEsNC4yOSw4LjY1YzAuNTgsMS45MiwwLjg5LDMuODksMC45MSw1Ljg4ICAgICAgICBjMC4xLDUuOTQtMS45NCwxMS4wNS02LjA2LDE1LjI5Yy0wLjY3LDAuNjctMS4zOSwxLjI5LTIuMTYsMS44NWMtMC40MSwwLTAuNi0wLjMyLTAuNzctMC42Yy0wLjMxLTAuNTMtMC41LTEuMTMtMC41OS0xLjczICAgICAgICBjLTAuMTUtMC43Mi0wLjI0LTEuNDQtMC4yLTIuMThjMC0wLjEyLDAtMC4yMiwwLTAuMzRDMC4zNiw2MS4xMywwLDI4LjEyLDAuMTQsMjcuOTZ6Ii8+JiN4YTsJCQkJCTwvZz4mI3hhOwkJCQkJPGcgaWQ9InNoYXBlMzk0NC03IiB0cmFuc2Zvcm09InRyYW5zbGF0ZSgwLC01LjM5MzU3KSI+JiN4YTsJCQkJCQk8dGl0bGUgaWQ9InRpdGxlMTAxMjMyIj5wYXRoODwvdGl0bGU+JiN4YTsJCQkJCQk8cGF0aCBpZD0icGF0aDEwMTIzNCIgaW5rc2NhcGU6Y29ubmVjdG9yLWN1cnZhdHVyZT0iMCIgc3R5bGU9ImZpbGw6IzZDQUM0ODsiIGQ9Ik05Ljg1LDI3LjQ4Yy0wLjA1LTAuMS0wLjA5LTAuMDMtMC4xNCwwLjAyICAgICAgICBjMC4wMiwwLjQ4LTAuMTUsMC45MS0wLjQxLDEuMzJjLTAuMjksMC40MS0wLjY3LDAuNzItMS4wNSwxLjA1Yy0yLjE0LDEuODUtMy44Miw0LjA4LTUuMTYsNi41NyAgICAgICAgYy0xLjc3LDMuMzYtMi43MSw2Ljk1LTIuOTcsMTAuNzRDMCw0OC41NSwwLjU1LDUzLjM2LDAuOTgsNTQuNzZjMS4xOCwzLjY5LDMuMjksNi43OCw2LjAyLDkuNDYgICAgICAgIGMwLjY3LDAuNjUsMS4zOSwxLjI1LDIuMTMsMS44M2MwLjIyLDAsMC4yNC0wLjIsMC4yOS0wLjM0YzAuMS0wLjMxLDAuMTctMC42MiwwLjIyLTAuOTNjMC4yMS0xLjIsMC4zMy0yLjQsMC40OC0zLjYgICAgICAgIEMxMC4xMiw2MS4wNCw5LjkyLDI3LjYsOS44NSwyNy40OHoiLz4mI3hhOwkJCQkJPC9nPiYjeGE7CQkJCQk8ZyBpZD0ic2hhcGUzOTQ1LTkiIHRyYW5zZm9ybT0idHJhbnNsYXRlKDkuMTMzMDcpIj4mI3hhOwkJCQkJCTx0aXRsZSBpZD0idGl0bGUxMDEyMzciPnBhdGgxMDwvdGl0bGU+JiN4YTsJCQkJCQk8cGF0aCBpZD0icGF0aDEwMTIzOSIgaW5rc2NhcGU6Y29ubmVjdG9yLWN1cnZhdHVyZT0iMCIgc3R5bGU9ImZpbGw6I0MyQkZCRjsiIGQ9Ik0xLjg5LDYxLjcxYzAuMDUtMC41NSwwLjMyLTEuMDEsMC42LTEuNDcgICAgICAgIGMtMC4yOC0wLjEyLTAuNS0wLjM2LTAuNjctMC42MmMtMC4xNC0wLjI0LTAuMjYtMC41My0wLjM2LTAuNzljLTAuMzMtMS4wMS0wLjQxLTIuMDYtMC41LTMuMDlsMCwwYzAtMC4xLDAtMC4yMiwwLTAuMzFsMCwwICAgICAgICBjMC0wLjEsMC0wLjIyLDAtMC4zMmMtMC4xMiwwLjEtMC4xNCwwLjkyLTAuMTQsMS4wNGMtMC4wOCwxLjEtMC4yMiwyLjE4LTAuNDQsMy4yM0MwLjMxLDU5LjgxLDAuMjYsNjAuMjQsMCw2MC42MyAgICAgICAgYzAsMC4wNSwwLDAuMDksMC4wMiwwLjE3YzAuNDQsMS4yNywwLjU2LDIuNTYsMC42MywzLjg4YzAsMC4xNywwLDAuMzEsMCwwLjQ4YzAsMC41Ny0wLjAzLDAuNDUsMC40NSwwLjY1ICAgICAgICBjMC4xOSwwLjA3LDAuNDEsMC4wOSwwLjYsMC4yNGMwLjE1LDAsMC4xNy0wLjEyLDAuMTctMC4yMkMxLjg1LDY1LjU3LDEuOCw2NS4zLDEuOCw2NS4wNGMwLTAuNzQtMC4wMy0xLjQ2LDAtMi4yMSAgICAgICAgQzEuNzcsNjIuNDUsMS44NSw2Mi4wNywxLjg5LDYxLjcxeiIvPiYjeGE7CQkJCQk8L2c+JiN4YTsJCQkJPC9nPiYjeGE7CQkJCTxnIGlkPSJncm91cDM5NDYtMTEiPiYjeGE7CQkJCQk8dGl0bGUgaWQ9InRpdGxlMTAxMjQzIj5nODgwPC90aXRsZT4mI3hhOwkJCQkJPGcgaWQ9InNoYXBlMzk0Ny0xMiIgdHJhbnNmb3JtPSJ0cmFuc2xhdGUoMCwtNi4xMTU1NikiPiYjeGE7CQkJCQkJPHRpdGxlIGlkPSJ0aXRsZTEwMTI0NSI+cGF0aDQ8L3RpdGxlPiYjeGE7CQkJCQkJPHBhdGggaWQ9InBhdGgxMDEyNDciIGlua3NjYXBlOmNvbm5lY3Rvci1jdXJ2YXR1cmU9IjAiIHN0eWxlPSJmaWxsOiM0NzQ3NEE7IiBkPSJNMy44NSw2MS40N2MwLDAuODgsMCwxLjc2LDAsMi42MiAgICAgICAgYzAsMC4xMSwwLDAuMjEsMC4wMiwwLjMxYzAuMDMsMC4zMiwwLjIyLDAuNTEsMC41MiwwLjU5YzAuMjYsMC4wNywwLjUzLDAuMTIsMC43OSwwLjE2YzAuMTYsMC4wMSwwLjIxLDAuMDgsMC4yMywwLjI0ICAgICAgICBjMC4wMSwwLjU5LTAuMDQsMC42Ni0wLjYxLDAuNjJjLTEuMzMtMC4wNy0yLjY2LTAuMDktMy45OSwwYy0wLjA1LDAtMC4xLDAtMC4xNCwwYy0wLjQxLDAuMDItMC40NS0wLjAyLTAuNDUtMC40MyAgICAgICAgYzAtMC4wNywwLjAyLTAuMTYsMC4wMi0wLjIzYzAtMC4xMywwLjA5LTAuMTksMC4yMS0wLjE5YzAuMjgtMC4wMywwLjUzLTAuMSwwLjc5LTAuMTVjMC4zNy0wLjA5LDAuNTctMC4zMSwwLjYxLTAuNjcgICAgICAgIGMwLjA1LTAuNCwwLjA1LTAuODIsMC4wNS0xLjIxYzAuMDUtMS41NCwwLjAzLTMuMSwwLjAyLTQuNjNjMC0wLjMtMC4xMi0wLjUyLTAuMzgtMC42NmMtMC4zMS0wLjE3LTAuNjQtMC4zMS0wLjk5LTAuNDIgICAgICAgIGMtMC4xLTAuMDMtMC4yLTAuMDUtMC4yOS0wLjFDMC4wMiw1Ny4yLDAsNTYuOTgsMC4yNCw1Ni44NGMwLjA5LTAuMDUsMC4xOS0wLjA5LDAuMy0wLjExYzEuMDUtMC4xNSwyLjA3LTAuNDEsMy4wNy0wLjc3ICAgICAgICBjMC4yMS0wLjA3LDAuMjYtMC4wNiwwLjI4LDAuMTVjMC4wMSwwLjE0LDAsMC4yOC0wLjAyLDAuNGMtMC4wMywwLjIyLTAuMDMsMC40NS0wLjAzLDAuNjZjMCwwLjA4LDAuMDEsMC4xNywwLjEsMC4yMiAgICAgICAgYzAuMDksMC4wNSwwLjE3LDAsMC4yNC0wLjA1YzAuMzYtMC4yOCwwLjczLTAuNTQsMS4xMi0wLjc2YzAuNTctMC4zMSwxLjE4LTAuNTksMS44My0wLjY4YzAuOC0wLjEsMS40OSwwLjExLDIuMSwwLjYzICAgICAgICBjMC4yNSwwLjIyLDAuNDYsMC40OCwwLjY1LDAuNzZjMC4xNywwLjI0LDAuMTksMC4yNiwwLjQyLDAuMDhjMC42NS0wLjQ4LDEuMzQtMC45MSwyLjA5LTEuMjJjMC43Ny0wLjMzLDEuNTctMC4zOCwyLjM2LTAuMTEgICAgICAgIGMwLjgyLDAuMywxLjM3LDAuODcsMS43LDEuNjRjMC4yNywwLjYzLDAuMzksMS4yOCwwLjM5LDEuOTRjMCwxLjAyLDAsMi4wNCwwLDMuMDdjMCwwLjUyLDAsMS4wNCwwLDEuNTYgICAgICAgIGMwLDAuMzEsMC4xNCwwLjUyLDAuNDQsMC42NmMwLjMyLDAuMTMsMC42OSwwLjE5LDEuMDMsMC4yNWMwLjIzLDAuMDYsMC4yMywwLjA2LDAuMjMsMC4yOGMtMC4wNCwwLjU3LTAuMDksMC42MS0wLjY0LDAuNTcgICAgICAgIGMtMS4zOC0wLjA5LTIuNzgtMC4wNy00LjE3LDBjLTAuMjcsMC4wMi0wLjI3LDAuMDItMC4yOS0wLjI2YzAtMC4wMywwLTAuMDUsMC0wLjA4Yy0wLjAyLTAuNDctMC4wMi0wLjQ3LDAuNDMtMC41NyAgICAgICAgYzAuMTYtMC4wNCwwLjMtMC4wNywwLjQ1LTAuMTNjMC4zNS0wLjEsMC41Mi0wLjMyLDAuNTQtMC42N2MwLjAxLTAuNDMsMC4wMy0wLjg2LDAuMDUtMS4yOWMwLTEuMTMsMC4wMy0yLjI3LTAuMDQtMy4zOSAgICAgICAgYy0wLjAxLTAuMjktMC4wNi0wLjU5LTAuMTktMC44OGMtMC40My0xLjA2LTEuMzgtMS40NC0yLjI5LTEuMzNjLTAuNjksMC4wNy0xLjMsMC4zNC0xLjg3LDAuNzQgICAgICAgIGMtMC4xMiwwLjA5LTAuMjEsMC4xOS0wLjE5LDAuMzZjMC4xNiwxLjExLDAuMDUsMi4yMSwwLjA3LDMuMzJjMC4wMiwwLjc5LDAsMS42MSwwLDIuNGMwLDAuNDMsMC4xNywwLjY0LDAuNTksMC43NCAgICAgICAgYzAuMjYsMC4wNywwLjUyLDAuMTMsMC43OSwwLjE4YzAuMTIsMC4wMSwwLjE5LDAuMDcsMC4xOSwwLjJjMCwwLjA2LDAsMC4xMSwwLDAuMTRjLTAuMDIsMC40OS0wLjA1LDAuNTItMC41MywwLjUgICAgICAgIGMtMS4zOS0wLjA3LTIuNzctMC4wNS00LjEzLDBjLTAuNDcsMC4wMi0wLjUyLTAuMDMtMC40OS0wLjUxYzAuMDItMC4yOCwwLjA2LTAuMywwLjMxLTAuMzVjMC4xOS0wLjAzLDAuMzgtMC4wNywwLjU3LTAuMSAgICAgICAgYzAuNTItMC4xMSwwLjctMC4zLDAuNzMtMC44M2MwLjAyLTAuMzgsMC4wNS0wLjc4LDAuMDUtMS4xNmMwLjAyLTEuMTYsMC4wNS0yLjMyLTAuMDMtMy40N2MtMC4wNC0wLjQzLTAuMTQtMC44NS0wLjM3LTEuMjUgICAgICAgIGMtMC4zNC0wLjY0LTAuODktMC45Ni0xLjYyLTFjLTAuNzQtMC4wNS0xLjQsMC4yMy0yLjAyLDAuNTdjLTAuNDMsMC4yNC0wLjYyLDAuNTUtMC41OSwxLjA2ICAgICAgICBDMy44Nyw1OS44MSwzLjg0LDYwLjY0LDMuODUsNjEuNDdDMy44NCw2MS40NywzLjg1LDYxLjQ3LDMuODUsNjEuNDdDMy44NSw2MS40NywzLjg1LDYxLjQ3LDMuODUsNjEuNDd6Ii8+JiN4YTsJCQkJCTwvZz4mI3hhOwkJCQkJPGcgaWQ9Imdyb3VwMzk0OC0xNCIgdHJhbnNmb3JtPSJ0cmFuc2xhdGUoMjAuMzY3OSkiPiYjeGE7CQkJCQkJPHRpdGxlIGlkPSJ0aXRsZTEwMTI1MCI+Zzg3MDwvdGl0bGU+JiN4YTsJCQkJCQk8ZyBpZD0ic2hhcGUzOTQ5LTE1IiB0cmFuc2Zvcm09InRyYW5zbGF0ZSgxMS45NzIsLTUuOTYwMDYpIj4mI3hhOwkJCQkJCQk8dGl0bGUgaWQ9InRpdGxlMTAxMjUyIj5wYXRoNjwvdGl0bGU+JiN4YTsJCQkJCQkJPHBhdGggaWQ9InBhdGgxMDEyNTQiIGlua3NjYXBlOmNvbm5lY3Rvci1jdXJ2YXR1cmU9IjAiIHN0eWxlPSJmaWxsOiM0NzQ3NEE7IiBkPSJNNC4wNiw2MS40MmMwLDAuODEsMCwxLjYyLDAsMi40MyAgICAgICAgIGMwLDAuMTcsMC4wMiwwLjM1LDAuMDMsMC41MmMwLjA0LDAuMjYsMC4xOCwwLjQxLDAuNDIsMC40OGMwLjI5LDAuMDksMC42LDAuMTQsMC45MSwwLjE2YzAuMTgsMC4wMiwwLjIxLDAuMDksMC4yMywwLjIyICAgICAgICAgYzAsMC4wNCwwLDAuMDcsMCwwLjEyYy0wLjAyLDAuNjEtMC4wOSwwLjY4LTAuNjcsMC42NGMtMS4zMi0wLjA4LTIuNjMtMC4wNy0zLjk0LDBjLTAuMTgsMC0wLjM1LDAuMDItMC41MiwwLjAyICAgICAgICAgYy0wLjExLDAtMC4xNC0wLjA1LTAuMTYtMC4xMmMtMC4wNS0wLjI0LTAuMDUtMC40OCwwLTAuNzNjMC4wMi0wLjEsMC4wOS0wLjEzLDAuMTktMC4xNWMwLjI0LTAuMDQsMC40Ny0wLjA5LDAuNzEtMC4xNCAgICAgICAgIGMwLjQzLTAuMSwwLjU5LTAuMjgsMC42MS0wLjcyYzAuMDMtMC40OSwwLjA1LTAuOTcsMC4wNS0xLjQ2YzAtMS40MSwwLTIuODMsMC00LjI1YzAtMC4zMS0wLjEyLTAuNS0wLjQtMC42NCAgICAgICAgIGMtMC4zMS0wLjE3LTAuNjQtMC4yOS0wLjk4LTAuNDFjLTAuMTEtMC4wMy0wLjIxLTAuMDctMC4zLTAuMTJDMC4wMiw1Ny4xMSwwLDU2Ljg5LDAuMjEsNTYuNzJjMC4xLTAuMDksMC4yLTAuMTIsMC4zNC0wLjE0ICAgICAgICAgYzEuMTEtMC4xNywyLjE4LTAuNDIsMy4yMi0wLjgzYzAuMTItMC4wNSwwLjE3LTAuMDIsMC4yMiwwLjA5YzAuMDUsMC4xLDAuMDcsMC4yMiwwLjA1LDAuMzRjLTAuMDEsMC4yOC0wLjAzLDAuNTQtMC4wNSwwLjgxICAgICAgICAgYzAsMC4xMS0wLjA1LDAuMjQsMC4wNCwwLjNjMC4xLDAuMDcsMC4xNy0wLjA5LDAuMjUtMC4xNGMwLjUyLTAuNDIsMS4wOC0wLjgsMS42OC0xLjA3YzAuNTQtMC4yNCwxLjA5LTAuNDIsMS43MS0wLjM4ICAgICAgICAgYzEuMTYsMC4wNywxLjk5LDAuNjUsMi41MiwxLjY3YzAuMjgsMC41NCwwLjQsMS4xMywwLjQ1LDEuNzNjMC4wNCwwLjQyLDAuMDUsMC44NSwwLjA1LDEuMjhjMCwxLjE5LDAuMDIsMi4zNywwLjAyLDMuNTYgICAgICAgICBjMCwwLjA4LDAsMC4xNywwLDAuMjZjMC4wMiwwLjI5LDAuMTIsMC40OCwwLjQyLDAuNThjMC4zMSwwLjExLDAuNiwwLjE4LDAuOTMsMC4yM2MwLjI3LDAuMDMsMC4yOSwwLjA5LDAuMzEsMC4zNCAgICAgICAgIGMwLDAuMDQsMCwwLjA2LDAsMC4wOWMtMC4wNCwwLjU5LTAuMDcsMC42MS0wLjY2LDAuNTdjLTEuMjktMC4wNy0yLjU5LTAuMDctMy44NywwYy0wLjE3LDAuMDItMC4zNCwwLTAuNTIsMC4wMiAgICAgICAgIGMtMC4xLDAtMC4xNy0wLjAyLTAuMTktMC4xMmMtMC4wMy0wLjIzLTAuMDYtMC40NS0wLjAxLTAuNjljMC4wMS0wLjExLDAuMDctMC4xNiwwLjE5LTAuMThjMC4yNi0wLjAzLDAuNTMtMC4wNywwLjc5LTAuMTMgICAgICAgICBjMC4yOC0wLjA3LDAuNDMtMC4yNSwwLjQ3LTAuNTJjMC4wMi0wLjE2LDAuMDMtMC4zMywwLjAzLTAuNDljMC0xLjIxLDAtMi40Mi0wLjAxLTMuNjFjMC0wLjQxLTAuMDItMC44My0wLjExLTEuMjQgICAgICAgICBjLTAuMi0wLjktMC44OC0xLjUtMS43OS0xLjYxYy0wLjgtMC4wOC0xLjUxLDAuMTItMi4xOCwwLjU2Yy0wLjMzLDAuMi0wLjQ3LDAuNS0wLjQ3LDAuODZjMCwwLjYsMCwxLjIxLDAsMS44MyAgICAgICAgIGMwLDAuMjYsMCwwLjUyLDAsMC43OEM0LjA0LDYxLjQyLDQuMDQsNjEuNDIsNC4wNiw2MS40MkM0LjA2LDYxLjQyLDQuMDYsNjEuNDIsNC4wNiw2MS40MnoiLz4mI3hhOwkJCQkJCTwvZz4mI3hhOwkJCQkJCTxnIGlkPSJzaGFwZTM5NTAtMTciIHRyYW5zZm9ybT0idHJhbnNsYXRlKDUwLjgwNzYsLTYuMTE1NTIpIj4mI3hhOwkJCQkJCQk8dGl0bGUgaWQ9InRpdGxlMTAxMjU3Ij5wYXRoMTI8L3RpdGxlPiYjeGE7CQkJCQkJCTxwYXRoIGlkPSJwYXRoMTAxMjU5IiBpbmtzY2FwZTpjb25uZWN0b3ItY3VydmF0dXJlPSIwIiBzdHlsZT0iZmlsbDojQzJCRkJGOyIgZD0iTTE1LjgyLDU2LjY4ICAgICAgICAgYy0wLjE5LTEuMjYtMC42NS0yLjM4LTEuNDYtMy4zN2MtMC43My0wLjg4LTEuNjEtMS41My0yLjY2LTEuOTdjLTEuMDktMC40NS0yLjI1LTAuNTgtMy40Mi0wLjYyICAgICAgICAgYy0wLjQ5LTAuMDItNy4wOSwwLjA5LTcuNTcsMGMtMC4xMi0wLjAyLTAuMjEsMC4wMi0wLjI4LDAuMTJjLTAuMDgsMC4xNC0wLjE3LDAuMjYtMC4yMiwwLjRDMCw1MS43MSwwLDUxLjY3LDAuNSw1MS43NCAgICAgICAgIGMwLjQyLDAuMDcsMC44MSwwLjEsMS4yMSwwLjIzYzAuMzYsMC4xMiwwLjYyLDAuMzIsMC43MSwwLjcyYzAuMDMsMC4xOSwwLjA3LDYuMjcsMC4wNyw5LjExYzAsMC42Ny0wLjAyLDEuMzQtMC4wNywyLjAyICAgICAgICAgYy0wLjAyLDAuMTUtMC4wNCwwLjMxLTAuMDksMC40NWMtMC4wNywwLjItMC4xOSwwLjM4LTAuNCwwLjQ2Yy0wLjIyLDAuMTEtMC40NiwwLjE4LTAuNzIsMC4xOSAgICAgICAgIGMtMC40NywwLjA1LTAuNTQsMC4wNy0wLjY5LDAuNTljLTAuMDIsMC4wNy0wLjA0LDAuMTQtMC4wNSwwLjE5Yy0wLjA0LDAuMjItMC4wMiwwLjI2LDAuMiwwLjI2ICAgICAgICAgYzEuMDQsMC4wMiw0LjMxLDAuMDUsNS4xNywwLjA1YzAuNDgtMC4wMiwxLjI2LDAuMDQsMi4wMi0wLjAzYzAuNDctMC4wNiwwLjkzLTAuMDksMS40LTAuMThjMS41OS0wLjI5LDMuMDEtMC45NSw0LjIyLTIgICAgICAgICBjMC43LTAuNjIsMS4yNC0xLjM1LDEuNjUtMi4xOGMwLjQ5LTAuOTYsMC42OS0yLjAyLDAuNzUtMy4wOUMxNS45Niw1Ny45MywxNS45Myw1Ny4zLDE1LjgyLDU2LjY4TDE1LjgyLDU2LjY4eiBNMTMuMzIsNTkuMTQgICAgICAgICBjLTAuMDcsMS4xLTAuMjksMi4xNy0wLjg2LDMuMTRjLTAuNzMsMS4yNi0xLjc3LDIuMTQtMy4yLDIuNDVjLTAuNjIsMC4xNC0xLjI0LDAuMTktMS44OCwwLjExICAgICAgICAgYy0wLjQ3LTAuMDYtMC45Mi0wLjExLTEuMzUtMC4yNmMtMC43OC0wLjI4LTEuMDUtMC43Ni0xLjA3LTEuNTFjLTAuMDQtMS4wOCwwLTguNy0wLjAyLTEwLjQxYzAtMC42MywwLjI4LTAuNzYsMC43My0wLjc4ICAgICAgICAgYzAuNjctMC4wNSwxLjM2LTAuMDQsMi4wMywwLjAzYzAuNzMsMC4wNywxLjQyLDAuMjUsMi4xLDAuNTJjMC41LDAuMjEsMC45NiwwLjUsMS4zNiwwLjg1YzAuOTMsMC43OSwxLjU1LDEuOCwxLjg4LDIuOTcgICAgICAgICBDMTMuMzIsNTcuMiwxMy4zNyw1OC4xNywxMy4zMiw1OS4xNHoiLz4mI3hhOwkJCQkJCTwvZz4mI3hhOwkJCQkJCTxnIGlkPSJzaGFwZTM5NTEtMTkiIHRyYW5zZm9ybT0idHJhbnNsYXRlKDY3Ljg5MzIsLTYuMDExOSkiPiYjeGE7CQkJCQkJCTx0aXRsZSBpZD0idGl0bGUxMDEyNjIiPnBhdGgxNDwvdGl0bGU+JiN4YTsJCQkJCQkJPHBhdGggaWQ9InBhdGgxMDEyNjQiIGlua3NjYXBlOmNvbm5lY3Rvci1jdXJ2YXR1cmU9IjAiIHN0eWxlPSJmaWxsOiNDMkJGQkY7IiBkPSJNMTMuMDksNjAuNzJjMC0wLjEsMC0wLjE5LTAuMDEtMC4yOSAgICAgICAgIGMtMC4xNi0wLjk1LTAuNjYtMS42Ny0xLjQ0LTIuMjNjLTAuNS0wLjM2LTEuMDctMC42LTEuNjUtMC43OGMtMC4xMS0wLjAzLTAuMTktMC4wNi0wLjMtMC4wOGMwLjAyLTAuMDksMC4wNy0wLjExLDAuMTItMC4xMiAgICAgICAgIGMwLjM1LTAuMTgsMC42OC0wLjM3LDAuOTctMC42MmMwLjU0LTAuNDUsMC45LTEuMDEsMS4wNy0xLjY4YzAuMS0wLjM2LDAuMS0wLjczLDAuMDctMS4xMWMtMC4wOS0wLjk1LTAuNS0xLjY5LTEuMjYtMi4yNCAgICAgICAgIGMtMC44LTAuNTktMS43My0wLjgzLTIuNy0wLjg1Yy0xLjg2LTAuMDMtMy43NCwwLTUuNjEsMGMtMC41NCwwLTEuMDcsMC4wNC0xLjYyLTAuMDVjLTAuMTEtMC4wMi0wLjI1LTAuMDUtMC4zMywwLjA3ICAgICAgICAgYy0wLjE0LDAuMjItMC4yOCwwLjQ1LTAuMzMsMC43MWMtMC4wMiwwLjEyLDAuMDIsMC4xOSwwLjE1LDAuMmMwLjQsMC4wNiwwLjgsMC4xMywxLjIsMC4xOGMwLjQ2LDAuMDcsMC43OSwwLjMzLDAuODMsMC43NCAgICAgICAgIGMwLjAzLDAuMjksMC4wNSwwLjU3LDAuMDUsMC44NmMwLDEuMDgtMC4wMiwyLjE2LTAuMDQsMy4yM2MtMC4wMywyLjEzLTAuMDEsNC4yNy0wLjAxLDYuNGMwLDAuMzgtMC4wNiwwLjc0LTAuMTMsMS4xMiAgICAgICAgIGMtMC4wNSwwLjI2LTAuMTksMC40My0wLjQ0LDAuNTJDMS4zMyw2NC44LDEsNjQuOTEsMC42NCw2NC45MWMtMC4yMywwLTAuMzYsMC4wOC0wLjQ1LDAuMjljLTAuMDcsMC4xNS0wLjE0LDAuMzMtMC4xNiwwLjQ4ICAgICAgICAgQzAsNjUuODksMC4wNSw2NS45NiwwLjI2LDY1LjkyYzAuMTUtMC4wMSw1Ljg2LDAuMTMsNi45MywwLjAyYzAuNjQtMC4wNywxLjI4LTAuMTUsMS45LTAuMzRjMS4wOS0wLjM1LDIuMDktMC44NSwyLjg4LTEuNyAgICAgICAgIGMwLjY2LTAuNjksMS4wNC0xLjUyLDEuMDctMi40OEMxMy4wOSw2MS4xOSwxMy4wOSw2MC45NywxMy4wOSw2MC43MnogTTQuNzIsNTMuNjZjMC4wMy0wLjQ3LDAuMDMtMC45MiwwLjA1LTEuMzggICAgICAgICBjMC0wLjI2LDAuMS0wLjM4LDAuMzYtMC40NGMwLjQyLTAuMDgsMC44My0wLjA1LDEuMjQtMC4wM2MwLjQyLDAuMDMsMC44MiwwLjA5LDEuMjMsMC4yMWMwLjc2LDAuMjIsMS4zNSwwLjY1LDEuNjksMS4zOCAgICAgICAgIGMwLjE2LDAuMzMsMC4yNSwwLjY5LDAuMjUsMS4wNWMwLjAxLDAuNDktMC4wMiwwLjk1LTAuMjEsMS40MmMtMC4yOSwwLjY0LTAuNzYsMS4wNS0xLjQ0LDEuMTcgICAgICAgICBjLTAuNjcsMC4xMy0yLjU5LDAuMDctMi44OCwwLjA3Yy0wLjI2LDAtMC4yOC0wLjAzLTAuMjgtMC4yOWMwLTAuNTUsMC0xLjExLDAtMS42NGwwLDBDNC43LDU0LjcsNC42OCw1NC4xOCw0LjcyLDUzLjY2eiAgICAgICAgICBNMTAuMzMsNjIuOTVjLTAuMjksMC43OC0wLjgzLDEuMzItMS41OSwxLjYxYy0wLjQxLDAuMTYtMC44MywwLjI0LTEuMjgsMC4yMmMtMC41My0wLjAxLTEuMDcsMC0xLjYtMC4xICAgICAgICAgYy0wLjczLTAuMTUtMS4wNi0wLjg1LTEuMTEtMS4zNWMtMC4wOS0wLjg4LTAuMDMtMS43OC0wLjA1LTIuNDNjMC0wLjkyLDAtMS41OSwwLTIuMjhjMC0wLjI4LDAuMDMtMC4zNywwLjMzLTAuMzcgICAgICAgICBjMC41My0wLjAxLDEuMDctMC4wMywxLjYyLDAuMDJjMC4zOCwwLjA0LDAuNzQsMC4wNywxLjExLDAuMTRjMC43NywwLjE3LDEuNDgsMC40NywyLjA0LDEuMDdjMC40NCwwLjQ4LDAuNjksMS4wNywwLjc0LDEuNzEgICAgICAgICBDMTAuNTksNjEuOCwxMC41Niw2Mi4zOCwxMC4zMyw2Mi45NUMxMC4zMyw2Mi45NSwxMC4zMyw2Mi45NSwxMC4zMyw2Mi45NXoiLz4mI3hhOwkJCQkJCTwvZz4mI3hhOwkJCQkJCTxnIGlkPSJzaGFwZTM5NTItMjEiIHRyYW5zZm9ybT0idHJhbnNsYXRlKDI1LjU4NTIpIj4mI3hhOwkJCQkJCQk8dGl0bGUgaWQ9InRpdGxlMTAxMjY3Ij5wYXRoMTY8L3RpdGxlPiYjeGE7CQkJCQkJCTxwYXRoIGlkPSJwYXRoMTAxMjY5IiBpbmtzY2FwZTpjb25uZWN0b3ItY3VydmF0dXJlPSIwIiBzdHlsZT0iZmlsbDojNDc0NzRBOyIgZD0iTTguNzQsNTEuNzJjMC4xNiwwLjAyLDAuMzEsMC4wNiwwLjQ1LDAuMDcgICAgICAgICBjMC40OCwwLjAyLDEuMDUtMC4xNSwxLjIzLTAuODNjMC4wOC0wLjMyLDAuMS0wLjY0LDAtMC45OGMtMC4xMSwwLTAuMTYsMC4wOS0wLjIxLDAuMTJjLTAuMjYsMC4yMS0wLjU1LDAuMzMtMC44NiwwLjM2ICAgICAgICAgQzguNzIsNTAuNTMsOC4xLDUwLjUsNy41LDUwLjI3Yy0wLjI4LTAuMS0wLjU2LTAuMi0wLjg1LTAuMjljLTAuNTktMC4xOS0xLjIxLTAuMjgtMS44My0wLjI0ICAgICAgICAgYy0wLjg4LDAuMDctMS43MSwwLjM2LTIuNDksMC43N2MtMC44MywwLjQ1LTEuNDEsMS4xMy0xLjY5LDIuMDRjLTAuMTYsMC41NC0wLjE3LDEuMDktMC4xLDEuNjRjMC4xNywxLjI3LDAuODIsMi4xNSwyLDIuNjEgICAgICAgICBjMC4wNywwLjAyLDAuMTIsMC4wNSwwLjE5LDAuMDdjMC4xNiwwLjA5LDAuMTcsMC4xNywwLjAzLDAuM2MtMC4xMywwLjEtMC4yNywwLjItMC40MywwLjI5Yy0wLjM0LDAuMjEtMC42OSwwLjQxLTEuMDMsMC42NCAgICAgICAgIGMtMC4yNiwwLjE1LTAuMywwLjI4LTAuMjEsMC41NWMwLjEsMC4zMywwLjI5LDAuNjEsMC41NSwwLjgzYzAuMjQsMC4yMSwwLjUsMC4zNiwwLjgsMC40OGMwLjE5LDAuMDksMC4xOSwwLjE0LDAuMDEsMC4yOCAgICAgICAgIGMtMC4zMywwLjI0LTAuNjUsMC40Ny0wLjk4LDAuNzFjLTAuMzMsMC4yNC0wLjY2LDAuNTItMC45MywwLjgzYy0wLjQsMC40NS0wLjU0LDAuOTctMC40MiwxLjU1ICAgICAgICAgYzAuMTQsMC42MywwLjQzLDEuMTMsMC45LDEuNTZDMS40Nyw2NS4zLDIsNjUuNiwyLjYxLDY1Ljc1YzAuOTcsMC4yOCwxLjk3LDAuMywyLjk1LDAuMTFjMS40Mi0wLjI2LDIuNjUtMC45LDMuNjMtMS45NiAgICAgICAgIGMwLjY3LTAuNywxLjA3LTEuNTMsMS4xMS0yLjU0YzAuMDUtMS4yMS0wLjY5LTIuMjItMS44Ny0yLjUyYy0wLjMxLTAuMDctMC42Mi0wLjEyLTAuOTMtMC4xN2MtMC45NS0wLjEyLTEuOS0wLjE3LTIuODUtMC4yNCAgICAgICAgIGMtMC4zMS0wLjAyLTAuNjItMC4wNy0wLjg4LTAuMjNjLTAuMzMtMC4yLTAuNDItMC42LTAuMjEtMC44NmMwLjE1LTAuMTksMC4zNC0wLjMxLDAuNTktMC4zM2MwLjE5LTAuMDIsMC4zNi0wLjAzLDAuNTUtMC4wNSAgICAgICAgIGMxLjEyLTAuMTIsMi4wOS0wLjU3LDIuOTItMS4zM2MwLjQzLTAuNCwwLjcyLTAuOSwwLjg4LTEuNDdjMC4yMS0wLjc0LDAuMjEtMS41LDAuMDMtMi4yNkM4LjQ4LDUxLjcxLDguNSw1MS42OSw4Ljc0LDUxLjcyeiAgICAgICAgICBNNC41MSw2MC4zM2MwLjEsMC4wMSwwLjIxLDAsMC4zMSwwQzUuNTUsNjAuMzYsNi4yOSw2MC40MSw3LDYwLjZjMC4yNCwwLjA3LDAuNDUsMC4xNiwwLjY3LDAuMjYgICAgICAgICBjMC42OSwwLjM4LDAuOTUsMS4wNCwwLjg2LDEuNzVDOC40Myw2My4zOSw4LDYzLjk0LDcuMzIsNjQuM2MtMC40NCwwLjI0LTAuOTUsMC4zNi0xLjQ2LDAuNDJjLTAuMTksMC4wMS0wLjM3LDAtMC41NiwwICAgICAgICAgYy0wLjYsMC4wMS0xLjE5LTAuMDYtMS43Ni0wLjNjLTAuNC0wLjE1LTAuNzItMC4zOC0xLjAyLTAuNjljLTAuNi0wLjYtMC45LTEuNzEsMC4wMi0yLjYxQzMuMDksNjAuNiwzLjcxLDYwLjI2LDQuNTEsNjAuMzN6ICAgICAgICAgIE02LjQ4LDU0Ljk0Yy0wLjM2LDAuOTEtMS4xNiwxLjE5LTEuOTUsMS4wN2MtMC43My0wLjExLTEuMjYtMC41LTEuNjEtMS4xNmMtMC40NS0wLjg4LTAuNTctMS44LTAuMzEtMi43NSAgICAgICAgIGMwLjE5LTAuNywwLjYyLTEuMjQsMS4zOC0xLjM2YzAuOTctMC4xNywxLjg4LDAuMTcsMi4zOCwxLjE0YzAuMjUsMC40NywwLjM3LDEuMDQsMC4zNywxLjg1ICAgICAgICAgQzYuNzIsNTQuMDYsNi42NSw1NC41MSw2LjQ4LDU0Ljk0eiIvPiYjeGE7CQkJCQkJPC9nPiYjeGE7CQkJCQkJPGcgaWQ9InNoYXBlMzk1My0yMyIgdHJhbnNmb3JtPSJ0cmFuc2xhdGUoMCwtNS43NTI3NykiPiYjeGE7CQkJCQkJCTx0aXRsZSBpZD0idGl0bGUxMDEyNzIiPnBhdGgxODwvdGl0bGU+JiN4YTsJCQkJCQkJPHBhdGggaWQ9InBhdGgxMDEyNzQiIGlua3NjYXBlOmNvbm5lY3Rvci1jdXJ2YXR1cmU9IjAiIHN0eWxlPSJmaWxsOiM0NzQ3NEE7IiBkPSJNMTAuMyw1OS41MmMtMC4xNi0wLjk0LTAuNS0xLjc4LTEuMTQtMi40OSAgICAgICAgIEM4LjIxLDU1Ljk3LDcsNTUuNTIsNS42Myw1NS41MWMtMS4xOS0wLjAyLTIuMzEsMC4zMy0zLjMyLDAuOTVjLTEsMC42Mi0xLjY5LDEuNS0yLjAyLDIuNjRjLTAuMjksMS0wLjI3LDIuMDItMC4wNSwzLjA0ICAgICAgICAgYzAuNjEsMi43MywyLjcxLDMuOTEsNS4yNCwzLjczYzAuNzQtMC4wNSwxLjQ1LTAuMjksMi4xMi0wLjYyYzEtMC40NywxLjczLTEuMjEsMi4yMy0yLjE5YzAuNC0wLjgyLDAuNTctMS42OCwwLjU1LTIuNjYgICAgICAgICBDMTAuMzcsNjAuMTUsMTAuMzUsNTkuODMsMTAuMyw1OS41MnogTTcuODQsNjMuMzVjLTAuMzEsMC44My0wLjksMS4zMy0xLjc4LDEuNDVjLTAuNzYsMC4xMS0xLjQ2LTAuMDgtMi4xLTAuNTMgICAgICAgICBjLTAuNDctMC4zNS0wLjgzLTAuNzgtMS4wOS0xLjNDMi4xNiw2MS41MiwyLjA0LDYwLDIuNCw1OC40NGMwLjEyLTAuNDgsMC4zNi0wLjkxLDAuNzMtMS4yNmMwLjY0LTAuNTgsMS4zOC0wLjcyLDIuMjEtMC41NSAgICAgICAgIGMwLjc5LDAuMTcsMS40LDAuNiwxLjg4LDEuMjZzMC43MywxLjQyLDAuODYsMi4yMWMwLjA3LDAuNCwwLjA3LDAuODEsMC4wOSwxLjA3QzguMTcsNjIsOC4xLDYyLjY4LDcuODQsNjMuMzV6Ii8+JiN4YTsJCQkJCQk8L2c+JiN4YTsJCQkJCQk8ZyBpZD0ic2hhcGUzOTU0LTI1IiB0cmFuc2Zvcm09InRyYW5zbGF0ZSgzNy42MjYzLC01LjczNTUpIj4mI3hhOwkJCQkJCQk8dGl0bGUgaWQ9InRpdGxlMTAxMjc3Ij5wYXRoMjA8L3RpdGxlPiYjeGE7CQkJCQkJCTxwYXRoIGlkPSJwYXRoMTAxMjc5IiBpbmtzY2FwZTpjb25uZWN0b3ItY3VydmF0dXJlPSIwIiBzdHlsZT0iZmlsbDojNDc0NzRBOyIgZD0iTTEwLjQyLDU5LjY0ICAgICAgICAgYy0wLjE0LTEuMDEtMC41LTEuOTItMS4yMS0yLjY4Yy0wLjkzLTEuMDItMi4xNC0xLjQ1LTMuNDktMS40N2MtMS4xNi0wLjAyLTIuMjMsMC4zMS0zLjIyLDAuODggICAgICAgICBjLTEuMSwwLjY2LTEuODYsMS41OS0yLjE1LDIuODVjLTAuMzUsMS40Mi0wLjIxLDIuOCwwLjQxLDQuMTFjMC41NywxLjIxLDEuNTQsMS45OSwyLjgyLDIuMzRjMS40MSwwLjM4LDIuNzYsMC4yLDQuMDctMC40NCAgICAgICAgIGMxLjE0LTAuNTUsMS45Ni0xLjQxLDIuNDItMi41OWMwLjI4LTAuNjksMC4zOC0xLjQzLDAuNC0yLjNDMTAuNDksNjAuMTksMTAuNDUsNTkuOTEsMTAuNDIsNTkuNjR6IE04LjAzLDYzLjExICAgICAgICAgYy0wLjI3LDAuOTMtMC44NiwxLjU0LTEuODUsMS42N2MtMC43MiwwLjExLTEuNDEtMC4wNi0yLjAzLTAuNDhjLTAuNTQtMC4zNi0wLjkyLTAuODUtMS4yLTEuNDIgICAgICAgICBjLTAuMzEtMC42LTAuNDgtMS4yNC0wLjU1LTEuOWMtMC4xLTAuODEtMC4xLTEuNiwwLjA5LTIuNDFjMC4wMy0wLjE2LDAuMDgtMC4zMiwwLjE1LTAuNDdjMC40OS0xLjIxLDEuNTYtMS43NiwyLjgyLTEuNDkgICAgICAgICBjMC44NSwwLjE5LDEuNDgsMC42NiwxLjk3LDEuMzdjMC40NiwwLjY5LDAuNjksMS40NSwwLjc5LDIuMjZjMC4wNiwwLjMzLDAuMDcsMC42NywwLjA2LDAuOTcgICAgICAgICBDOC4yOCw2MS44OCw4LjIyLDYyLjUsOC4wMyw2My4xMXoiLz4mI3hhOwkJCQkJCTwvZz4mI3hhOwkJCQkJPC9nPiYjeGE7CQkJCTwvZz4mI3hhOwkJCTwvZz4mI3hhOwkJPC9nPiYjeGE7CTwvZz4mI3hhOzwvZz4mI3hhOzwvc3ZnPg==;rounded=1;dashed=1;strokeColor=#3399FF;rotation=0;" vertex="1" parent="M06deS8VlxeRnnj21vpx-1">
          <mxGeometry x="1068.5" y="258" width="59" height="37.39" as="geometry" />
        </mxCell>
        <mxCell id="M06deS8VlxeRnnj21vpx-92" value="Atlas Cluster" style="text;html=1;resizable=0;autosize=1;align=center;verticalAlign=middle;points=[];fillColor=none;strokeColor=none;rounded=0;dashed=1;" vertex="1" parent="M06deS8VlxeRnnj21vpx-1">
          <mxGeometry x="1036" y="342" width="84" height="24" as="geometry" />
        </mxCell>
      </root>
    </mxGraphModel>
  </diagram>
</mxfile>
